SplineFontDB: 3.2
FontName: YuGothic-Light
FullName: Yu Gothic Light
FamilyName: Yu Gothic Light
Weight: Light
Copyright: Copyright (c) 2020 JIYUKOBO Ltd. All Rights Reserved.
Version: 1.93
ItalicAngle: 0
UnderlinePosition: -257
UnderlineWidth: 104
Ascent: 1802
Descent: 246
InvalidEm: 0
sfntRevision: 0x0001ee14
LayerCount: 2
Layer: 0 1 "+BBcEMAQ0BD0EOAQ5 +BD8EOwQwBD0A" 1
Layer: 1 1 "+BB8ENQRABDUENAQ9BDgEOQAA +BD8EOwQwBD0A" 0
HasVMetrics: 1
XUID: [1021 641 2146809094 2195]
BaseHoriz: 4 'icfb' 'icft' 'ideo' 'romn'
BaseScript: 'DFLT' 2  -143 1700 -246 0
BaseScript: 'cyrl' 3  -143 1700 -246 0
BaseScript: 'grek' 3  -143 1700 -246 0
BaseScript: 'hani' 2  -143 1700 -246 0
BaseScript: 'kana' 2  -143 1700 -246 0
BaseScript: 'latn' 3  -143 1700 -246 0
BaseVert: 4 'icfb' 'icft' 'ideo' 'romn'
BaseScript: 'DFLT' 2  102 1946 0 246
BaseScript: 'cyrl' 3  102 1946 0 246
BaseScript: 'grek' 3  102 1946 0 246
BaseScript: 'hani' 2  102 1946 0 246
BaseScript: 'kana' 2  102 1946 0 246
BaseScript: 'latn' 3  102 1946 0 246
StyleMap: 0x0000
FSType: 8
OS2Version: 4
OS2_WeightWidthSlopeOnly: 0
OS2_UseTypoMetrics: 0
CreationTime: 1368590218
ModificationTime: 1715004817
PfmFamily: 17
TTFWeight: 300
TTFWidth: 5
LineGap: 1024
VLineGap: 1024
Panose: 2 11 3 0 0 0 0 0 0 0
OS2TypoAscent: 1802
OS2TypoAOffset: 0
OS2TypoDescent: -246
OS2TypoDOffset: 0
OS2TypoLinegap: 1024
OS2WinAscent: 2026
OS2WinAOffset: 0
OS2WinDescent: 610
OS2WinDOffset: 0
HheadAscent: 1802
HheadAOffset: 0
HheadDescent: -455
HheadDOffset: 0
OS2SubXSize: 1024
OS2SubYSize: 1579
OS2SubXOff: 0
OS2SubYOff: 307
OS2SupXSize: 1024
OS2SupYSize: 1579
OS2SupXOff: 0
OS2SupYOff: 0
OS2StrikeYSize: 94
OS2StrikeYPos: 858
OS2CapHeight: 1544
OS2XHeight: 1063
OS2Vendor: 'JY  '
OS2CodePages: 2002009f.00000000
OS2UnicodeRanges: e00002ff.2ac7fdff.00000016.00000000

StartChar: uni00A0
Encoding: 32 32 0
AltUni2: 0000a0.ffffffff.0 0000a0.ffffffff.0
Width: 584
GlyphClass: 2
Flags: W
LayerCount: 2
Fore
SplineSet
0 0 m 1024,0,-1
EndSplineSet
Validated: 1
Substitution2: "'hwid' Half Widths lookup 33 subtable" uni2002
Substitution2: "'fwid' Full Widths lookup 30 subtable" uni3000
Substitution2: "'ital' Italics lookup 17 subtable" uni00A0.ital
Substitution2: "'vrt2' Vertical Rotation & Alternates lookup 5 subtable" uni00A0.vert
AlternateSubs2: "'aalt' +BBIEQQQ1 +BDAEOwRMBEIENQRABD0EMARCBDgEMgQ9BEsENQAA +BDIEMARABDgEMAQ9BEIESwAA lookup 1 per glyph data 0" uni2002 glyph328 glyph424 glyph517 uni3000 glyph8231 uni00A0.vert uni00A0.ital
EndChar

StartChar: exclam
Encoding: 33 33 1
Width: 610
GlyphClass: 2
Flags: W
LayerCount: 2
Fore
SplineSet
362 1544 m 1,0,-1
 335 457 l 1,1,-1
 274 457 l 1,2,-1
 243 1544 l 1,3,-1
 362 1544 l 1,0,-1
381 199 m 1,4,-1
 381 37 l 1,5,-1
 229 37 l 1,6,-1
 229 199 l 1,7,-1
 381 199 l 1,4,-1
EndSplineSet
Validated: 1
Substitution2: "'hwid' Half Widths lookup 33 subtable" exclam.hwid
Substitution2: "'fwid' Full Widths lookup 30 subtable" uniFF01
Substitution2: "'ital' Italics lookup 17 subtable" exclam.ital
Substitution2: "'vrt2' Vertical Rotation & Alternates lookup 5 subtable" exclam.vert
AlternateSubs2: "'aalt' +BBIEQQQ1 +BDAEOwRMBEIENQRABD0EMARCBDgEMgQ9BEsENQAA +BDIEMARABDgEMAQ9BEIESwAA lookup 1 per glyph data 0" exclam.hwid uniFF01 exclam.vert exclam.ital exclamdbl glyph12115 glyph12116
EndChar

StartChar: quotedbl
Encoding: 34 34 2
Width: 756
GlyphClass: 2
Flags: W
LayerCount: 2
Fore
SplineSet
250 1544 m 1,0,-1
 213 1057 l 1,1,-1
 156 1057 l 1,2,-1
 129 1544 l 1,3,-1
 250 1544 l 1,0,-1
627 1544 m 1,4,-1
 592 1057 l 1,5,-1
 535 1057 l 1,6,-1
 508 1544 l 1,7,-1
 627 1544 l 1,4,-1
EndSplineSet
Validated: 1
Substitution2: "'hwid' Half Widths lookup 33 subtable" quotedbl.hwid
Substitution2: "'fwid' Full Widths lookup 30 subtable" uniFF02
Substitution2: "'ital' Italics lookup 17 subtable" quotedbl.ital
Substitution2: "'vrt2' Vertical Rotation & Alternates lookup 5 subtable" quotedbl.vert
AlternateSubs2: "'aalt' +BBIEQQQ1 +BDAEOwRMBEIENQRABD0EMARCBDgEMgQ9BEsENQAA +BDIEMARABDgEMAQ9BEIESwAA lookup 1 per glyph data 0" uniFF02 quotedbl.vert quotedbl.ital quotedbl.hwid
EndChar

StartChar: numbersign
Encoding: 35 35 3
Width: 1098
GlyphClass: 2
Flags: W
LayerCount: 2
Fore
SplineSet
940 1544 m 1,0,-1
 844 1079 l 1,1,-1
 1044 1079 l 1,2,-1
 1028 1005 l 1,3,-1
 827 1005 l 1,4,-1
 739 578 l 1,5,-1
 938 578 l 1,6,-1
 923 504 l 1,7,-1
 723 504 l 1,8,-1
 626 37 l 1,9,-1
 561 37 l 1,10,-1
 657 504 l 1,11,-1
 319 504 l 1,12,-1
 221 37 l 1,13,-1
 155 37 l 1,14,-1
 254 504 l 1,15,-1
 53 504 l 1,16,-1
 69 578 l 1,17,-1
 268 578 l 1,18,-1
 358 1005 l 1,19,-1
 157 1005 l 1,20,-1
 174 1079 l 1,21,-1
 375 1079 l 1,22,-1
 471 1544 l 1,23,-1
 536 1544 l 1,24,-1
 440 1079 l 1,25,-1
 778 1079 l 1,26,-1
 874 1544 l 1,27,-1
 940 1544 l 1,0,-1
762 1005 m 1,28,-1
 424 1005 l 1,29,-1
 334 578 l 1,30,-1
 674 578 l 1,31,-1
 762 1005 l 1,28,-1
EndSplineSet
Validated: 1
Substitution2: "'hwid' Half Widths lookup 33 subtable" numbersign.hwid
Substitution2: "'fwid' Full Widths lookup 30 subtable" uniFF03
Substitution2: "'ital' Italics lookup 17 subtable" numbersign.ital
Substitution2: "'vrt2' Vertical Rotation & Alternates lookup 5 subtable" numbersign.vert
Substitution2: "+BBUENAQ4BD0EOARHBD0EMARP +BD8EPgQ0BEEEQgQwBD0EPgQyBDoEMAAA lookup 2 subtable" uniFF03
AlternateSubs2: "'aalt' +BBIEQQQ1 +BDAEOwRMBEIENQRABD0EMARCBDgEMgQ9BEsENQAA +BDIEMARABDgEMAQ9BEIESwAA lookup 1 per glyph data 0" numbersign.hwid uniFF03 numbersign.vert numbersign.ital
EndChar

StartChar: dollar
Encoding: 36 36 4
Width: 1098
GlyphClass: 2
Flags: W
LayerCount: 2
Fore
SplineSet
588 1696 m 1,0,-1
 588 1544 l 1,1,2
 873 1522 873 1522 957 1217 c 1,3,-1
 879 1188 l 1,4,5
 816 1462 816 1462 588 1475 c 1,6,-1
 588 827 l 1,7,8
 816 762 816 762 906 651 c 0,9,10
 981 558 981 558 981 410 c 0,11,12
 981 217 981 217 859 110 c 0,13,14
 756 20 756 20 588 10 c 1,15,-1
 588 -156 l 1,16,-1
 522 -156 l 1,17,-1
 522 10 l 1,18,19
 341 24 341 24 239 118 c 0,20,21
 145 204 145 204 94 379 c 1,22,-1
 168 416 l 1,23,24
 207 233 207 233 305 156 c 0,25,26
 382 95 382 95 522 80 c 1,27,-1
 522 766 l 1,28,29
 308 822 308 822 220 931 c 0,30,31
 147 1023 147 1023 147 1169 c 0,32,33
 147 1341 147 1341 267 1447 c 0,34,35
 370 1538 370 1538 522 1544 c 1,36,-1
 522 1696 l 1,37,-1
 588 1696 l 1,0,-1
522 1475 m 1,38,39
 377 1468 377 1468 298 1378 c 0,40,41
 227 1299 227 1299 227 1171 c 0,42,43
 227 1033 227 1033 298 959 c 0,44,45
 365 889 365 889 522 846 c 1,46,-1
 522 1475 l 1,38,39
588 748 m 1,47,-1
 588 80 l 1,48,49
 749 90 749 90 830 184 c 0,50,51
 899 266 899 266 899 401 c 0,52,53
 899 547 899 547 818 628 c 0,54,55
 747 699 747 699 588 748 c 1,47,-1
EndSplineSet
Validated: 1
Substitution2: "'hwid' Half Widths lookup 33 subtable" dollar.hwid
Substitution2: "'fwid' Full Widths lookup 30 subtable" uniFF04
Substitution2: "'ital' Italics lookup 17 subtable" dollar.ital
Substitution2: "'vrt2' Vertical Rotation & Alternates lookup 5 subtable" dollar.vert
AlternateSubs2: "'aalt' +BBIEQQQ1 +BDAEOwRMBEIENQRABD0EMARCBDgEMgQ9BEsENQAA +BDIEMARABDgEMAQ9BEIESwAA lookup 1 per glyph data 0" dollar.hwid uniFF04 uni5F17 uni3326 uni3326.vert dollar.vert dollar.ital
EndChar

StartChar: percent
Encoding: 37 37 5
Width: 1522
GlyphClass: 2
Flags: W
LayerCount: 2
Fore
SplineSet
395 1544 m 0,0,1
 531 1544 531 1544 610 1438 c 0,2,3
 684 1340 684 1340 684 1176 c 0,4,5
 684 987 684 987 590 887 c 0,6,7
 513 805 513 805 395 805 c 0,8,9
 259 805 259 805 180 910 c 0,10,11
 106 1007 106 1007 106 1171 c 0,12,13
 106 1360 106 1360 200 1461 c 0,14,15
 278 1544 278 1544 395 1544 c 0,0,1
395 1478 m 0,16,17
 290 1478 290 1478 234 1393 c 0,18,19
 182 1314 182 1314 182 1173 c 0,20,21
 182 1012 182 1012 249 932 c 0,22,23
 304 868 304 868 395 868 c 0,24,25
 500 868 500 868 557 953 c 0,26,27
 610 1032 610 1032 610 1173 c 0,28,29
 610 1334 610 1334 541 1413 c 0,30,31
 486 1478 486 1478 395 1478 c 0,16,17
1257 1544 m 1,32,-1
 335 10 l 1,33,-1
 262 10 l 1,34,-1
 1183 1544 l 1,35,-1
 1257 1544 l 1,32,-1
1126 750 m 0,36,37
 1262 750 1262 750 1341 644 c 0,38,39
 1415 546 1415 546 1415 381 c 0,40,41
 1415 193 1415 193 1321 92 c 0,42,43
 1244 10 1244 10 1126 10 c 0,44,45
 990 10 990 10 911 115 c 0,46,47
 837 212 837 212 837 377 c 0,48,49
 837 566 837 566 931 667 c 0,50,51
 1009 750 1009 750 1126 750 c 0,36,37
1126 684 m 0,52,53
 1021 684 1021 684 965 599 c 0,54,55
 913 520 913 520 913 379 c 0,56,57
 913 218 913 218 980 139 c 0,58,59
 1035 74 1035 74 1126 74 c 0,60,61
 1231 74 1231 74 1288 159 c 0,62,63
 1341 238 1341 238 1341 379 c 0,64,65
 1341 540 1341 540 1272 619 c 0,66,67
 1217 684 1217 684 1126 684 c 0,52,53
EndSplineSet
Validated: 1
Substitution2: "'hwid' Half Widths lookup 33 subtable" percent.hwid
Substitution2: "'fwid' Full Widths lookup 30 subtable" uniFF05
Substitution2: "'ital' Italics lookup 17 subtable" percent.ital
Substitution2: "'vrt2' Vertical Rotation & Alternates lookup 5 subtable" percent.vert
AlternateSubs2: "'aalt' +BBIEQQQ1 +BDAEOwRMBEIENQRABD0EMARCBDgEMgQ9BEsENQAA +BDIEMARABDgEMAQ9BEIESwAA lookup 1 per glyph data 0" percent.hwid uniFF05 uni332B uni332B.vert percent.vert percent.ital
EndChar

StartChar: ampersand
Encoding: 38 38 6
Width: 1399
GlyphClass: 2
Flags: W
LayerCount: 2
Fore
SplineSet
1230 731 m 1,0,1
 1187 390 1187 390 1042 236 c 1,2,3
 1126 144 1126 144 1193 115 c 0,4,5
 1252 90 1252 90 1349 90 c 1,6,-1
 1320 16 l 1,7,-1
 1308 16 l 2,8,9
 1202 16 1202 16 1126 60 c 0,10,11
 1064 96 1064 96 989 180 c 1,12,13
 807 10 807 10 563 10 c 0,14,15
 350 10 350 10 218 147 c 0,16,17
 106 264 106 264 106 430 c 0,18,19
 106 603 106 603 201 718 c 0,20,21
 283 816 283 816 450 893 c 1,22,23
 329 1080 329 1080 329 1231 c 0,24,25
 329 1373 329 1373 430 1465 c 0,26,27
 517 1544 517 1544 636 1544 c 0,28,29
 773 1544 773 1544 854 1454 c 0,30,31
 925 1375 925 1375 925 1255 c 0,32,33
 925 1118 925 1118 825 1026 c 0,34,35
 737 944 737 944 546 872 c 1,36,37
 770 523 770 523 997 277 c 1,38,39
 1113 425 1113 425 1150 754 c 1,40,-1
 1230 731 l 1,0,1
479 844 m 1,41,42
 305 758 305 758 241 652 c 0,43,44
 188 564 188 564 188 424 c 0,45,46
 188 270 188 270 306 169 c 0,47,48
 410 80 410 80 561 80 c 0,49,50
 796 80 796 80 944 221 c 1,51,52
 707 486 707 486 479 844 c 1,41,42
518 922 m 1,53,54
 721 1005 721 1005 789 1085 c 0,55,56
 847 1153 847 1153 847 1265 c 0,57,58
 847 1361 847 1361 782 1423 c 0,59,60
 723 1478 723 1478 636 1478 c 0,61,62
 532 1478 532 1478 464 1399 c 0,63,64
 405 1331 405 1331 405 1237 c 0,65,66
 405 1155 405 1155 434 1081 c 0,67,68
 458 1018 458 1018 518 922 c 1,53,54
EndSplineSet
Validated: 1
Substitution2: "'hwid' Half Widths lookup 33 subtable" ampersand.hwid
Substitution2: "'fwid' Full Widths lookup 30 subtable" uniFF06
Substitution2: "'ital' Italics lookup 17 subtable" ampersand.ital
Substitution2: "'vrt2' Vertical Rotation & Alternates lookup 5 subtable" ampersand.vert
AlternateSubs2: "'aalt' +BBIEQQQ1 +BDAEOwRMBEIENQRABD0EMARCBDgEMgQ9BEsENQAA +BDIEMARABDgEMAQ9BEIESwAA lookup 1 per glyph data 0" ampersand.hwid uniFF06 ampersand.vert ampersand.ital
EndChar

StartChar: quotesingle
Encoding: 39 39 7
Width: 379
GlyphClass: 2
Flags: W
LayerCount: 2
Fore
SplineSet
250 1544 m 1,0,-1
 213 1057 l 1,1,-1
 156 1057 l 1,2,-1
 129 1544 l 1,3,-1
 250 1544 l 1,0,-1
EndSplineSet
Validated: 1
Substitution2: "'hwid' Half Widths lookup 33 subtable" quotesingle.hwid
Substitution2: "'fwid' Full Widths lookup 30 subtable" uniFF07
Substitution2: "'ital' Italics lookup 17 subtable" quotesingle.ital
Substitution2: "'vrt2' Vertical Rotation & Alternates lookup 5 subtable" quotesingle.vert
AlternateSubs2: "'aalt' +BBIEQQQ1 +BDAEOwRMBEIENQRABD0EMARCBDgEMgQ9BEsENQAA +BDIEMARABDgEMAQ9BEIESwAA lookup 1 per glyph data 0" uniFF07 quotesingle.vert quotesingle.ital quotesingle.hwid
EndChar

StartChar: parenleft
Encoding: 40 40 8
Width: 694
GlyphClass: 2
Flags: W
LayerCount: 2
Fore
SplineSet
650 1743 m 1,0,1
 442 1484 442 1484 361 1243 c 0,2,3
 291 1036 291 1036 291 778 c 0,4,5
 291 484 291 484 384 251 c 0,6,7
 467 41 467 41 650 -187 c 1,8,-1
 609 -217 l 1,9,10
 383 33 383 33 288 279 c 0,11,12
 201 504 201 504 201 778 c 0,13,14
 201 1087 201 1087 316 1341 c 0,15,16
 412 1553 412 1553 609 1773 c 1,17,-1
 650 1743 l 1,0,1
EndSplineSet
Validated: 1
Substitution2: "'qwid' Quarter Widths lookup 37 subtable" parenleft.qwid
Substitution2: "'hwid' Half Widths lookup 33 subtable" parenleft.hwid
Substitution2: "'fwid' Full Widths lookup 30 subtable" uniFF08
Substitution2: "'twid' Third Widths lookup 25 subtable" parenleft.twid
Substitution2: "'ital' Italics lookup 17 subtable" parenleft.ital
Substitution2: "'vrt2' Vertical Rotation & Alternates lookup 5 subtable" parenleft.vert
AlternateSubs2: "'aalt' +BBIEQQQ1 +BDAEOwRMBEIENQRABD0EMARCBDgEMgQ9BEsENQAA +BDIEMARABDgEMAQ9BEIESwAA lookup 1 per glyph data 0" parenleft.hwid uniFF08 uniFE35 parenleft.vert parenleft.ital parenleft.qwid parenleft.twid glyph10235 uniFF5F.hwid uniFF5F uniFF5F.vert uni239B uni239D uni239D.vert uni239B.vert uniFF08.ruby uniFE35.ruby
EndChar

StartChar: parenright
Encoding: 41 41 9
Width: 694
GlyphClass: 2
Flags: W
LayerCount: 2
Fore
SplineSet
86 1773 m 1,0,1
 311 1522 311 1522 406 1276 c 0,2,3
 494 1050 494 1050 494 778 c 0,4,5
 494 467 494 467 380 215 c 0,6,7
 284 2 284 2 86 -217 c 1,8,-1
 45 -187 l 1,9,10
 252 72 252 72 334 313 c 0,11,12
 404 520 404 520 404 778 c 0,13,14
 404 1072 404 1072 311 1305 c 0,15,16
 228 1515 228 1515 45 1743 c 1,17,-1
 86 1773 l 1,0,1
EndSplineSet
Validated: 1
Substitution2: "'qwid' Quarter Widths lookup 37 subtable" parenright.qwid
Substitution2: "'hwid' Half Widths lookup 33 subtable" parenright.hwid
Substitution2: "'fwid' Full Widths lookup 30 subtable" uniFF09
Substitution2: "'twid' Third Widths lookup 25 subtable" parenright.twid
Substitution2: "'ital' Italics lookup 17 subtable" parenright.ital
Substitution2: "'vrt2' Vertical Rotation & Alternates lookup 5 subtable" parenright.vert
AlternateSubs2: "'aalt' +BBIEQQQ1 +BDAEOwRMBEIENQRABD0EMARCBDgEMgQ9BEsENQAA +BDIEMARABDgEMAQ9BEIESwAA lookup 1 per glyph data 0" parenright.hwid uniFF09 uniFE36 parenright.vert parenright.ital parenright.qwid parenright.twid uniFF60.hwid uniFF60 uniFF60.vert uni239E uni23A0 uni23A0.vert uni239E.vert uniFF09.ruby uniFE36.ruby
EndChar

StartChar: asterisk
Encoding: 42 42 10
Width: 885
GlyphClass: 2
Flags: W
LayerCount: 2
Fore
SplineSet
503 1544 m 1,0,-1
 467 1229 l 1,1,-1
 723 1415 l 1,2,-1
 784 1313 l 1,3,-1
 491 1186 l 1,4,-1
 782 1059 l 1,5,-1
 723 954 l 1,6,-1
 465 1147 l 1,7,-1
 503 827 l 1,8,-1
 381 827 l 1,9,-1
 417 1143 l 1,10,-1
 161 956 l 1,11,-1
 100 1059 l 1,12,-1
 393 1188 l 1,13,-1
 102 1313 l 1,14,-1
 161 1417 l 1,15,-1
 417 1231 l 1,16,-1
 381 1544 l 1,17,-1
 503 1544 l 1,0,-1
EndSplineSet
Validated: 1
Substitution2: "'hwid' Half Widths lookup 33 subtable" asterisk.hwid
Substitution2: "'fwid' Full Widths lookup 30 subtable" uniFF0A
Substitution2: "'ital' Italics lookup 17 subtable" asterisk.ital
Substitution2: "'vrt2' Vertical Rotation & Alternates lookup 5 subtable" asterisk.vert
AlternateSubs2: "'aalt' +BBIEQQQ1 +BDAEOwRMBEIENQRABD0EMARCBDgEMgQ9BEsENQAA +BDIEMARABDgEMAQ9BEIESwAA lookup 1 per glyph data 0" asterisk.hwid uniFF0A asterisk.vert asterisk.ital uniFF0A.ruby uni2051 uni2042
EndChar

StartChar: plus
Encoding: 43 43 11
Width: 1417
GlyphClass: 2
Flags: W
LayerCount: 2
Fore
SplineSet
743 1167 m 1,0,-1
 743 641 l 1,1,-1
 1273 641 l 1,2,-1
 1273 571 l 1,3,-1
 743 571 l 1,4,-1
 743 41 l 1,5,-1
 671 41 l 1,6,-1
 671 571 l 1,7,-1
 143 571 l 1,8,-1
 143 641 l 1,9,-1
 671 641 l 1,10,-1
 671 1167 l 1,11,-1
 743 1167 l 1,0,-1
EndSplineSet
Validated: 1
Substitution2: "'hwid' Half Widths lookup 33 subtable" plus.hwid
Substitution2: "'fwid' Full Widths lookup 30 subtable" uniFF0B
Substitution2: "'ital' Italics lookup 17 subtable" plus.ital
AlternateSubs2: "'nalt' Alternate Annotation Forms lookup 16 subtable" circleplus uni229E.fwid glyph12193
Substitution2: "'vrt2' Vertical Rotation & Alternates lookup 5 subtable" plus.vert
AlternateSubs2: "'aalt' +BBIEQQQ1 +BDAEOwRMBEIENQRABD0EMARCBDgEMgQ9BEsENQAA +BDIEMARABDgEMAQ9BEIESwAA lookup 1 per glyph data 0" plus.hwid uniFF0B plus.vert plus.ital circleplus uni229E.fwid glyph12193 glyph12242 uni271A circleplus.pwid uni229E uni29FA uni29FB
EndChar

StartChar: comma
Encoding: 44 44 12
Width: 451
GlyphClass: 2
Flags: W
LayerCount: 2
Fore
SplineSet
302 192 m 1,0,-1
 302 37 l 1,1,-1
 213 -211 l 1,2,-1
 150 -211 l 1,3,-1
 230 37 l 1,4,-1
 150 37 l 1,5,-1
 150 192 l 1,6,-1
 302 192 l 1,0,-1
EndSplineSet
Validated: 1
Substitution2: "'qwid' Quarter Widths lookup 37 subtable" comma.qwid
Substitution2: "'hwid' Half Widths lookup 33 subtable" comma.hwid
Substitution2: "'fwid' Full Widths lookup 30 subtable" uniFF0C
Substitution2: "'twid' Third Widths lookup 25 subtable" comma.twid
Substitution2: "'ital' Italics lookup 17 subtable" comma.ital
Substitution2: "'vrt2' Vertical Rotation & Alternates lookup 5 subtable" comma.vert
AlternateSubs2: "'aalt' +BBIEQQQ1 +BDAEOwRMBEIENQRABD0EMARCBDgEMgQ9BEsENQAA +BDIEMARABDgEMAQ9BEIESwAA lookup 1 per glyph data 0" quotesinglbase comma.hwid uniFF0C uniFE10 comma.vert comma.ital quotesinglbase.ital comma.qwid comma.twid
EndChar

StartChar: period
Encoding: 46 46 13
Width: 451
GlyphClass: 2
Flags: W
LayerCount: 2
Fore
SplineSet
302 199 m 1,0,-1
 302 37 l 1,1,-1
 150 37 l 1,2,-1
 150 199 l 1,3,-1
 302 199 l 1,0,-1
EndSplineSet
Validated: 1
Substitution2: "'qwid' Quarter Widths lookup 37 subtable" period.qwid
Substitution2: "'hwid' Half Widths lookup 33 subtable" period.hwid
Substitution2: "'fwid' Full Widths lookup 30 subtable" uniFF0E
Substitution2: "'twid' Third Widths lookup 25 subtable" period.twid
Substitution2: "'ital' Italics lookup 17 subtable" period.ital
Substitution2: "'vrt2' Vertical Rotation & Alternates lookup 5 subtable" period.vert
AlternateSubs2: "'aalt' +BBIEQQQ1 +BDAEOwRMBEIENQRABD0EMARCBDgEMgQ9BEsENQAA +BDIEMARABDgEMAQ9BEIESwAA lookup 1 per glyph data 0" period.hwid uniFF0E uniFF0E.vert period.vert period.ital period.qwid period.twid
EndChar

StartChar: slash
Encoding: 47 47 14
Width: 936
GlyphClass: 2
Flags: W
LayerCount: 2
Fore
SplineSet
905 1712 m 1,0,-1
 107 -166 l 1,1,-1
 31 -166 l 1,2,-1
 830 1712 l 1,3,-1
 905 1712 l 1,0,-1
EndSplineSet
Validated: 1
Substitution2: "'qwid' Quarter Widths lookup 37 subtable" slash.qwid
Substitution2: "'hwid' Half Widths lookup 33 subtable" slash.hwid
Substitution2: "'fwid' Full Widths lookup 30 subtable" uniFF0F
Substitution2: "'twid' Third Widths lookup 25 subtable" slash.twid
Substitution2: "'ital' Italics lookup 17 subtable" slash.ital
Substitution2: "'nalt' Alternate Annotation Forms lookup 15 subtable" uni2298
Substitution2: "'dnom' Denominators lookup 13 subtable" fraction
Substitution2: "'numr' Numerators lookup 11 subtable" fraction
Substitution2: "'frac' Diagonal Fractions lookup 9 subtable" fraction
Substitution2: "'vrt2' Vertical Rotation & Alternates lookup 5 subtable" slash.vert
AlternateSubs2: "'aalt' +BBIEQQQ1 +BDAEOwRMBEIENQRABD0EMARCBDgEMgQ9BEsENQAA +BDIEMARABDgEMAQ9BEIESwAA lookup 1 per glyph data 0" fraction slash.hwid uniFF0F uni2571 slash.vert slash.ital fraction.ital slash.qwid slash.twid uni2298 uni2298.pwid
EndChar

StartChar: zero
Encoding: 48 48 15
Width: 1098
GlyphClass: 2
Flags: W
LayerCount: 2
Fore
SplineSet
553 1544 m 0,0,1
 979 1544 979 1544 979 786 c 0,2,3
 979 371 979 371 849 174 c 0,4,5
 740 10 740 10 549 10 c 0,6,7
 329 10 329 10 220 223 c 0,8,9
 119 418 119 418 119 782 c 0,10,11
 119 1194 119 1194 253 1387 c 0,12,13
 362 1544 362 1544 553 1544 c 0,0,1
553 1470 m 0,14,15
 207 1470 207 1470 207 786 c 0,16,17
 207 84 207 84 549 84 c 256,18,19
 891 84 891 84 891 784 c 0,20,21
 891 1166 891 1166 792 1333 c 0,22,23
 709 1470 709 1470 553 1470 c 0,14,15
EndSplineSet
Validated: 1
Substitution2: "'qwid' Quarter Widths lookup 37 subtable" zero.qwid
Substitution2: "'hwid' Half Widths lookup 33 subtable" zero.hwid
Substitution2: "'fwid' Full Widths lookup 30 subtable" uniFF10
Substitution2: "'twid' Third Widths lookup 25 subtable" zero.twid
Substitution2: "'sups' +BBIENQRABEUEPQQ4BDkA +BDgEPQQ0BDUEOgRB lookup 24 subtable" uni2070
Substitution2: "'subs' +BB0EOAQ2BD0EOAQ5 +BDgEPQQ0BDUEOgRB lookup 23 subtable" uni2080
Substitution2: "'zero' Slashed Zero lookup 22 subtable" zero.zero
Substitution2: "'sinf' Scientific Inferiors lookup 21 subtable" uni2080
Substitution2: "'ital' Italics lookup 17 subtable" zero.ital
AlternateSubs2: "'nalt' Alternate Annotation Forms lookup 16 subtable" u1F100 uni24EA glyph8229 glyph10154 glyph10164 uni24FF glyph10766 glyph11039 glyph11309 glyph11578 glyph20901 glyph20911
Substitution2: "'dnom' Denominators lookup 13 subtable" uni2080
Substitution2: "'numr' Numerators lookup 11 subtable" uni2070
Substitution2: "'frac' Diagonal Fractions lookup 9 subtable" uni2070
Substitution2: "'vrt2' Vertical Rotation & Alternates lookup 5 subtable" zero.vert
Substitution2: "+BBUENAQ4BD0EOARHBD0EMARP +BD8EPgQ0BEEEQgQwBD0EPgQyBDoEMAAA lookup 2 subtable" uniFF10
AlternateSubs2: "'aalt' +BBIEQQQ1 +BDAEOwRMBEIENQRABD0EMARCBDgEMgQ9BEsENQAA +BDIEMARABDgEMAQ9BEIESwAA lookup 1 per glyph data 0" zero.zero zero.hwid zero.zero.hwid uni3007 uniFF10 u1F100 uni24EA glyph8229 uniFF10.zero zero.vert uni2070 uni2080 zero.ital zero.ital.zero uni2070.ital uni2080.ital zero.qwid zero.twid glyph9874 glyph9884 glyph9886 glyph10154 glyph10164 glyph10176 glyph10198 glyph10220 glyph10236 uni24FF glyph10506 glyph10766 glyph10767 glyph11039 glyph11040 glyph11309 glyph11310 glyph11578 glyph11579 uniFF10.ruby glyph20591 glyph20651 glyph20751 glyph20901 glyph20911
EndChar

StartChar: one
Encoding: 49 49 16
Width: 1098
GlyphClass: 2
Flags: W
LayerCount: 2
Fore
SplineSet
615 1544 m 1,0,-1
 615 109 l 1,1,-1
 893 109 l 1,2,-1
 893 37 l 1,3,-1
 230 37 l 1,4,-1
 230 109 l 1,5,-1
 531 109 l 1,6,-1
 531 1448 l 1,7,8
 425 1373 425 1373 215 1286 c 1,9,-1
 199 1364 l 1,10,11
 378 1427 378 1427 549 1544 c 1,12,-1
 615 1544 l 1,0,-1
EndSplineSet
Validated: 1
Substitution2: "'qwid' Quarter Widths lookup 37 subtable" one.qwid
Substitution2: "'hwid' Half Widths lookup 33 subtable" one.hwid
Substitution2: "'fwid' Full Widths lookup 30 subtable" uniFF11
Substitution2: "'twid' Third Widths lookup 25 subtable" one.twid
Substitution2: "'sups' +BBIENQRABEUEPQQ4BDkA +BDgEPQQ0BDUEOgRB lookup 24 subtable" uni00B9
Substitution2: "'subs' +BB0EOAQ2BD0EOAQ5 +BDgEPQQ0BDUEOgRB lookup 23 subtable" uni2081
Substitution2: "'sinf' Scientific Inferiors lookup 21 subtable" uni2081
Substitution2: "'ital' Italics lookup 17 subtable" one.ital
AlternateSubs2: "'nalt' Alternate Annotation Forms lookup 16 subtable" uni2460 uni2488 uni2474 uni2776 glyph10155 glyph10165 glyph10768 glyph11041 glyph11311 glyph11580 uni24F5 uni2673 glyph20902 glyph20912
Substitution2: "'dnom' Denominators lookup 13 subtable" uni2081
Substitution2: "'numr' Numerators lookup 11 subtable" uni00B9
Substitution2: "'frac' Diagonal Fractions lookup 9 subtable" uni00B9
Substitution2: "'vrt2' Vertical Rotation & Alternates lookup 5 subtable" one.vert
Substitution2: "+BBUENAQ4BD0EOARHBD0EMARP +BD8EPgQ0BEEEQgQwBD0EPgQyBDoEMAAA lookup 2 subtable" uniFF11
AlternateSubs2: "'aalt' +BBIEQQQ1 +BDAEOwRMBEIENQRABD0EMARCBDgEMgQ9BEsENQAA +BDIEMARABDgEMAQ9BEIESwAA lookup 1 per glyph data 0" uni00B9 one.hwid uniFF11 uni2460 uni2488 uni2474 uni2776 one.vert uni2081 one.ital uni00B9.ital uni2081.ital one.qwid one.twid glyph9875 glyph9887 glyph10155 glyph10165 glyph10237 glyph10507 glyph10768 glyph10769 glyph11041 glyph11042 glyph11311 glyph11312 glyph11580 glyph11581 uniFF11.ruby uni24F5 uni2673 glyph20592 glyph20652 glyph20752 glyph20902 glyph20912
EndChar

StartChar: two
Encoding: 50 50 17
Width: 1098
GlyphClass: 2
Flags: W
LayerCount: 2
Fore
SplineSet
137 1163 m 1,0,1
 186 1363 186 1363 310 1461 c 0,2,3
 416 1544 416 1544 565 1544 c 0,4,5
 744 1544 744 1544 852 1432 c 0,6,7
 950 1330 950 1330 950 1174 c 0,8,9
 950 1042 950 1042 877 933 c 0,10,11
 809 834 809 834 629 670 c 0,12,13
 329 399 329 399 203 111 c 1,14,-1
 950 111 l 1,15,-1
 950 37 l 1,16,-1
 123 37 l 1,17,-1
 123 103 l 1,18,19
 251 431 251 431 580 731 c 0,20,21
 757 892 757 892 814 991 c 0,22,23
 862 1073 862 1073 862 1173 c 0,24,25
 862 1320 862 1320 767 1401 c 0,26,27
 687 1470 687 1470 563 1470 c 0,28,29
 286 1470 286 1470 217 1135 c 1,30,-1
 137 1163 l 1,0,1
EndSplineSet
Validated: 1
Substitution2: "'qwid' Quarter Widths lookup 37 subtable" two.qwid
Substitution2: "'hwid' Half Widths lookup 33 subtable" two.hwid
Substitution2: "'fwid' Full Widths lookup 30 subtable" uniFF12
Substitution2: "'twid' Third Widths lookup 25 subtable" two.twid
Substitution2: "'sups' +BBIENQRABEUEPQQ4BDkA +BDgEPQQ0BDUEOgRB lookup 24 subtable" uni00B2
Substitution2: "'subs' +BB0EOAQ2BD0EOAQ5 +BDgEPQQ0BDUEOgRB lookup 23 subtable" uni2082
Substitution2: "'sinf' Scientific Inferiors lookup 21 subtable" uni2082
Substitution2: "'ital' Italics lookup 17 subtable" two.ital
AlternateSubs2: "'nalt' Alternate Annotation Forms lookup 16 subtable" uni2461 uni2489 uni2475 uni2777 glyph10156 glyph10166 glyph10770 glyph11043 glyph11313 glyph11582 uni24F6 uni2674 glyph20903 glyph20913
Substitution2: "'dnom' Denominators lookup 13 subtable" uni2082
Substitution2: "'numr' Numerators lookup 11 subtable" uni00B2
Substitution2: "'frac' Diagonal Fractions lookup 9 subtable" uni00B2
Substitution2: "'vrt2' Vertical Rotation & Alternates lookup 5 subtable" two.vert
Substitution2: "+BBUENAQ4BD0EOARHBD0EMARP +BD8EPgQ0BEEEQgQwBD0EPgQyBDoEMAAA lookup 2 subtable" uniFF12
AlternateSubs2: "'aalt' +BBIEQQQ1 +BDAEOwRMBEIENQRABD0EMARCBDgEMgQ9BEsENQAA +BDIEMARABDgEMAQ9BEIESwAA lookup 1 per glyph data 0" uni00B2 two.hwid uniFF12 uni2461 uni2489 uni2475 uni2777 two.vert uni2082 two.ital uni00B2.ital uni2082.ital two.qwid two.twid glyph9876 glyph9888 glyph10156 glyph10166 glyph10238 glyph10508 glyph10770 glyph10771 glyph11043 glyph11044 glyph11313 glyph11314 glyph11582 glyph11583 uniFF12.ruby uni24F6 uni2674 glyph20593 glyph20653 glyph20753 glyph20903 glyph20913
EndChar

StartChar: three
Encoding: 51 51 18
Width: 1098
GlyphClass: 2
Flags: W
LayerCount: 2
Fore
SplineSet
140 1272 m 1,0,1
 265 1544 265 1544 543 1544 c 0,2,3
 720 1544 720 1544 830 1433 c 0,4,5
 928 1334 928 1334 928 1188 c 256,6,7
 928 1042 928 1042 843 946 c 0,8,9
 771 865 771 865 648 831 c 1,10,-1
 648 825 l 1,11,12
 811 786 811 786 895 673 c 0,13,14
 967 574 967 574 967 436 c 0,15,16
 967 235 967 235 833 114 c 0,17,18
 719 10 719 10 549 10 c 0,19,20
 249 10 249 10 109 275 c 1,21,-1
 183 320 l 1,22,23
 249 184 249 184 345 130 c 0,24,25
 427 84 427 84 551 84 c 0,26,27
 707 84 707 84 799 191 c 0,28,29
 879 285 879 285 879 430 c 0,30,31
 879 608 879 608 762 702 c 0,32,33
 658 784 658 784 482 784 c 2,34,-1
 367 784 l 1,35,-1
 367 858 l 1,36,-1
 469 858 l 2,37,38
 655 858 655 858 756 960 c 0,39,40
 842 1047 842 1047 842 1186 c 0,41,42
 842 1326 842 1326 744 1405 c 0,43,44
 664 1470 664 1470 543 1470 c 0,45,46
 304 1470 304 1470 213 1231 c 1,47,-1
 140 1272 l 1,0,1
EndSplineSet
Validated: 1
Substitution2: "'qwid' Quarter Widths lookup 37 subtable" three.qwid
Substitution2: "'hwid' Half Widths lookup 33 subtable" three.hwid
Substitution2: "'fwid' Full Widths lookup 30 subtable" uniFF13
Substitution2: "'twid' Third Widths lookup 25 subtable" three.twid
Substitution2: "'sups' +BBIENQRABEUEPQQ4BDkA +BDgEPQQ0BDUEOgRB lookup 24 subtable" uni00B3
Substitution2: "'subs' +BB0EOAQ2BD0EOAQ5 +BDgEPQQ0BDUEOgRB lookup 23 subtable" uni2083
Substitution2: "'sinf' Scientific Inferiors lookup 21 subtable" uni2083
Substitution2: "'ital' Italics lookup 17 subtable" three.ital
AlternateSubs2: "'nalt' Alternate Annotation Forms lookup 16 subtable" uni2462 uni248A uni2476 uni2778 glyph10157 glyph10167 glyph10772 glyph11045 glyph11315 glyph11584 uni24F7 uni2675 glyph20904 glyph20914
Substitution2: "'dnom' Denominators lookup 13 subtable" uni2083
Substitution2: "'numr' Numerators lookup 11 subtable" uni00B3
Substitution2: "'frac' Diagonal Fractions lookup 9 subtable" uni00B3
Substitution2: "'vrt2' Vertical Rotation & Alternates lookup 5 subtable" three.vert
Substitution2: "+BBUENAQ4BD0EOARHBD0EMARP +BD8EPgQ0BEEEQgQwBD0EPgQyBDoEMAAA lookup 2 subtable" uniFF13
AlternateSubs2: "'aalt' +BBIEQQQ1 +BDAEOwRMBEIENQRABD0EMARCBDgEMgQ9BEsENQAA +BDIEMARABDgEMAQ9BEIESwAA lookup 1 per glyph data 0" uni00B3 three.hwid uniFF13 uni2462 uni248A uni2476 uni2778 three.vert uni2083 three.ital uni00B3.ital uni2083.ital three.qwid three.twid glyph9877 glyph9889 glyph10157 glyph10167 glyph10239 glyph10509 glyph10772 glyph10773 glyph11045 glyph11046 glyph11315 glyph11316 glyph11584 glyph11585 uniFF13.ruby uni24F7 uni2675 glyph20594 glyph20654 glyph20754 glyph20904 glyph20914
EndChar

StartChar: four
Encoding: 52 52 19
Width: 1098
GlyphClass: 2
Flags: W
LayerCount: 2
Fore
SplineSet
780 1544 m 1,0,-1
 780 473 l 1,1,-1
 1009 473 l 1,2,-1
 1009 403 l 1,3,-1
 780 403 l 1,4,-1
 780 37 l 1,5,-1
 702 37 l 1,6,-1
 702 403 l 1,7,-1
 79 403 l 1,8,-1
 79 469 l 1,9,-1
 663 1544 l 1,10,-1
 780 1544 l 1,0,-1
702 473 m 1,11,-1
 702 1216 l 2,12,13
 702 1297 702 1297 708 1472 c 1,14,-1
 693 1472 l 1,15,16
 642 1354 642 1354 571 1223 c 2,17,-1
 165 473 l 1,18,-1
 702 473 l 1,11,-1
EndSplineSet
Validated: 1
Substitution2: "'qwid' Quarter Widths lookup 37 subtable" four.qwid
Substitution2: "'hwid' Half Widths lookup 33 subtable" four.hwid
Substitution2: "'fwid' Full Widths lookup 30 subtable" uniFF14
Substitution2: "'twid' Third Widths lookup 25 subtable" four.twid
Substitution2: "'sups' +BBIENQRABEUEPQQ4BDkA +BDgEPQQ0BDUEOgRB lookup 24 subtable" uni2074
Substitution2: "'subs' +BB0EOAQ2BD0EOAQ5 +BDgEPQQ0BDUEOgRB lookup 23 subtable" uni2084
Substitution2: "'sinf' Scientific Inferiors lookup 21 subtable" uni2084
Substitution2: "'ital' Italics lookup 17 subtable" four.ital
AlternateSubs2: "'nalt' Alternate Annotation Forms lookup 16 subtable" uni2463 uni248B uni2477 uni2779 glyph10158 glyph10168 glyph10774 glyph11047 glyph11317 glyph11586 uni24F8 uni2676 glyph20905 glyph20915
Substitution2: "'dnom' Denominators lookup 13 subtable" uni2084
Substitution2: "'numr' Numerators lookup 11 subtable" uni2074
Substitution2: "'frac' Diagonal Fractions lookup 9 subtable" uni2074
Substitution2: "'vrt2' Vertical Rotation & Alternates lookup 5 subtable" four.vert
Substitution2: "+BBUENAQ4BD0EOARHBD0EMARP +BD8EPgQ0BEEEQgQwBD0EPgQyBDoEMAAA lookup 2 subtable" uniFF14
AlternateSubs2: "'aalt' +BBIEQQQ1 +BDAEOwRMBEIENQRABD0EMARCBDgEMgQ9BEsENQAA +BDIEMARABDgEMAQ9BEIESwAA lookup 1 per glyph data 0" four.hwid uniFF14 uni2463 uni248B uni2477 uni2779 four.vert uni2074 uni2084 four.ital uni2074.ital uni2084.ital four.qwid four.twid glyph9878 glyph9890 glyph10158 glyph10168 glyph10240 glyph10510 glyph10774 glyph10775 glyph11047 glyph11048 glyph11317 glyph11318 glyph11586 glyph11587 uniFF14.ruby uni24F8 uni2676 glyph20595 glyph20655 glyph20755 glyph20905 glyph20915
EndChar

StartChar: five
Encoding: 53 53 20
Width: 1098
GlyphClass: 2
Flags: W
LayerCount: 2
Fore
SplineSet
899 1522 m 1,0,-1
 899 1448 l 1,1,-1
 274 1448 l 1,2,-1
 254 1000 l 2,3,4
 252 943 252 943 242 817 c 1,5,6
 292 899 292 899 381 944 c 0,7,8
 460 985 460 985 549 985 c 0,9,10
 736 985 736 985 848 842 c 0,11,12
 948 714 948 714 948 512 c 0,13,14
 948 263 948 263 807 123 c 0,15,16
 692 10 692 10 526 10 c 0,17,18
 249 10 249 10 127 270 c 1,19,-1
 201 313 l 1,20,21
 298 84 298 84 526 84 c 0,22,23
 685 84 685 84 778 211 c 0,24,25
 860 325 860 325 860 504 c 0,26,27
 860 711 860 711 762 819 c 0,28,29
 678 911 678 911 541 911 c 0,30,31
 431 911 431 911 346 844 c 0,32,33
 272 785 272 785 233 686 c 1,34,-1
 166 696 l 1,35,-1
 201 1522 l 1,36,-1
 899 1522 l 1,0,-1
EndSplineSet
Validated: 1
Substitution2: "'qwid' Quarter Widths lookup 37 subtable" five.qwid
Substitution2: "'hwid' Half Widths lookup 33 subtable" five.hwid
Substitution2: "'fwid' Full Widths lookup 30 subtable" uniFF15
Substitution2: "'twid' Third Widths lookup 25 subtable" five.twid
Substitution2: "'sups' +BBIENQRABEUEPQQ4BDkA +BDgEPQQ0BDUEOgRB lookup 24 subtable" uni2075
Substitution2: "'subs' +BB0EOAQ2BD0EOAQ5 +BDgEPQQ0BDUEOgRB lookup 23 subtable" uni2085
Substitution2: "'sinf' Scientific Inferiors lookup 21 subtable" uni2085
Substitution2: "'ital' Italics lookup 17 subtable" five.ital
AlternateSubs2: "'nalt' Alternate Annotation Forms lookup 16 subtable" uni2464 uni248C uni2478 uni277A glyph10159 glyph10169 glyph10776 glyph11049 glyph11319 glyph11588 uni24F9 uni2677 glyph20906 glyph20916
Substitution2: "'dnom' Denominators lookup 13 subtable" uni2085
Substitution2: "'numr' Numerators lookup 11 subtable" uni2075
Substitution2: "'frac' Diagonal Fractions lookup 9 subtable" uni2075
Substitution2: "'vrt2' Vertical Rotation & Alternates lookup 5 subtable" five.vert
Substitution2: "+BBUENAQ4BD0EOARHBD0EMARP +BD8EPgQ0BEEEQgQwBD0EPgQyBDoEMAAA lookup 2 subtable" uniFF15
AlternateSubs2: "'aalt' +BBIEQQQ1 +BDAEOwRMBEIENQRABD0EMARCBDgEMgQ9BEsENQAA +BDIEMARABDgEMAQ9BEIESwAA lookup 1 per glyph data 0" five.hwid uniFF15 uni2464 uni248C uni2478 uni277A five.vert uni2075 uni2085 five.ital uni2075.ital uni2085.ital five.qwid five.twid glyph9879 glyph9891 glyph10159 glyph10169 glyph10241 glyph10511 glyph10776 glyph10777 glyph11049 glyph11050 glyph11319 glyph11320 glyph11588 glyph11589 uniFF15.ruby uni24F9 uni2677 glyph20596 glyph20656 glyph20756 glyph20906 glyph20916
EndChar

StartChar: six
Encoding: 54 54 21
Width: 1098
GlyphClass: 2
Flags: W
LayerCount: 2
Fore
SplineSet
940 1370 m 1,0,-1
 868 1325 l 1,1,2
 784 1470 784 1470 620 1470 c 0,3,4
 235 1470 235 1470 223 723 c 1,5,6
 375 967 375 967 594 967 c 0,7,8
 774 967 774 967 881 827 c 0,9,10
 975 703 975 703 975 510 c 0,11,12
 975 266 975 266 845 126 c 0,13,14
 736 10 736 10 573 10 c 0,15,16
 363 10 363 10 249 201 c 0,17,18
 141 380 141 380 141 694 c 0,19,20
 141 1149 141 1149 288 1365 c 0,21,22
 410 1544 410 1544 624 1544 c 0,23,24
 733 1544 733 1544 823 1488 c 0,25,26
 897 1442 897 1442 940 1370 c 1,0,-1
227 625 m 1,27,28
 232 342 232 342 344 199 c 0,29,30
 434 84 434 84 573 84 c 0,31,32
 727 84 727 84 812 209 c 0,33,34
 889 322 889 322 889 512 c 0,35,36
 889 699 889 699 795 804 c 0,37,38
 715 893 715 893 590 893 c 0,39,40
 381 893 381 893 227 625 c 1,27,28
EndSplineSet
Validated: 1
Substitution2: "'qwid' Quarter Widths lookup 37 subtable" six.qwid
Substitution2: "'hwid' Half Widths lookup 33 subtable" six.hwid
Substitution2: "'fwid' Full Widths lookup 30 subtable" uniFF16
Substitution2: "'twid' Third Widths lookup 25 subtable" six.twid
Substitution2: "'sups' +BBIENQRABEUEPQQ4BDkA +BDgEPQQ0BDUEOgRB lookup 24 subtable" uni2076
Substitution2: "'subs' +BB0EOAQ2BD0EOAQ5 +BDgEPQQ0BDUEOgRB lookup 23 subtable" uni2086
Substitution2: "'sinf' Scientific Inferiors lookup 21 subtable" uni2086
Substitution2: "'ital' Italics lookup 17 subtable" six.ital
AlternateSubs2: "'nalt' Alternate Annotation Forms lookup 16 subtable" uni2465 uni248D uni2479 uni277B glyph10160 glyph10170 glyph10778 glyph11051 glyph11321 glyph11590 uni24FA uni2678 glyph20907 glyph20917
Substitution2: "'dnom' Denominators lookup 13 subtable" uni2086
Substitution2: "'numr' Numerators lookup 11 subtable" uni2076
Substitution2: "'frac' Diagonal Fractions lookup 9 subtable" uni2076
Substitution2: "'vrt2' Vertical Rotation & Alternates lookup 5 subtable" six.vert
Substitution2: "+BBUENAQ4BD0EOARHBD0EMARP +BD8EPgQ0BEEEQgQwBD0EPgQyBDoEMAAA lookup 2 subtable" uniFF16
AlternateSubs2: "'aalt' +BBIEQQQ1 +BDAEOwRMBEIENQRABD0EMARCBDgEMgQ9BEsENQAA +BDIEMARABDgEMAQ9BEIESwAA lookup 1 per glyph data 0" six.hwid uniFF16 uni2465 uni248D uni2479 uni277B six.vert uni2076 uni2086 six.ital uni2076.ital uni2086.ital six.qwid six.twid glyph9880 glyph9892 glyph10160 glyph10170 glyph10242 glyph10512 glyph10778 glyph10779 glyph11051 glyph11052 glyph11321 glyph11322 glyph11590 glyph11591 uniFF16.ruby uni24FA uni2678 glyph20597 glyph20657 glyph20757 glyph20907 glyph20917
EndChar

StartChar: seven
Encoding: 55 55 22
Width: 1098
GlyphClass: 2
Flags: W
LayerCount: 2
Fore
SplineSet
965 1518 m 1,0,-1
 965 1454 l 1,1,2
 748 1100 748 1100 638 748 c 0,3,4
 538 430 538 430 500 37 c 1,5,-1
 408 37 l 1,6,7
 456 480 456 480 581 832 c 0,8,9
 687 1131 687 1131 877 1444 c 1,10,-1
 125 1444 l 1,11,-1
 125 1518 l 1,12,-1
 965 1518 l 1,0,-1
EndSplineSet
Validated: 1
Substitution2: "'qwid' Quarter Widths lookup 37 subtable" seven.qwid
Substitution2: "'hwid' Half Widths lookup 33 subtable" seven.hwid
Substitution2: "'fwid' Full Widths lookup 30 subtable" uniFF17
Substitution2: "'twid' Third Widths lookup 25 subtable" seven.twid
Substitution2: "'sups' +BBIENQRABEUEPQQ4BDkA +BDgEPQQ0BDUEOgRB lookup 24 subtable" uni2077
Substitution2: "'subs' +BB0EOAQ2BD0EOAQ5 +BDgEPQQ0BDUEOgRB lookup 23 subtable" uni2087
Substitution2: "'sinf' Scientific Inferiors lookup 21 subtable" uni2087
Substitution2: "'ital' Italics lookup 17 subtable" seven.ital
AlternateSubs2: "'nalt' Alternate Annotation Forms lookup 16 subtable" uni2466 uni248E uni247A uni277C glyph10161 glyph10171 glyph10780 glyph11053 glyph11323 glyph11592 uni24FB uni2679 glyph20908 glyph20918
Substitution2: "'dnom' Denominators lookup 13 subtable" uni2087
Substitution2: "'numr' Numerators lookup 11 subtable" uni2077
Substitution2: "'frac' Diagonal Fractions lookup 9 subtable" uni2077
Substitution2: "'vrt2' Vertical Rotation & Alternates lookup 5 subtable" seven.vert
Substitution2: "+BBUENAQ4BD0EOARHBD0EMARP +BD8EPgQ0BEEEQgQwBD0EPgQyBDoEMAAA lookup 2 subtable" uniFF17
AlternateSubs2: "'aalt' +BBIEQQQ1 +BDAEOwRMBEIENQRABD0EMARCBDgEMgQ9BEsENQAA +BDIEMARABDgEMAQ9BEIESwAA lookup 1 per glyph data 0" seven.hwid uniFF17 uni2466 uni248E uni247A uni277C seven.vert uni2077 uni2087 seven.ital uni2077.ital uni2087.ital seven.qwid seven.twid glyph9881 glyph9893 glyph10161 glyph10171 glyph10243 glyph10513 glyph10780 glyph10781 glyph11053 glyph11054 glyph11323 glyph11324 glyph11592 glyph11593 uniFF17.ruby uni24FB uni2679 glyph20598 glyph20658 glyph20758 glyph20908 glyph20918
EndChar

StartChar: eight
Encoding: 56 56 23
Width: 1098
GlyphClass: 2
Flags: W
LayerCount: 2
Fore
SplineSet
634 825 m 1,0,1
 846 735 846 735 926 627 c 0,2,3
 991 539 991 539 991 409 c 0,4,5
 991 209 991 209 850 101 c 0,6,7
 732 10 732 10 546 10 c 0,8,9
 336 10 336 10 216 126 c 0,10,11
 106 232 106 232 106 405 c 0,12,13
 106 551 106 551 201 651 c 0,14,15
 285 738 285 738 464 817 c 1,16,17
 283 899 283 899 214 993 c 0,18,19
 155 1073 155 1073 155 1190 c 0,20,21
 155 1355 155 1355 278 1456 c 0,22,23
 386 1544 386 1544 548 1544 c 0,24,25
 737 1544 737 1544 850 1433 c 0,26,27
 948 1338 948 1338 948 1196 c 0,28,29
 948 1059 948 1059 873 975 c 0,30,31
 801 895 801 895 634 825 c 1,0,1
555 860 m 1,32,33
 741 934 741 934 810 1021 c 0,34,35
 864 1091 864 1091 864 1198 c 0,36,37
 864 1330 864 1330 766 1406 c 0,38,39
 681 1472 681 1472 548 1472 c 0,40,41
 399 1472 399 1472 313 1384 c 0,42,43
 239 1308 239 1308 239 1190 c 0,44,45
 239 1077 239 1077 308 1005 c 0,46,47
 374 936 374 936 530 870 c 2,48,-1
 555 860 l 1,32,33
546 782 m 1,49,50
 339 694 339 694 259 599 c 0,51,52
 192 519 192 519 192 406 c 0,53,54
 192 245 192 245 300 159 c 0,55,56
 393 84 393 84 546 84 c 0,57,58
 729 84 729 84 824 182 c 0,59,60
 905 267 905 267 905 410 c 0,61,62
 905 537 905 537 824 620 c 0,63,64
 750 695 750 695 575 770 c 2,65,-1
 546 782 l 1,49,50
EndSplineSet
Validated: 1
Substitution2: "'qwid' Quarter Widths lookup 37 subtable" eight.qwid
Substitution2: "'hwid' Half Widths lookup 33 subtable" eight.hwid
Substitution2: "'fwid' Full Widths lookup 30 subtable" uniFF18
Substitution2: "'twid' Third Widths lookup 25 subtable" eight.twid
Substitution2: "'sups' +BBIENQRABEUEPQQ4BDkA +BDgEPQQ0BDUEOgRB lookup 24 subtable" uni2078
Substitution2: "'subs' +BB0EOAQ2BD0EOAQ5 +BDgEPQQ0BDUEOgRB lookup 23 subtable" uni2088
Substitution2: "'sinf' Scientific Inferiors lookup 21 subtable" uni2088
Substitution2: "'ital' Italics lookup 17 subtable" eight.ital
AlternateSubs2: "'nalt' Alternate Annotation Forms lookup 16 subtable" uni2467 uni248F uni247B uni277D glyph10162 glyph10172 glyph10782 glyph11055 glyph11325 glyph11594 uni24FC glyph20909 glyph20919
Substitution2: "'dnom' Denominators lookup 13 subtable" uni2088
Substitution2: "'numr' Numerators lookup 11 subtable" uni2078
Substitution2: "'frac' Diagonal Fractions lookup 9 subtable" uni2078
Substitution2: "'vrt2' Vertical Rotation & Alternates lookup 5 subtable" eight.vert
Substitution2: "+BBUENAQ4BD0EOARHBD0EMARP +BD8EPgQ0BEEEQgQwBD0EPgQyBDoEMAAA lookup 2 subtable" uniFF18
AlternateSubs2: "'aalt' +BBIEQQQ1 +BDAEOwRMBEIENQRABD0EMARCBDgEMgQ9BEsENQAA +BDIEMARABDgEMAQ9BEIESwAA lookup 1 per glyph data 0" eight.hwid uniFF18 uni2467 uni248F uni247B uni277D eight.vert uni2078 uni2088 eight.ital uni2078.ital uni2088.ital eight.qwid eight.twid glyph9882 glyph9894 glyph10162 glyph10172 glyph10244 glyph10514 glyph10782 glyph10783 glyph11055 glyph11056 glyph11325 glyph11326 glyph11594 glyph11595 uniFF18.ruby uni24FC glyph20599 glyph20659 glyph20759 glyph20909 glyph20919
EndChar

StartChar: nine
Encoding: 57 57 24
Width: 1098
GlyphClass: 2
Flags: W
LayerCount: 2
Fore
SplineSet
238 223 m 1,0,1
 322 84 322 84 481 84 c 0,2,3
 675 84 675 84 771 273 c 0,4,5
 863 455 863 455 873 825 c 1,6,7
 737 588 737 588 514 588 c 0,8,9
 331 588 331 588 219 730 c 0,10,11
 121 856 121 856 121 1047 c 0,12,13
 121 1283 121 1283 249 1424 c 0,14,15
 359 1544 359 1544 521 1544 c 0,16,17
 737 1544 737 1544 850 1354 c 0,18,19
 955 1178 955 1178 955 860 c 0,20,21
 955 10 955 10 482 10 c 0,22,23
 278 10 278 10 168 174 c 1,24,-1
 238 223 l 1,0,1
869 926 m 1,25,26
 864 1203 864 1203 761 1346 c 0,27,28
 671 1470 671 1470 522 1470 c 0,29,30
 370 1470 370 1470 283 1341 c 0,31,32
 207 1227 207 1227 207 1044 c 0,33,34
 207 858 207 858 305 752 c 0,35,36
 388 662 388 662 514 662 c 0,37,38
 729 662 729 662 869 926 c 1,25,26
EndSplineSet
Validated: 1
Substitution2: "'qwid' Quarter Widths lookup 37 subtable" nine.qwid
Substitution2: "'hwid' Half Widths lookup 33 subtable" nine.hwid
Substitution2: "'fwid' Full Widths lookup 30 subtable" uniFF19
Substitution2: "'twid' Third Widths lookup 25 subtable" nine.twid
Substitution2: "'sups' +BBIENQRABEUEPQQ4BDkA +BDgEPQQ0BDUEOgRB lookup 24 subtable" uni2079
Substitution2: "'subs' +BB0EOAQ2BD0EOAQ5 +BDgEPQQ0BDUEOgRB lookup 23 subtable" uni2089
Substitution2: "'sinf' Scientific Inferiors lookup 21 subtable" uni2089
Substitution2: "'ital' Italics lookup 17 subtable" nine.ital
AlternateSubs2: "'nalt' Alternate Annotation Forms lookup 16 subtable" uni2468 uni2490 uni247C uni277E glyph10163 glyph10173 glyph10784 glyph11057 glyph11327 glyph11596 uni24FD glyph20910 glyph20920
Substitution2: "'dnom' Denominators lookup 13 subtable" uni2089
Substitution2: "'numr' Numerators lookup 11 subtable" uni2079
Substitution2: "'frac' Diagonal Fractions lookup 9 subtable" uni2079
Substitution2: "'vrt2' Vertical Rotation & Alternates lookup 5 subtable" nine.vert
Substitution2: "+BBUENAQ4BD0EOARHBD0EMARP +BD8EPgQ0BEEEQgQwBD0EPgQyBDoEMAAA lookup 2 subtable" uniFF19
AlternateSubs2: "'aalt' +BBIEQQQ1 +BDAEOwRMBEIENQRABD0EMARCBDgEMgQ9BEsENQAA +BDIEMARABDgEMAQ9BEIESwAA lookup 1 per glyph data 0" nine.hwid uniFF19 uni2468 uni2490 uni247C uni277E nine.vert uni2079 uni2089 nine.ital uni2079.ital uni2089.ital nine.qwid nine.twid glyph9883 glyph9895 glyph10163 glyph10173 glyph10245 glyph10515 glyph10784 glyph10785 glyph11057 glyph11058 glyph11327 glyph11328 glyph11596 glyph11597 uniFF19.ruby uni24FD glyph20600 glyph20660 glyph20760 glyph20910 glyph20920
EndChar

StartChar: colon
Encoding: 58 58 25
Width: 500
GlyphClass: 2
Flags: W
LayerCount: 2
Fore
SplineSet
326 1063 m 1,0,-1
 326 901 l 1,1,-1
 174 901 l 1,2,-1
 174 1063 l 1,3,-1
 326 1063 l 1,0,-1
326 199 m 1,4,-1
 326 37 l 1,5,-1
 174 37 l 1,6,-1
 174 199 l 1,7,-1
 326 199 l 1,4,-1
EndSplineSet
Validated: 1
Substitution2: "'qwid' Quarter Widths lookup 37 subtable" colon.qwid
Substitution2: "'hwid' Half Widths lookup 33 subtable" colon.hwid
Substitution2: "'fwid' Full Widths lookup 30 subtable" uniFF1A
Substitution2: "'twid' Third Widths lookup 25 subtable" colon.twid
Substitution2: "'ital' Italics lookup 17 subtable" colon.ital
Substitution2: "'vrt2' Vertical Rotation & Alternates lookup 5 subtable" colon.vert
AlternateSubs2: "'aalt' +BBIEQQQ1 +BDAEOwRMBEIENQRABD0EMARCBDgEMgQ9BEsENQAA +BDIEMARABDgEMAQ9BEIESwAA lookup 1 per glyph data 0" colon.hwid uniFF1A colon.vert colon.ital colon.qwid colon.twid uniFF1A.vert
EndChar

StartChar: semicolon
Encoding: 59 59 26
Width: 500
GlyphClass: 2
Flags: W
LayerCount: 2
Fore
SplineSet
326 192 m 1,0,-1
 326 37 l 1,1,-1
 237 -211 l 1,2,-1
 174 -211 l 1,3,-1
 254 37 l 1,4,-1
 174 37 l 1,5,-1
 174 192 l 1,6,-1
 326 192 l 1,0,-1
326 1063 m 1,7,-1
 326 901 l 1,8,-1
 174 901 l 1,9,-1
 174 1063 l 1,10,-1
 326 1063 l 1,7,-1
EndSplineSet
Validated: 1
Substitution2: "'qwid' Quarter Widths lookup 37 subtable" semicolon.qwid
Substitution2: "'hwid' Half Widths lookup 33 subtable" semicolon.hwid
Substitution2: "'fwid' Full Widths lookup 30 subtable" uniFF1B
Substitution2: "'twid' Third Widths lookup 25 subtable" semicolon.twid
Substitution2: "'ital' Italics lookup 17 subtable" semicolon.ital
Substitution2: "'vrt2' Vertical Rotation & Alternates lookup 5 subtable" semicolon.vert
AlternateSubs2: "'aalt' +BBIEQQQ1 +BDAEOwRMBEIENQRABD0EMARCBDgEMgQ9BEsENQAA +BDIEMARABDgEMAQ9BEIESwAA lookup 1 per glyph data 0" semicolon.hwid uniFF1B semicolon.vert semicolon.ital semicolon.qwid semicolon.twid
EndChar

StartChar: less
Encoding: 60 60 27
Width: 1417
GlyphClass: 2
Flags: W
LayerCount: 2
Fore
SplineSet
1273 1159 m 1,0,-1
 1273 1081 l 1,1,-1
 211 606 l 1,2,-1
 1273 131 l 1,3,-1
 1273 53 l 1,4,-1
 143 565 l 1,5,-1
 143 647 l 1,6,-1
 1273 1159 l 1,0,-1
EndSplineSet
Validated: 1
Substitution2: "'hwid' Half Widths lookup 33 subtable" less.hwid
Substitution2: "'fwid' Full Widths lookup 30 subtable" uniFF1C
Substitution2: "'ital' Italics lookup 17 subtable" less.ital
Substitution2: "'vrt2' Vertical Rotation & Alternates lookup 5 subtable" less.vert
AlternateSubs2: "'aalt' +BBIEQQQ1 +BDAEOwRMBEIENQRABD0EMARCBDgEMgQ9BEsENQAA +BDIEMARABDgEMAQ9BEIESwAA lookup 1 per glyph data 0" guillemotleft guilsinglleft less.hwid uni3008.hwid guillemotleft.hwid uni3008 uni300A uniFF1C uni2266 uni226A uniFE3F uniFE3D less.vert less.ital guillemotleft.ital guilsinglleft.ital uni2272 glyph12263 glyph12265 glyph12267 glyph12269 uni2266.pwid uni226A.pwid uni2272.pwid
EndChar

StartChar: equal
Encoding: 61 61 28
Width: 1417
GlyphClass: 2
Flags: W
LayerCount: 2
Fore
SplineSet
1273 478 m 1,0,-1
 1273 408 l 1,1,-1
 143 408 l 1,2,-1
 143 478 l 1,3,-1
 1273 478 l 1,0,-1
1273 805 m 1,4,-1
 1273 735 l 1,5,-1
 143 735 l 1,6,-1
 143 805 l 1,7,-1
 1273 805 l 1,4,-1
EndSplineSet
Validated: 1
Substitution2: "'qwid' Quarter Widths lookup 37 subtable" equal.qwid
Substitution2: "'hwid' Half Widths lookup 33 subtable" equal.hwid
Substitution2: "'fwid' Full Widths lookup 30 subtable" uniFF1D
Substitution2: "'twid' Third Widths lookup 25 subtable" equal.twid
Substitution2: "'ital' Italics lookup 17 subtable" equal.ital
Substitution2: "'vrt2' Vertical Rotation & Alternates lookup 5 subtable" equal.vert
AlternateSubs2: "'aalt' +BBIEQQQ1 +BDAEOwRMBEIENQRABD0EMARCBDgEMgQ9BEsENQAA +BDIEMARABDgEMAQ9BEIESwAA lookup 1 per glyph data 0" equal.hwid uniFF1D uniFF1D.vert equal.vert equal.ital equal.qwid equal.twid uniFF1D.hwid
EndChar

StartChar: greater
Encoding: 62 62 29
Width: 1417
GlyphClass: 2
Flags: W
LayerCount: 2
Fore
SplineSet
1273 647 m 1,0,-1
 1273 565 l 1,1,-1
 143 53 l 1,2,-1
 143 131 l 1,3,-1
 1206 606 l 1,4,-1
 143 1081 l 1,5,-1
 143 1159 l 1,6,-1
 1273 647 l 1,0,-1
EndSplineSet
Validated: 1
Substitution2: "'hwid' Half Widths lookup 33 subtable" greater.hwid
Substitution2: "'fwid' Full Widths lookup 30 subtable" uniFF1E
Substitution2: "'ital' Italics lookup 17 subtable" greater.ital
Substitution2: "'vrt2' Vertical Rotation & Alternates lookup 5 subtable" greater.vert
AlternateSubs2: "'aalt' +BBIEQQQ1 +BDAEOwRMBEIENQRABD0EMARCBDgEMgQ9BEsENQAA +BDIEMARABDgEMAQ9BEIESwAA lookup 1 per glyph data 0" guilsinglright guillemotright greater.hwid uni3009.hwid guillemotright.hwid uni3009 uni300B uniFF1E uni2267 uni226B uniFE40 uniFE3E greater.vert greater.ital guilsinglright.ital guillemotright.ital uni2273 glyph12264 glyph12266 glyph12268 glyph12270 uni2267.pwid uni226B.pwid uni2273.pwid
EndChar

StartChar: question
Encoding: 63 63 30
Width: 975
GlyphClass: 2
Flags: W
LayerCount: 2
Fore
SplineSet
86 1210 m 1,0,1
 128 1398 128 1398 250 1492 c 0,2,3
 352 1571 352 1571 495 1571 c 0,4,5
 671 1571 671 1571 775 1463 c 0,6,7
 868 1367 868 1367 868 1219 c 0,8,9
 868 1112 868 1112 813 1023 c 0,10,11
 763 944 763 944 643 834 c 0,12,13
 552 750 552 750 525 671 c 0,14,15
 501 601 501 601 500 457 c 1,16,-1
 434 457 l 1,17,-1
 434 512 l 2,18,19
 434 651 434 651 475 737 c 0,20,21
 510 809 510 809 594 889 c 0,22,23
 712 1002 712 1002 751 1079 c 0,24,25
 782 1141 782 1141 782 1218 c 0,26,27
 782 1352 782 1352 695 1429 c 0,28,29
 618 1497 618 1497 498 1497 c 0,30,31
 226 1497 226 1497 166 1188 c 1,32,-1
 86 1210 l 1,0,1
543 199 m 1,33,-1
 543 37 l 1,34,-1
 391 37 l 1,35,-1
 391 199 l 1,36,-1
 543 199 l 1,33,-1
EndSplineSet
Validated: 1
Substitution2: "'hwid' Half Widths lookup 33 subtable" question.hwid
Substitution2: "'fwid' Full Widths lookup 30 subtable" uniFF1F
Substitution2: "'ital' Italics lookup 17 subtable" question.ital
Substitution2: "'vrt2' Vertical Rotation & Alternates lookup 5 subtable" question.vert
AlternateSubs2: "'aalt' +BBIEQQQ1 +BDAEOwRMBEIENQRABD0EMARCBDgEMgQ9BEsENQAA +BDIEMARABDgEMAQ9BEIESwAA lookup 1 per glyph data 0" question.hwid uniFF1F question.vert question.ital uni2047
EndChar

StartChar: at
Encoding: 64 64 31
Width: 1733
GlyphClass: 2
Flags: W
LayerCount: 2
Fore
SplineSet
1267 1157 m 1,0,-1
 1077 633 l 2,1,2
 1060 590 1060 590 1060 534 c 0,3,4
 1060 499 1060 499 1090 476 c 0,5,6
 1117 456 1117 456 1156 456 c 0,7,8
 1321 456 1321 456 1448 611 c 0,9,10
 1563 751 1563 751 1563 934 c 0,11,12
 1563 1208 1563 1208 1364 1369 c 0,13,14
 1188 1510 1188 1510 916 1510 c 0,15,16
 577 1510 577 1510 361 1272 c 0,17,18
 174 1064 174 1064 174 766 c 0,19,20
 174 427 174 427 393 237 c 0,21,22
 582 72 582 72 884 72 c 0,23,24
 1328 72 1328 72 1523 414 c 1,25,-1
 1572 377 l 1,26,27
 1464 190 1464 190 1272 95 c 0,28,29
 1100 10 1100 10 882 10 c 0,30,31
 507 10 507 10 290 253 c 0,32,33
 106 459 106 459 106 766 c 0,34,35
 106 987 106 987 217 1175 c 0,36,37
 324 1357 324 1357 507 1462 c 0,38,39
 695 1571 695 1571 915 1571 c 0,40,41
 1247 1571 1247 1571 1450 1367 c 0,42,43
 1626 1190 1626 1190 1626 934 c 0,44,45
 1626 699 1626 699 1459 533 c 0,46,47
 1320 395 1320 395 1151 395 c 0,48,49
 989 395 989 395 989 545 c 1,50,51
 891 395 891 395 735 395 c 0,52,53
 617 395 617 395 552 468 c 0,54,55
 491 536 491 536 491 655 c 0,56,57
 491 876 491 876 654 1049 c 0,58,59
 793 1196 793 1196 950 1196 c 0,60,61
 1108 1196 1108 1196 1140 1032 c 1,62,-1
 1183 1157 l 1,63,-1
 1267 1157 l 1,0,-1
1110 950 m 1,64,65
 1088 1133 1088 1133 948 1133 c 0,66,67
 804 1133 804 1133 682 967 c 0,68,69
 575 821 575 821 575 653 c 0,70,71
 575 557 575 557 619 505 c 0,72,73
 660 456 660 456 735 456 c 0,74,75
 831 456 831 456 908 526 c 0,76,77
 980 591 980 591 1021 707 c 2,78,-1
 1110 950 l 1,64,65
EndSplineSet
Validated: 1
Substitution2: "'hwid' Half Widths lookup 33 subtable" at.hwid
Substitution2: "'fwid' Full Widths lookup 30 subtable" uniFF20
Substitution2: "'ital' Italics lookup 17 subtable" at.ital
Substitution2: "'vrt2' Vertical Rotation & Alternates lookup 5 subtable" at.vert
AlternateSubs2: "'aalt' +BBIEQQQ1 +BDAEOwRMBEIENQRABD0EMARCBDgEMgQ9BEsENQAA +BDIEMARABDgEMAQ9BEIESwAA lookup 1 per glyph data 0" at.hwid uniFF20 at.vert at.ital
EndChar

StartChar: A
Encoding: 65 65 32
Width: 1251
GlyphClass: 2
Flags: W
LayerCount: 2
Fore
SplineSet
682 1544 m 1,0,-1
 1196 37 l 1,1,-1
 1104 37 l 1,2,-1
 929 559 l 1,3,-1
 321 559 l 1,4,-1
 145 37 l 1,5,-1
 55 37 l 1,6,-1
 571 1544 l 1,7,-1
 682 1544 l 1,0,-1
905 631 m 1,8,-1
 762 1061 l 2,9,10
 703 1233 703 1233 633 1472 c 1,11,-1
 618 1472 l 1,12,13
 566 1287 566 1287 489 1063 c 2,14,-1
 344 631 l 1,15,-1
 905 631 l 1,8,-1
EndSplineSet
Validated: 1
Substitution2: "'hwid' Half Widths lookup 33 subtable" A.hwid
Substitution2: "'fwid' Full Widths lookup 30 subtable" uniFF21
Substitution2: "'ital' Italics lookup 17 subtable" A.ital
AlternateSubs2: "'nalt' Alternate Annotation Forms lookup 16 subtable" u1F110 uni24B6 u1F150 u1F130 glyph11176 glyph11446 u1F170 glyph20499
Substitution2: "'vrt2' Vertical Rotation & Alternates lookup 5 subtable" A.vert
AlternateSubs2: "'aalt' +BBIEQQQ1 +BDAEOwRMBEIENQRABD0EMARCBDgEMgQ9BEsENQAA +BDIEMARABDgEMAQ9BEIESwAA lookup 1 per glyph data 0" A.hwid uniFF21 A.vert A.ital u1F110 uni24B6 u1F150 u1F130 glyph11176 glyph11446 u1F170 glyph20499
EndChar

StartChar: B
Encoding: 66 66 33
Width: 1323
GlyphClass: 2
Flags: W
LayerCount: 2
Fore
SplineSet
213 1544 m 1,0,-1
 670 1544 l 2,1,2
 942 1544 942 1544 1059 1439 c 0,3,4
 1157 1351 1157 1351 1157 1181 c 0,5,6
 1157 1032 1157 1032 1050 940 c 0,7,8
 957 861 957 861 799 839 c 1,9,-1
 799 833 l 1,10,11
 1008 809 1008 809 1114 697 c 0,12,13
 1204 602 1204 602 1204 455 c 0,14,15
 1204 242 1204 242 1051 131 c 0,16,17
 919 37 919 37 698 37 c 2,18,-1
 213 37 l 1,19,-1
 213 1544 l 1,0,-1
297 1470 m 1,20,-1
 297 870 l 1,21,-1
 616 870 l 2,22,23
 849 870 849 870 969 966 c 0,24,25
 1071 1047 1071 1047 1071 1181 c 0,26,27
 1071 1342 1071 1342 969 1408 c 0,28,29
 872 1470 872 1470 659 1470 c 2,30,-1
 297 1470 l 1,20,-1
297 798 m 1,31,-1
 297 111 l 1,32,-1
 688 111 l 2,33,34
 1116 111 1116 111 1116 450 c 0,35,36
 1116 620 1116 620 974 713 c 0,37,38
 845 798 845 798 623 798 c 2,39,-1
 297 798 l 1,31,-1
EndSplineSet
Validated: 1
Substitution2: "'hwid' Half Widths lookup 33 subtable" B.hwid
Substitution2: "'fwid' Full Widths lookup 30 subtable" uniFF22
Substitution2: "'ital' Italics lookup 17 subtable" B.ital
AlternateSubs2: "'nalt' Alternate Annotation Forms lookup 16 subtable" u1F111 uni24B7 u1F151 u1F131 glyph11177 glyph11447 u1F171 glyph20500
Substitution2: "'vrt2' Vertical Rotation & Alternates lookup 5 subtable" B.vert
AlternateSubs2: "'aalt' +BBIEQQQ1 +BDAEOwRMBEIENQRABD0EMARCBDgEMgQ9BEsENQAA +BDIEMARABDgEMAQ9BEIESwAA lookup 1 per glyph data 0" B.hwid uniFF22 B.vert B.ital u1F111 uni24B7 u1F151 u1F131 glyph11177 glyph11447 u1F171 uni0299 glyph20500
EndChar

StartChar: C
Encoding: 67 67 34
Width: 1325
GlyphClass: 2
Flags: W
LayerCount: 2
Fore
SplineSet
1235 1171 m 1,0,-1
 1151 1141 l 1,1,2
 1053 1495 1053 1495 721 1495 c 0,3,4
 481 1495 481 1495 339 1287 c 0,5,6
 209 1097 209 1097 209 793 c 0,7,8
 209 444 209 444 376 248 c 0,9,10
 514 86 514 86 721 86 c 0,11,12
 1068 86 1068 86 1163 451 c 1,13,-1
 1247 412 l 1,14,15
 1113 10 1113 10 721 10 c 0,16,17
 445 10 445 10 275 243 c 0,18,19
 119 456 119 456 119 791 c 0,20,21
 119 1173 119 1173 320 1392 c 0,22,23
 484 1571 484 1571 721 1571 c 0,24,25
 920 1571 920 1571 1058 1452 c 0,26,27
 1177 1349 1177 1349 1235 1171 c 1,0,-1
EndSplineSet
Validated: 1
Substitution2: "'hwid' Half Widths lookup 33 subtable" C.hwid
Substitution2: "'fwid' Full Widths lookup 30 subtable" uniFF23
Substitution2: "'ital' Italics lookup 17 subtable" C.ital
AlternateSubs2: "'nalt' Alternate Annotation Forms lookup 16 subtable" copyright copyright.fwid copyright.ital u1F112 uni24B8 u1F152 u1F132 glyph11178 glyph11448 u1F172 glyph12104 glyph12105 glyph20501
Substitution2: "'vrt2' Vertical Rotation & Alternates lookup 5 subtable" C.vert
AlternateSubs2: "'aalt' +BBIEQQQ1 +BDAEOwRMBEIENQRABD0EMARCBDgEMgQ9BEsENQAA +BDIEMARABDgEMAQ9BEIESwAA lookup 1 per glyph data 0" copyright C.hwid uniFF23 copyright.fwid C.vert C.ital copyright.ital u1F112 uni24B8 u1F152 u1F132 glyph11178 glyph11448 u1F172 glyph12104 glyph12105 glyph20501
EndChar

StartChar: D
Encoding: 68 68 35
Width: 1466
GlyphClass: 2
Flags: W
LayerCount: 2
Fore
SplineSet
213 1544 m 1,0,-1
 635 1544 l 2,1,2
 994 1544 994 1544 1179 1334 c 0,3,4
 1348 1143 1348 1143 1348 797 c 0,5,6
 1348 402 1348 402 1116 202 c 0,7,8
 925 37 925 37 610 37 c 2,9,-1
 213 37 l 1,10,-1
 213 1544 l 1,0,-1
297 1470 m 1,11,-1
 297 111 l 1,12,-1
 606 111 l 2,13,14
 932 111 932 111 1101 298 c 0,15,16
 1260 473 1260 473 1260 795 c 0,17,18
 1260 1470 1260 1470 631 1470 c 2,19,-1
 297 1470 l 1,11,-1
EndSplineSet
Validated: 1
Substitution2: "'hwid' Half Widths lookup 33 subtable" D.hwid
Substitution2: "'fwid' Full Widths lookup 30 subtable" uniFF24
Substitution2: "'ital' Italics lookup 17 subtable" D.ital
AlternateSubs2: "'nalt' Alternate Annotation Forms lookup 16 subtable" u1F113 uni24B9 u1F153 u1F133 glyph11179 glyph11449 u1F173 glyph20502
Substitution2: "'vrt2' Vertical Rotation & Alternates lookup 5 subtable" D.vert
AlternateSubs2: "'aalt' +BBIEQQQ1 +BDAEOwRMBEIENQRABD0EMARCBDgEMgQ9BEsENQAA +BDIEMARABDgEMAQ9BEIESwAA lookup 1 per glyph data 0" D.hwid uniFF24 D.vert D.ital u1F113 uni24B9 u1F153 u1F133 glyph11179 glyph11449 u1F173 glyph20502
EndChar

StartChar: E
Encoding: 69 69 36
Width: 1196
GlyphClass: 2
Flags: W
LayerCount: 2
Fore
SplineSet
1110 1544 m 1,0,-1
 1110 1470 l 1,1,-1
 297 1470 l 1,2,-1
 297 877 l 1,3,-1
 911 877 l 1,4,-1
 911 803 l 1,5,-1
 297 803 l 1,6,-1
 297 111 l 1,7,-1
 1124 111 l 1,8,-1
 1124 37 l 1,9,-1
 213 37 l 1,10,-1
 213 1544 l 1,11,-1
 1110 1544 l 1,0,-1
EndSplineSet
Validated: 1
Substitution2: "'hwid' Half Widths lookup 33 subtable" E.hwid
Substitution2: "'fwid' Full Widths lookup 30 subtable" uniFF25
Substitution2: "'ital' Italics lookup 17 subtable" E.ital
AlternateSubs2: "'nalt' Alternate Annotation Forms lookup 16 subtable" u1F114 uni24BA u1F154 u1F134 glyph11180 glyph11450 u1F174 glyph20503
Substitution2: "'vrt2' Vertical Rotation & Alternates lookup 5 subtable" E.vert
AlternateSubs2: "'aalt' +BBIEQQQ1 +BDAEOwRMBEIENQRABD0EMARCBDgEMgQ9BEsENQAA +BDIEMARABDgEMAQ9BEIESwAA lookup 1 per glyph data 0" E.hwid uniFF25 E.vert E.ital u1F114 uni24BA u1F154 u1F134 glyph11180 glyph11450 u1F174 glyph20503
EndChar

StartChar: F
Encoding: 70 70 37
Width: 1176
GlyphClass: 2
Flags: W
LayerCount: 2
Fore
SplineSet
1110 1544 m 1,0,-1
 1110 1470 l 1,1,-1
 295 1470 l 1,2,-1
 295 874 l 1,3,-1
 909 874 l 1,4,-1
 909 800 l 1,5,-1
 295 800 l 1,6,-1
 295 37 l 1,7,-1
 213 37 l 1,8,-1
 213 1544 l 1,9,-1
 1110 1544 l 1,0,-1
EndSplineSet
Validated: 1
Substitution2: "'hwid' Half Widths lookup 33 subtable" F.hwid
Substitution2: "'fwid' Full Widths lookup 30 subtable" uniFF26
Substitution2: "'ital' Italics lookup 17 subtable" F.ital
AlternateSubs2: "'nalt' Alternate Annotation Forms lookup 16 subtable" u1F115 uni24BB u1F155 u1F135 glyph11181 glyph11451 u1F175 glyph20504
Substitution2: "'vrt2' Vertical Rotation & Alternates lookup 5 subtable" F.vert
AlternateSubs2: "'aalt' +BBIEQQQ1 +BDAEOwRMBEIENQRABD0EMARCBDgEMgQ9BEsENQAA +BDIEMARABDgEMAQ9BEIESwAA lookup 1 per glyph data 0" F.hwid uniFF26 F.vert F.ital u1F115 uni24BB u1F155 u1F135 glyph11181 glyph11451 u1F175 glyph20504
EndChar

StartChar: G
Encoding: 71 71 38
Width: 1419
GlyphClass: 2
Flags: W
LayerCount: 2
Fore
SplineSet
1231 1184 m 1,0,-1
 1147 1153 l 1,1,2
 1096 1330 1096 1330 974 1418 c 0,3,4
 869 1495 869 1495 721 1495 c 0,5,6
 481 1495 481 1495 339 1287 c 0,7,8
 209 1097 209 1097 209 793 c 0,9,10
 209 442 209 442 372 249 c 0,11,12
 509 86 509 86 721 86 c 0,13,14
 968 86 968 86 1082 288 c 0,15,16
 1167 440 1167 440 1167 682 c 1,17,-1
 708 682 l 1,18,-1
 708 756 l 1,19,-1
 1245 756 l 1,20,-1
 1245 37 l 1,21,-1
 1179 37 l 1,22,-1
 1169 320 l 1,23,24
 1104 159 1104 159 975 79 c 0,25,26
 864 10 864 10 721 10 c 0,27,28
 441 10 441 10 272 243 c 0,29,30
 119 454 119 454 119 791 c 0,31,32
 119 1173 119 1173 320 1392 c 0,33,34
 484 1571 484 1571 721 1571 c 0,35,36
 918 1571 918 1571 1056 1453 c 0,37,38
 1174 1353 1174 1353 1231 1184 c 1,0,-1
EndSplineSet
Validated: 1
Substitution2: "'hwid' Half Widths lookup 33 subtable" G.hwid
Substitution2: "'fwid' Full Widths lookup 30 subtable" uniFF27
Substitution2: "'ital' Italics lookup 17 subtable" G.ital
AlternateSubs2: "'nalt' Alternate Annotation Forms lookup 16 subtable" u1F116 uni24BC u1F156 u1F136 glyph11182 glyph11452 u1F176
Substitution2: "'vrt2' Vertical Rotation & Alternates lookup 5 subtable" G.vert
AlternateSubs2: "'aalt' +BBIEQQQ1 +BDAEOwRMBEIENQRABD0EMARCBDgEMgQ9BEsENQAA +BDIEMARABDgEMAQ9BEIESwAA lookup 1 per glyph data 0" G.hwid uniFF27 G.vert G.ital u1F116 uni24BC u1F156 u1F136 glyph11182 glyph11452 u1F176 uni0262
EndChar

StartChar: H
Encoding: 72 72 39
Width: 1468
GlyphClass: 2
Flags: W
LayerCount: 2
Fore
SplineSet
1255 1544 m 1,0,-1
 1255 37 l 1,1,-1
 1171 37 l 1,2,-1
 1171 796 l 1,3,-1
 297 796 l 1,4,-1
 297 37 l 1,5,-1
 213 37 l 1,6,-1
 213 1544 l 1,7,-1
 297 1544 l 1,8,-1
 297 870 l 1,9,-1
 1171 870 l 1,10,-1
 1171 1544 l 1,11,-1
 1255 1544 l 1,0,-1
EndSplineSet
Validated: 1
Substitution2: "'hwid' Half Widths lookup 33 subtable" H.hwid
Substitution2: "'fwid' Full Widths lookup 30 subtable" uniFF28
Substitution2: "'ital' Italics lookup 17 subtable" H.ital
AlternateSubs2: "'nalt' Alternate Annotation Forms lookup 16 subtable" u1F117 uni24BD u1F157 u1F137 glyph11183 glyph11453 u1F177 glyph20506
Substitution2: "'vrt2' Vertical Rotation & Alternates lookup 5 subtable" H.vert
AlternateSubs2: "'aalt' +BBIEQQQ1 +BDAEOwRMBEIENQRABD0EMARCBDgEMgQ9BEsENQAA +BDIEMARABDgEMAQ9BEIESwAA lookup 1 per glyph data 0" H.hwid uniFF28 H.vert H.ital u1F117 uni24BD u1F157 u1F137 glyph11183 glyph11453 u1F177 uni029C glyph20506
EndChar

StartChar: I
Encoding: 73 73 40
Width: 510
GlyphClass: 2
Flags: W
LayerCount: 2
Fore
SplineSet
297 1544 m 1,0,-1
 297 37 l 1,1,-1
 213 37 l 1,2,-1
 213 1544 l 1,3,-1
 297 1544 l 1,0,-1
EndSplineSet
Validated: 1
Substitution2: "'hwid' Half Widths lookup 33 subtable" I.hwid
Substitution2: "'fwid' Full Widths lookup 30 subtable" uniFF29
Substitution2: "'ital' Italics lookup 17 subtable" I.ital
AlternateSubs2: "'nalt' Alternate Annotation Forms lookup 16 subtable" u1F118 uni24BE u1F158 u1F138 glyph11184 glyph11454 u1F178
Substitution2: "'vrt2' Vertical Rotation & Alternates lookup 5 subtable" I.vert
AlternateSubs2: "'aalt' +BBIEQQQ1 +BDAEOwRMBEIENQRABD0EMARCBDgEMgQ9BEsENQAA +BDIEMARABDgEMAQ9BEIESwAA lookup 1 per glyph data 0" I.hwid uniFF29 I.vert I.ital u1F118 uni24BE u1F158 u1F138 glyph11184 glyph11454 u1F178 uni026A
EndChar

StartChar: J
Encoding: 74 74 41
Width: 737
GlyphClass: 2
Flags: W
LayerCount: 2
Fore
SplineSet
525 1544 m 1,0,-1
 525 391 l 2,1,2
 525 191 525 191 397 87 c 0,3,4
 303 10 303 10 178 10 c 0,5,6
 112 10 112 10 37 16 c 1,7,-1
 31 92 l 1,8,9
 99 84 99 84 174 84 c 0,10,11
 294 84 294 84 368 170 c 0,12,13
 441 256 441 256 441 401 c 2,14,-1
 441 1544 l 1,15,-1
 525 1544 l 1,0,-1
EndSplineSet
Validated: 1
Substitution2: "'hwid' Half Widths lookup 33 subtable" J.hwid
Substitution2: "'fwid' Full Widths lookup 30 subtable" uniFF2A
Substitution2: "'ital' Italics lookup 17 subtable" J.ital
AlternateSubs2: "'nalt' Alternate Annotation Forms lookup 16 subtable" u1F119 uni24BF u1F159 u1F139 glyph11185 glyph11455 u1F179
Substitution2: "'vrt2' Vertical Rotation & Alternates lookup 5 subtable" J.vert
AlternateSubs2: "'aalt' +BBIEQQQ1 +BDAEOwRMBEIENQRABD0EMARCBDgEMgQ9BEsENQAA +BDIEMARABDgEMAQ9BEIESwAA lookup 1 per glyph data 0" J.hwid uniFF2A J.vert J.ital u1F119 uni24BF u1F159 u1F139 glyph11185 glyph11455 u1F179
EndChar

StartChar: K
Encoding: 75 75 42
Width: 1356
GlyphClass: 2
Flags: W
LayerCount: 2
Fore
SplineSet
1229 1544 m 1,0,-1
 639 934 l 1,1,-1
 1300 37 l 1,2,-1
 1194 37 l 1,3,-1
 586 879 l 1,4,-1
 297 580 l 1,5,-1
 297 37 l 1,6,-1
 213 37 l 1,7,-1
 213 1544 l 1,8,-1
 297 1544 l 1,9,-1
 297 676 l 1,10,-1
 1116 1544 l 1,11,-1
 1229 1544 l 1,0,-1
EndSplineSet
Validated: 1
Substitution2: "'hwid' Half Widths lookup 33 subtable" K.hwid
Substitution2: "'fwid' Full Widths lookup 30 subtable" uniFF2B
Substitution2: "'ital' Italics lookup 17 subtable" K.ital
AlternateSubs2: "'nalt' Alternate Annotation Forms lookup 16 subtable" u1F11A uni24C0 u1F15A u1F13A glyph11186 glyph11456 u1F17A
Substitution2: "'vrt2' Vertical Rotation & Alternates lookup 5 subtable" K.vert
AlternateSubs2: "'aalt' +BBIEQQQ1 +BDAEOwRMBEIENQRABD0EMARCBDgEMgQ9BEsENQAA +BDIEMARABDgEMAQ9BEIESwAA lookup 1 per glyph data 0" K.hwid uniFF2B K.vert K.ital u1F11A uni24C0 u1F15A u1F13A glyph11186 glyph11456 u1F17A
EndChar

StartChar: L
Encoding: 76 76 43
Width: 1153
GlyphClass: 2
Flags: W
LayerCount: 2
Fore
SplineSet
297 1544 m 1,0,-1
 297 111 l 1,1,-1
 1087 111 l 1,2,-1
 1087 37 l 1,3,-1
 213 37 l 1,4,-1
 213 1544 l 1,5,-1
 297 1544 l 1,0,-1
EndSplineSet
Validated: 1
Substitution2: "'hwid' Half Widths lookup 33 subtable" L.hwid
Substitution2: "'fwid' Full Widths lookup 30 subtable" uniFF2C
Substitution2: "'ital' Italics lookup 17 subtable" L.ital
AlternateSubs2: "'nalt' Alternate Annotation Forms lookup 16 subtable" u1F11B uni24C1 u1F15B u1F13B glyph11187 glyph11457 u1F17B
Substitution2: "'vrt2' Vertical Rotation & Alternates lookup 5 subtable" L.vert
AlternateSubs2: "'aalt' +BBIEQQQ1 +BDAEOwRMBEIENQRABD0EMARCBDgEMgQ9BEsENQAA +BDIEMARABDgEMAQ9BEIESwAA lookup 1 per glyph data 0" L.hwid uniFF2C L.vert L.ital u1F11B uni24C1 u1F15B u1F13B glyph11187 glyph11457 u1F17B uni029F
EndChar

StartChar: M
Encoding: 77 77 44
Width: 1835
GlyphClass: 2
Flags: W
LayerCount: 2
Fore
SplineSet
1622 1544 m 1,0,-1
 1622 37 l 1,1,-1
 1538 37 l 1,2,-1
 1538 1061 l 1,3,-1
 1542 1472 l 1,4,-1
 1528 1472 l 1,5,6
 1450 1254 1450 1254 1376 1067 c 2,7,-1
 971 37 l 1,8,-1
 862 37 l 1,9,-1
 457 1067 l 2,10,11
 376 1274 376 1274 305 1472 c 1,12,-1
 291 1472 l 1,13,-1
 295 1061 l 1,14,-1
 295 37 l 1,15,-1
 213 37 l 1,16,-1
 213 1544 l 1,17,-1
 356 1544 l 1,18,-1
 756 528 l 2,19,20
 830 343 830 343 911 109 c 1,21,-1
 926 109 l 1,22,23
 1007 350 1007 350 1075 522 c 2,24,-1
 1477 1544 l 1,25,-1
 1622 1544 l 1,0,-1
EndSplineSet
Validated: 1
Substitution2: "'hwid' Half Widths lookup 33 subtable" M.hwid
Substitution2: "'fwid' Full Widths lookup 30 subtable" uniFF2D
Substitution2: "'ital' Italics lookup 17 subtable" M.ital
AlternateSubs2: "'nalt' Alternate Annotation Forms lookup 16 subtable" u1F11C uni24C2 u1F15C u1F13C glyph11188 glyph11458 u1F17C
Substitution2: "'vrt2' Vertical Rotation & Alternates lookup 5 subtable" M.vert
AlternateSubs2: "'aalt' +BBIEQQQ1 +BDAEOwRMBEIENQRABD0EMARCBDgEMgQ9BEsENQAA +BDIEMARABDgEMAQ9BEIESwAA lookup 1 per glyph data 0" M.hwid uniFF2D M.vert M.ital u1F11C uni24C2 u1F15C u1F13C glyph11188 glyph11458 u1F17C
EndChar

StartChar: N
Encoding: 78 78 45
Width: 1475
GlyphClass: 2
Flags: W
LayerCount: 2
Fore
SplineSet
1262 1544 m 1,0,-1
 1262 37 l 1,1,-1
 1151 37 l 1,2,-1
 518 1091 l 2,3,4
 436 1228 436 1228 305 1472 c 1,5,-1
 291 1472 l 1,6,-1
 295 1057 l 1,7,-1
 295 37 l 1,8,-1
 213 37 l 1,9,-1
 213 1544 l 1,10,-1
 342 1544 l 1,11,-1
 965 510 l 2,12,13
 1085 310 1085 310 1180 123 c 1,14,-1
 1194 123 l 1,15,16
 1180 363 1180 363 1180 559 c 2,17,-1
 1180 1544 l 1,18,-1
 1262 1544 l 1,0,-1
EndSplineSet
Validated: 1
Substitution2: "'hwid' Half Widths lookup 33 subtable" N.hwid
Substitution2: "'fwid' Full Widths lookup 30 subtable" uniFF2E
Substitution2: "'ital' Italics lookup 17 subtable" N.ital
AlternateSubs2: "'nalt' Alternate Annotation Forms lookup 16 subtable" u1F11D uni24C3 u1F15D u1F13D glyph11189 glyph11459 u1F17D glyph20556
Substitution2: "'vrt2' Vertical Rotation & Alternates lookup 5 subtable" N.vert
AlternateSubs2: "'aalt' +BBIEQQQ1 +BDAEOwRMBEIENQRABD0EMARCBDgEMgQ9BEsENQAA +BDIEMARABDgEMAQ9BEIESwAA lookup 1 per glyph data 0" N.hwid uniFF2E N.vert N.ital u1F11D uni24C3 u1F15D u1F13D glyph11189 glyph11459 u1F17D uni0274 glyph20556
EndChar

StartChar: O
Encoding: 79 79 46
Width: 1432
GlyphClass: 2
Flags: W
LayerCount: 2
Fore
SplineSet
717 1571 m 0,0,1
 995 1571 995 1571 1161 1341 c 0,2,3
 1313 1130 1313 1130 1313 795 c 0,4,5
 1313 409 1313 409 1118 191 c 0,6,7
 956 10 956 10 717 10 c 0,8,9
 438 10 438 10 271 243 c 0,10,11
 119 454 119 454 119 791 c 0,12,13
 119 1175 119 1175 315 1392 c 0,14,15
 477 1571 477 1571 717 1571 c 0,0,1
717 1495 m 0,16,17
 474 1495 474 1495 335 1287 c 0,18,19
 209 1098 209 1098 209 793 c 0,20,21
 209 442 209 442 371 248 c 0,22,23
 507 86 507 86 717 86 c 0,24,25
 959 86 959 86 1098 297 c 0,26,27
 1223 486 1223 486 1223 793 c 0,28,29
 1223 1143 1223 1143 1062 1334 c 0,30,31
 927 1495 927 1495 717 1495 c 0,16,17
EndSplineSet
Validated: 1
Substitution2: "'hwid' Half Widths lookup 33 subtable" O.hwid
Substitution2: "'fwid' Full Widths lookup 30 subtable" uniFF2F
Substitution2: "'ital' Italics lookup 17 subtable" O.ital
AlternateSubs2: "'nalt' Alternate Annotation Forms lookup 16 subtable" u1F11E uni24C4 u1F15E u1F13E glyph11190 glyph11460 u1F17E
Substitution2: "'vrt2' Vertical Rotation & Alternates lookup 5 subtable" O.vert
AlternateSubs2: "'aalt' +BBIEQQQ1 +BDAEOwRMBEIENQRABD0EMARCBDgEMgQ9BEsENQAA +BDIEMARABDgEMAQ9BEIESwAA lookup 1 per glyph data 0" O.hwid uniFF2F O.vert O.ital u1F11E uni24C4 u1F15E u1F13E glyph11190 glyph11460 u1F17E
EndChar

StartChar: P
Encoding: 80 80 47
Width: 1290
GlyphClass: 2
Flags: W
LayerCount: 2
Fore
SplineSet
213 1544 m 1,0,-1
 678 1544 l 2,1,2
 941 1544 941 1544 1069 1424 c 0,3,4
 1178 1321 1178 1321 1178 1143 c 0,5,6
 1178 937 1178 937 1029 828 c 0,7,8
 896 731 896 731 666 731 c 2,9,-1
 297 731 l 1,10,-1
 297 37 l 1,11,-1
 213 37 l 1,12,-1
 213 1544 l 1,0,-1
297 1470 m 1,13,-1
 297 803 l 1,14,-1
 659 803 l 2,15,16
 1090 803 1090 803 1090 1141 c 0,17,18
 1090 1470 1090 1470 672 1470 c 2,19,-1
 297 1470 l 1,13,-1
EndSplineSet
Validated: 1
Substitution2: "'hwid' Half Widths lookup 33 subtable" P.hwid
Substitution2: "'fwid' Full Widths lookup 30 subtable" uniFF30
Substitution2: "'ital' Italics lookup 17 subtable" P.ital
AlternateSubs2: "'nalt' Alternate Annotation Forms lookup 16 subtable" u1F11F uni24C5 u1F15F u1F13F glyph11191 glyph11461 u1F17F
Substitution2: "'vrt2' Vertical Rotation & Alternates lookup 5 subtable" P.vert
AlternateSubs2: "'aalt' +BBIEQQQ1 +BDAEOwRMBEIENQRABD0EMARCBDgEMgQ9BEsENQAA +BDIEMARABDgEMAQ9BEIESwAA lookup 1 per glyph data 0" P.hwid uniFF30 P.vert P.ital u1F11F uni24C5 u1F15F u1F13F glyph11191 glyph11461 u1F17F
EndChar

StartChar: Q
Encoding: 81 81 48
Width: 1432
GlyphClass: 2
Flags: W
LayerCount: 2
Fore
SplineSet
1235 -195 m 1,0,-1
 1223 -277 l 1,1,2
 1139 -289 1139 -289 1045 -289 c 0,3,4
 897 -289 897 -289 835 -240 c 0,5,6
 784 -201 784 -201 746 -92 c 2,7,-1
 709 10 l 1,8,9
 434 13 434 13 269 246 c 0,10,11
 119 457 119 457 119 791 c 0,12,13
 119 1175 119 1175 315 1392 c 0,14,15
 477 1571 477 1571 717 1571 c 0,16,17
 995 1571 995 1571 1161 1341 c 0,18,19
 1313 1130 1313 1130 1313 795 c 0,20,21
 1313 440 1313 440 1146 224 c 0,22,23
 1008 46 1008 46 795 16 c 1,24,-1
 821 -58 l 2,25,26
 856 -157 856 -157 903 -187 c 0,27,28
 948 -215 948 -215 1047 -215 c 0,29,30
 1147 -215 1147 -215 1235 -195 c 1,0,-1
717 1495 m 0,31,32
 474 1495 474 1495 335 1287 c 0,33,34
 209 1098 209 1098 209 793 c 0,35,36
 209 442 209 442 371 248 c 0,37,38
 507 86 507 86 717 86 c 0,39,40
 959 86 959 86 1098 297 c 0,41,42
 1223 486 1223 486 1223 793 c 0,43,44
 1223 1143 1223 1143 1062 1334 c 0,45,46
 927 1495 927 1495 717 1495 c 0,31,32
EndSplineSet
Validated: 1
Substitution2: "'hwid' Half Widths lookup 33 subtable" Q.hwid
Substitution2: "'fwid' Full Widths lookup 30 subtable" uniFF31
Substitution2: "'ital' Italics lookup 17 subtable" Q.ital
AlternateSubs2: "'nalt' Alternate Annotation Forms lookup 16 subtable" u1F120 uni24C6 u1F160 u1F140 glyph11192 glyph11462 u1F180
Substitution2: "'vrt2' Vertical Rotation & Alternates lookup 5 subtable" Q.vert
AlternateSubs2: "'aalt' +BBIEQQQ1 +BDAEOwRMBEIENQRABD0EMARCBDgEMgQ9BEsENQAA +BDIEMARABDgEMAQ9BEIESwAA lookup 1 per glyph data 0" Q.hwid uniFF31 Q.vert Q.ital u1F120 uni24C6 u1F160 u1F140 glyph11192 glyph11462 u1F180
EndChar

StartChar: R
Encoding: 82 82 49
Width: 1298
GlyphClass: 2
Flags: W
LayerCount: 2
Fore
SplineSet
213 1544 m 1,0,-1
 682 1544 l 2,1,2
 950 1544 950 1544 1077 1430 c 0,3,4
 1182 1336 1182 1336 1182 1169 c 0,5,6
 1182 1015 1182 1015 1084 914 c 0,7,8
 996 823 996 823 840 792 c 1,9,-1
 1217 37 l 1,10,-1
 1120 37 l 1,11,-1
 756 780 l 1,12,13
 702 776 702 776 670 776 c 2,14,-1
 297 776 l 1,15,-1
 297 37 l 1,16,-1
 213 37 l 1,17,-1
 213 1544 l 1,0,-1
297 1470 m 1,18,-1
 297 848 l 1,19,-1
 664 848 l 2,20,21
 1094 848 1094 848 1094 1167 c 0,22,23
 1094 1331 1094 1331 984 1404 c 0,24,25
 883 1470 883 1470 676 1470 c 2,26,-1
 297 1470 l 1,18,-1
EndSplineSet
Validated: 1
Substitution2: "'hwid' Half Widths lookup 33 subtable" R.hwid
Substitution2: "'fwid' Full Widths lookup 30 subtable" uniFF32
Substitution2: "'ital' Italics lookup 17 subtable" R.ital
AlternateSubs2: "'nalt' Alternate Annotation Forms lookup 16 subtable" registered registered.fwid registered.ital u1F121 uni24C7 u1F161 u1F141 glyph11193 glyph11463 u1F181 glyph12106 glyph12107
Substitution2: "'vrt2' Vertical Rotation & Alternates lookup 5 subtable" R.vert
AlternateSubs2: "'aalt' +BBIEQQQ1 +BDAEOwRMBEIENQRABD0EMARCBDgEMgQ9BEsENQAA +BDIEMARABDgEMAQ9BEIESwAA lookup 1 per glyph data 0" registered R.hwid uniFF32 registered.fwid R.vert R.ital registered.ital u1F121 uni24C7 u1F161 u1F141 glyph11193 glyph11463 u1F181 glyph12106 glyph12107 uni0280
EndChar

StartChar: S
Encoding: 83 83 50
Width: 1219
GlyphClass: 2
Flags: W
LayerCount: 2
Fore
SplineSet
1069 1235 m 1,0,-1
 985 1202 l 1,1,2
 886 1495 886 1495 604 1495 c 0,3,4
 426 1495 426 1495 327 1402 c 0,5,6
 241 1321 241 1321 241 1192 c 0,7,8
 241 1047 241 1047 334 971 c 0,9,10
 414 906 414 906 596 862 c 2,11,-1
 647 850 l 2,12,13
 932 782 932 782 1031 666 c 0,14,15
 1106 578 1106 578 1106 418 c 0,16,17
 1106 221 1106 221 958 109 c 0,18,19
 826 10 826 10 612 10 c 0,20,21
 409 10 409 10 272 117 c 0,22,23
 152 211 152 211 96 377 c 1,24,-1
 182 412 l 1,25,26
 228 242 228 242 359 157 c 0,27,28
 467 86 467 86 612 86 c 0,29,30
 824 86 824 86 930 190 c 0,31,32
 1016 275 1016 275 1016 414 c 0,33,34
 1016 566 1016 566 926 643 c 0,35,36
 839 718 839 718 626 768 c 2,37,-1
 583 778 l 2,38,39
 327 840 327 840 231 950 c 0,40,41
 153 1039 153 1039 153 1192 c 0,42,43
 153 1358 153 1358 282 1467 c 0,44,45
 405 1571 405 1571 604 1571 c 0,46,47
 938 1571 938 1571 1069 1235 c 1,0,-1
EndSplineSet
Validated: 1
Substitution2: "'hwid' Half Widths lookup 33 subtable" S.hwid
Substitution2: "'fwid' Full Widths lookup 30 subtable" uniFF33
Substitution2: "'ital' Italics lookup 17 subtable" S.ital
AlternateSubs2: "'nalt' Alternate Annotation Forms lookup 16 subtable" u1F122 uni24C8 u1F162 u1F142 glyph11194 glyph11464 u1F182 glyph20923
Substitution2: "'vrt2' Vertical Rotation & Alternates lookup 5 subtable" S.vert
AlternateSubs2: "'aalt' +BBIEQQQ1 +BDAEOwRMBEIENQRABD0EMARCBDgEMgQ9BEsENQAA +BDIEMARABDgEMAQ9BEIESwAA lookup 1 per glyph data 0" S.hwid uniFF33 S.vert S.ital u1F122 uni24C8 u1F162 u1F142 glyph11194 glyph11464 u1F182 glyph20923
EndChar

StartChar: T
Encoding: 84 84 51
Width: 1214
GlyphClass: 2
Flags: W
LayerCount: 2
Fore
SplineSet
1149 1544 m 1,0,-1
 1149 1470 l 1,1,-1
 648 1470 l 1,2,-1
 648 37 l 1,3,-1
 564 37 l 1,4,-1
 564 1470 l 1,5,-1
 66 1470 l 1,6,-1
 66 1544 l 1,7,-1
 1149 1544 l 1,0,-1
EndSplineSet
Validated: 1
Substitution2: "'hwid' Half Widths lookup 33 subtable" T.hwid
Substitution2: "'fwid' Full Widths lookup 30 subtable" uniFF34
Substitution2: "'ital' Italics lookup 17 subtable" T.ital
AlternateSubs2: "'nalt' Alternate Annotation Forms lookup 16 subtable" u1F123 uni24C9 u1F163 u1F143 glyph11195 glyph11465 u1F183
Substitution2: "'vrt2' Vertical Rotation & Alternates lookup 5 subtable" T.vert
AlternateSubs2: "'aalt' +BBIEQQQ1 +BDAEOwRMBEIENQRABD0EMARCBDgEMgQ9BEsENQAA +BDIEMARABDgEMAQ9BEIESwAA lookup 1 per glyph data 0" T.hwid uniFF34 T.vert T.ital u1F123 uni24C9 u1F163 u1F143 glyph11195 glyph11465 u1F183
EndChar

StartChar: U
Encoding: 85 85 52
Width: 1450
GlyphClass: 2
Flags: W
LayerCount: 2
Fore
SplineSet
1243 1544 m 1,0,-1
 1243 526 l 2,1,2
 1243 253 1243 253 1065 116 c 0,3,4
 928 10 928 10 721 10 c 0,5,6
 481 10 481 10 343 148 c 0,7,8
 207 284 207 284 207 524 c 2,9,-1
 207 1544 l 1,10,-1
 289 1544 l 1,11,-1
 289 532 l 2,12,13
 289 295 289 295 425 180 c 0,14,15
 537 86 537 86 725 86 c 0,16,17
 942 86 942 86 1055 209 c 0,18,19
 1161 324 1161 324 1161 532 c 2,20,-1
 1161 1544 l 1,21,-1
 1243 1544 l 1,0,-1
EndSplineSet
Validated: 1
Substitution2: "'hwid' Half Widths lookup 33 subtable" U.hwid
Substitution2: "'fwid' Full Widths lookup 30 subtable" uniFF35
Substitution2: "'ital' Italics lookup 17 subtable" U.ital
AlternateSubs2: "'nalt' Alternate Annotation Forms lookup 16 subtable" u1F124 uni24CA u1F164 u1F144 glyph11196 glyph11466 u1F184
Substitution2: "'vrt2' Vertical Rotation & Alternates lookup 5 subtable" U.vert
AlternateSubs2: "'aalt' +BBIEQQQ1 +BDAEOwRMBEIENQRABD0EMARCBDgEMgQ9BEsENQAA +BDIEMARABDgEMAQ9BEIESwAA lookup 1 per glyph data 0" U.hwid uniFF35 U.vert U.ital u1F124 uni24CA u1F164 u1F144 glyph11196 glyph11466 u1F184
EndChar

StartChar: V
Encoding: 86 86 53
Width: 1251
GlyphClass: 2
Flags: W
LayerCount: 2
Fore
SplineSet
1196 1544 m 1,0,-1
 676 37 l 1,1,-1
 565 37 l 1,2,-1
 55 1544 l 1,3,-1
 147 1544 l 1,4,-1
 485 520 l 2,5,6
 509 446 509 446 554 304 c 0,7,8
 595 175 595 175 616 109 c 1,9,-1
 630 109 l 1,10,11
 754 501 754 501 760 518 c 2,12,-1
 1106 1544 l 1,13,-1
 1196 1544 l 1,0,-1
EndSplineSet
Validated: 1
Substitution2: "'hwid' Half Widths lookup 33 subtable" V.hwid
Substitution2: "'fwid' Full Widths lookup 30 subtable" uniFF36
Substitution2: "'ital' Italics lookup 17 subtable" V.ital
AlternateSubs2: "'nalt' Alternate Annotation Forms lookup 16 subtable" u1F125 uni24CB u1F165 u1F145 glyph11197 glyph11467 u1F185
Substitution2: "'vrt2' Vertical Rotation & Alternates lookup 5 subtable" V.vert
AlternateSubs2: "'aalt' +BBIEQQQ1 +BDAEOwRMBEIENQRABD0EMARCBDgEMgQ9BEsENQAA +BDIEMARABDgEMAQ9BEIESwAA lookup 1 per glyph data 0" V.hwid uniFF36 V.vert V.ital u1F125 uni24CB u1F165 u1F145 glyph11197 glyph11467 u1F185
EndChar

StartChar: W
Encoding: 87 87 54
Width: 1753
GlyphClass: 2
Flags: W
LayerCount: 2
Fore
SplineSet
1697 1544 m 1,0,-1
 1337 37 l 1,1,-1
 1226 37 l 1,2,-1
 968 1061 l 2,3,4
 914 1272 914 1272 880 1472 c 1,5,-1
 866 1472 l 1,6,7
 815 1189 815 1189 782 1063 c 2,8,-1
 520 37 l 1,9,-1
 409 37 l 1,10,-1
 55 1544 l 1,11,-1
 147 1544 l 1,12,-1
 377 530 l 2,13,14
 418 351 418 351 461 109 c 1,15,-1
 475 109 l 1,16,17
 518 353 518 353 561 522 c 2,18,-1
 821 1544 l 1,19,-1
 932 1544 l 1,20,-1
 1190 522 l 2,21,22
 1235 344 1235 344 1276 109 c 1,23,-1
 1290 109 l 1,24,25
 1322 313 1322 313 1370 520 c 2,26,-1
 1607 1544 l 1,27,-1
 1697 1544 l 1,0,-1
EndSplineSet
Validated: 1
Substitution2: "'hwid' Half Widths lookup 33 subtable" W.hwid
Substitution2: "'fwid' Full Widths lookup 30 subtable" uniFF37
Substitution2: "'ital' Italics lookup 17 subtable" W.ital
AlternateSubs2: "'nalt' Alternate Annotation Forms lookup 16 subtable" u1F126 uni24CC u1F166 u1F146 glyph11198 glyph11468 u1F186
Substitution2: "'vrt2' Vertical Rotation & Alternates lookup 5 subtable" W.vert
AlternateSubs2: "'aalt' +BBIEQQQ1 +BDAEOwRMBEIENQRABD0EMARCBDgEMgQ9BEsENQAA +BDIEMARABDgEMAQ9BEIESwAA lookup 1 per glyph data 0" W.hwid uniFF37 W.vert W.ital u1F126 uni24CC u1F166 u1F146 glyph11198 glyph11468 u1F186
EndChar

StartChar: X
Encoding: 88 88 55
Width: 1251
GlyphClass: 2
Flags: W
LayerCount: 2
Fore
SplineSet
1167 1544 m 1,0,-1
 673 821 l 1,1,-1
 1196 37 l 1,2,-1
 1095 37 l 1,3,-1
 688 655 l 1,4,-1
 622 760 l 1,5,-1
 555 653 l 1,6,-1
 153 37 l 1,7,-1
 55 37 l 1,8,-1
 573 819 l 1,9,-1
 92 1544 l 1,10,-1
 190 1544 l 1,11,-1
 557 987 l 2,12,13
 567 972 567 972 594 930 c 0,14,15
 615 899 615 899 626 881 c 1,16,17
 638 898 638 898 665 940 c 0,18,19
 686 973 686 973 698 991 c 2,20,-1
 1069 1544 l 1,21,-1
 1167 1544 l 1,0,-1
EndSplineSet
Validated: 1
Substitution2: "'hwid' Half Widths lookup 33 subtable" X.hwid
Substitution2: "'fwid' Full Widths lookup 30 subtable" uniFF38
Substitution2: "'ital' Italics lookup 17 subtable" X.ital
AlternateSubs2: "'nalt' Alternate Annotation Forms lookup 16 subtable" u1F127 uni24CD u1F167 u1F147 glyph11199 glyph11469 u1F187
Substitution2: "'vrt2' Vertical Rotation & Alternates lookup 5 subtable" X.vert
AlternateSubs2: "'aalt' +BBIEQQQ1 +BDAEOwRMBEIENQRABD0EMARCBDgEMgQ9BEsENQAA +BDIEMARABDgEMAQ9BEIESwAA lookup 1 per glyph data 0" X.hwid uniFF38 X.vert X.ital u1F127 uni24CD u1F167 u1F147 glyph11199 glyph11469 u1F187
EndChar

StartChar: Y
Encoding: 89 89 56
Width: 1251
GlyphClass: 2
Flags: W
LayerCount: 2
Fore
SplineSet
1196 1544 m 1,0,-1
 659 686 l 1,1,-1
 659 37 l 1,2,-1
 575 37 l 1,3,-1
 575 686 l 1,4,-1
 55 1544 l 1,5,-1
 153 1544 l 1,6,-1
 548 883 l 2,7,8
 598 801 598 801 620 762 c 1,9,-1
 698 889 l 1,10,-1
 1099 1544 l 1,11,-1
 1196 1544 l 1,0,-1
EndSplineSet
Validated: 1
Substitution2: "'hwid' Half Widths lookup 33 subtable" Y.hwid
Substitution2: "'fwid' Full Widths lookup 30 subtable" uniFF39
Substitution2: "'ital' Italics lookup 17 subtable" Y.ital
AlternateSubs2: "'nalt' Alternate Annotation Forms lookup 16 subtable" u1F128 uni24CE u1F168 u1F148 glyph11200 glyph11470 u1F188
Substitution2: "'vrt2' Vertical Rotation & Alternates lookup 5 subtable" Y.vert
AlternateSubs2: "'aalt' +BBIEQQQ1 +BDAEOwRMBEIENQRABD0EMARCBDgEMgQ9BEsENQAA +BDIEMARABDgEMAQ9BEIESwAA lookup 1 per glyph data 0" Y.hwid uniFF39 Y.vert Y.ital u1F128 uni24CE u1F168 u1F148 glyph11200 glyph11470 u1F188 uni028F
EndChar

StartChar: Z
Encoding: 90 90 57
Width: 1190
GlyphClass: 2
Flags: W
LayerCount: 2
Fore
SplineSet
1104 1544 m 1,0,-1
 1104 1482 l 1,1,-1
 182 111 l 1,2,-1
 1112 111 l 1,3,-1
 1112 37 l 1,4,-1
 78 37 l 1,5,-1
 78 99 l 1,6,-1
 1000 1470 l 1,7,-1
 123 1470 l 1,8,-1
 123 1544 l 1,9,-1
 1104 1544 l 1,0,-1
EndSplineSet
Validated: 1
Substitution2: "'hwid' Half Widths lookup 33 subtable" Z.hwid
Substitution2: "'fwid' Full Widths lookup 30 subtable" uniFF3A
Substitution2: "'ital' Italics lookup 17 subtable" Z.ital
AlternateSubs2: "'nalt' Alternate Annotation Forms lookup 16 subtable" u1F129 uni24CF u1F169 u1F149 glyph11201 glyph11471 u1F189
Substitution2: "'vrt2' Vertical Rotation & Alternates lookup 5 subtable" Z.vert
AlternateSubs2: "'aalt' +BBIEQQQ1 +BDAEOwRMBEIENQRABD0EMARCBDgEMgQ9BEsENQAA +BDIEMARABDgEMAQ9BEIESwAA lookup 1 per glyph data 0" Z.hwid uniFF3A Z.vert Z.ital u1F129 uni24CF u1F169 u1F149 glyph11201 glyph11471 u1F189
EndChar

StartChar: bracketleft
Encoding: 91 91 58
Width: 694
GlyphClass: 2
Flags: W
LayerCount: 2
Fore
SplineSet
639 1747 m 1,0,-1
 639 1690 l 1,1,-1
 320 1690 l 1,2,-1
 320 -133 l 1,3,-1
 639 -133 l 1,4,-1
 639 -190 l 1,5,-1
 240 -190 l 1,6,-1
 240 1747 l 1,7,-1
 639 1747 l 1,0,-1
EndSplineSet
Validated: 1
Substitution2: "'hwid' Half Widths lookup 33 subtable" bracketleft.hwid
Substitution2: "'fwid' Full Widths lookup 30 subtable" uniFF3B
Substitution2: "'ital' Italics lookup 17 subtable" bracketleft.ital
Substitution2: "'vrt2' Vertical Rotation & Alternates lookup 5 subtable" bracketleft.vert
AlternateSubs2: "'aalt' +BBIEQQQ1 +BDAEOwRMBEIENQRABD0EMARCBDgEMgQ9BEsENQAA +BDIEMARABDgEMAQ9BEIESwAA lookup 1 per glyph data 0" bracketleft.hwid uniFF3B uniFE47 bracketleft.vert bracketleft.ital glyph12076 glyph12129 glyph12139
EndChar

StartChar: yen
Encoding: 92 92 59
AltUni2: 0000a5.ffffffff.0 0000a5.ffffffff.0
Width: 1098
GlyphClass: 2
Flags: W
LayerCount: 2
Fore
SplineSet
1016 1544 m 1,0,-1
 733 983 l 1,1,-1
 989 983 l 1,2,-1
 989 922 l 1,3,-1
 703 922 l 1,4,-1
 584 688 l 1,5,-1
 584 682 l 1,6,-1
 989 682 l 1,7,-1
 989 621 l 1,8,-1
 584 621 l 1,9,-1
 584 37 l 1,10,-1
 504 37 l 1,11,-1
 504 621 l 1,12,-1
 103 621 l 1,13,-1
 103 682 l 1,14,-1
 504 682 l 1,15,-1
 504 688 l 1,16,-1
 387 922 l 1,17,-1
 103 922 l 1,18,-1
 103 983 l 1,19,-1
 356 983 l 1,20,-1
 80 1544 l 1,21,-1
 172 1544 l 1,22,-1
 486 883 l 2,23,24
 501 852 501 852 547 756 c 1,25,26
 572 805 572 805 613 891 c 2,27,-1
 926 1544 l 1,28,-1
 1016 1544 l 1,0,-1
EndSplineSet
Validated: 1
Substitution2: "'hwid' Half Widths lookup 33 subtable" yen.hwid
Substitution2: "'fwid' Full Widths lookup 30 subtable" uniFFE5
Substitution2: "'ital' Italics lookup 17 subtable" yen.ital
Substitution2: "'vrt2' Vertical Rotation & Alternates lookup 5 subtable" yen.vert
AlternateSubs2: "'aalt' +BBIEQQQ1 +BDAEOwRMBEIENQRABD0EMARCBDgEMgQ9BEsENQAA +BDIEMARABDgEMAQ9BEIESwAA lookup 1 per glyph data 0" yen.hwid uniFFE5 uni5186 yen.vert yen.ital
EndChar

StartChar: bracketright
Encoding: 93 93 60
Width: 694
GlyphClass: 2
Flags: W
LayerCount: 2
Fore
SplineSet
454 1747 m 1,0,-1
 454 -188 l 1,1,-1
 55 -188 l 1,2,-1
 55 -131 l 1,3,-1
 374 -131 l 1,4,-1
 374 1690 l 1,5,-1
 55 1690 l 1,6,-1
 55 1747 l 1,7,-1
 454 1747 l 1,0,-1
EndSplineSet
Validated: 1
Substitution2: "'hwid' Half Widths lookup 33 subtable" bracketright.hwid
Substitution2: "'fwid' Full Widths lookup 30 subtable" uniFF3D
Substitution2: "'ital' Italics lookup 17 subtable" bracketright.ital
Substitution2: "'vrt2' Vertical Rotation & Alternates lookup 5 subtable" bracketright.vert
AlternateSubs2: "'aalt' +BBIEQQQ1 +BDAEOwRMBEIENQRABD0EMARCBDgEMgQ9BEsENQAA +BDIEMARABDgEMAQ9BEIESwAA lookup 1 per glyph data 0" bracketright.hwid uniFF3D uniFE48 bracketright.vert bracketright.ital glyph12077 glyph12130 glyph12140
EndChar

StartChar: asciicircum
Encoding: 94 94 61
Width: 1024
GlyphClass: 2
Flags: W
LayerCount: 2
Fore
SplineSet
555 1544 m 1,0,-1
 948 827 l 1,1,-1
 860 827 l 1,2,-1
 512 1485 l 1,3,-1
 160 827 l 1,4,-1
 76 827 l 1,5,-1
 465 1544 l 1,6,-1
 555 1544 l 1,0,-1
EndSplineSet
Validated: 1
Substitution2: "'hwid' Half Widths lookup 33 subtable" asciicircum.hwid
Substitution2: "'fwid' Full Widths lookup 30 subtable" uniFF3E
Substitution2: "'ital' Italics lookup 17 subtable" asciicircum.ital
Substitution2: "'vrt2' Vertical Rotation & Alternates lookup 5 subtable" asciicircum.vert
AlternateSubs2: "'aalt' +BBIEQQQ1 +BDAEOwRMBEIENQRABD0EMARCBDgEMgQ9BEsENQAA +BDIEMARABDgEMAQ9BEIESwAA lookup 1 per glyph data 0" uni0302 asciicircum.hwid uniFF3E asciicircum.vert asciicircum.ital uni0302.ital
EndChar

StartChar: uni0332
Encoding: 95 95 62
AltUni2: 000332.ffffffff.0 000332.ffffffff.0
Width: 1024
GlyphClass: 2
Flags: W
LayerCount: 2
Fore
SplineSet
1024 -185 m 1,0,-1
 1024 -246 l 1,1,-1
 0 -246 l 1,2,-1
 0 -185 l 1,3,-1
 1024 -185 l 1,0,-1
EndSplineSet
Validated: 1
Substitution2: "'hwid' Half Widths lookup 33 subtable" uni0332.hwid
Substitution2: "'fwid' Full Widths lookup 30 subtable" uniFF3F
Substitution2: "'ital' Italics lookup 17 subtable" uni0332.ital
Substitution2: "'vrt2' Vertical Rotation & Alternates lookup 5 subtable" uni0332.vert
AlternateSubs2: "'aalt' +BBIEQQQ1 +BDAEOwRMBEIENQRABD0EMARCBDgEMgQ9BEsENQAA +BDIEMARABDgEMAQ9BEIESwAA lookup 1 per glyph data 0" uni0332.hwid uniFF3F uniFE33 uni0332.vert uni0332.ital glyph16271
EndChar

StartChar: gravecomb
Encoding: 96 96 63
AltUni2: 000300.ffffffff.0 000300.ffffffff.0
Width: 1024
GlyphClass: 2
Flags: W
LayerCount: 2
Fore
SplineSet
457 1544 m 1,0,-1
 549 1270 l 1,1,-1
 492 1270 l 1,2,-1
 336 1544 l 1,3,-1
 457 1544 l 1,0,-1
EndSplineSet
Validated: 1
Substitution2: "'hwid' Half Widths lookup 33 subtable" gravecomb.hwid
Substitution2: "'fwid' Full Widths lookup 30 subtable" uniFF40
Substitution2: "'ital' Italics lookup 17 subtable" gravecomb.ital
Substitution2: "'vrt2' Vertical Rotation & Alternates lookup 5 subtable" gravecomb.vert
AlternateSubs2: "'aalt' +BBIEQQQ1 +BDAEOwRMBEIENQRABD0EMARCBDgEMgQ9BEsENQAA +BDIEMARABDgEMAQ9BEIESwAA lookup 1 per glyph data 0" gravecomb.hwid uniFF40 gravecomb.vert gravecomb.ital
EndChar

StartChar: a
Encoding: 97 97 64
Width: 1067
GlyphClass: 2
Flags: W
LayerCount: 2
Fore
SplineSet
162 832 m 1,0,1
 263 1086 263 1086 547 1086 c 0,2,3
 729 1086 729 1086 811 994 c 0,4,5
 885 910 885 910 885 744 c 2,6,-1
 885 408 l 2,7,8
 885 163 885 163 912 37 c 1,9,-1
 836 37 l 1,10,11
 819 107 819 107 809 238 c 1,12,13
 659 14 659 14 430 14 c 0,14,15
 270 14 270 14 185 108 c 0,16,17
 115 185 115 185 115 305 c 0,18,19
 115 583 115 583 455 639 c 0,20,21
 586 661 586 661 805 672 c 1,22,-1
 805 729 l 2,23,24
 805 898 805 898 737 962 c 0,25,26
 677 1018 677 1018 547 1018 c 0,27,28
 308 1018 308 1018 236 795 c 1,29,-1
 162 832 l 1,0,1
805 608 m 1,30,31
 628 602 628 602 469 574 c 0,32,33
 197 523 197 523 197 307 c 0,34,35
 197 196 197 196 267 137 c 0,36,37
 329 84 329 84 432 84 c 0,38,39
 652 84 652 84 805 326 c 1,40,-1
 805 608 l 1,30,31
EndSplineSet
Validated: 1
Substitution2: "'hwid' Half Widths lookup 33 subtable" a.hwid
Substitution2: "'fwid' Full Widths lookup 30 subtable" uniFF41
Substitution2: "'ital' Italics lookup 17 subtable" a.ital
AlternateSubs2: "'nalt' Alternate Annotation Forms lookup 16 subtable" uni249C uni24D0 glyph10607 glyph10877 glyph11150 glyph11420 glyph11689
Substitution2: "'vrt2' Vertical Rotation & Alternates lookup 5 subtable" a.vert
AlternateSubs2: "'aalt' +BBIEQQQ1 +BDAEOwRMBEIENQRABD0EMARCBDgEMgQ9BEsENQAA +BDIEMARABDgEMAQ9BEIESwAA lookup 1 per glyph data 0" a.hwid uniFF41 uni249C a.vert a.ital uni24D0 glyph10607 glyph10877 glyph11150 glyph11420 glyph11689
EndChar

StartChar: b
Encoding: 98 98 65
Width: 1106
GlyphClass: 2
Flags: W
LayerCount: 2
Fore
SplineSet
268 1571 m 1,0,-1
 268 889 l 1,1,2
 332 989 332 989 423 1041 c 0,3,4
 502 1086 502 1086 585 1086 c 0,5,6
 775 1086 775 1086 887 923 c 0,7,8
 987 778 987 778 987 551 c 0,9,10
 987 291 987 291 854 141 c 0,11,12
 741 14 741 14 575 14 c 0,13,14
 389 14 389 14 266 211 c 1,15,-1
 254 37 l 1,16,-1
 188 37 l 1,17,-1
 188 1571 l 1,18,-1
 268 1571 l 1,0,-1
268 793 m 1,19,-1
 268 297 l 1,20,21
 344 176 344 176 422 127 c 0,22,23
 489 86 489 86 573 86 c 0,24,25
 729 86 729 86 821 224 c 0,26,27
 905 350 905 350 905 551 c 0,28,29
 905 781 905 781 803 907 c 0,30,31
 718 1012 718 1012 585 1012 c 0,32,33
 394 1012 394 1012 268 793 c 1,19,-1
EndSplineSet
Validated: 1
Substitution2: "'hwid' Half Widths lookup 33 subtable" b.hwid
Substitution2: "'fwid' Full Widths lookup 30 subtable" uniFF42
Substitution2: "'ital' Italics lookup 17 subtable" b.ital
AlternateSubs2: "'nalt' Alternate Annotation Forms lookup 16 subtable" uni249D uni24D1 glyph10608 glyph10878 glyph11151 glyph11421 glyph11690
Substitution2: "'vrt2' Vertical Rotation & Alternates lookup 5 subtable" b.vert
AlternateSubs2: "'aalt' +BBIEQQQ1 +BDAEOwRMBEIENQRABD0EMARCBDgEMgQ9BEsENQAA +BDIEMARABDgEMAQ9BEIESwAA lookup 1 per glyph data 0" b.hwid uniFF42 uni249D b.vert b.ital uni24D1 glyph10608 glyph10878 glyph11151 glyph11421 glyph11690
EndChar

StartChar: c
Encoding: 99 99 66
Width: 979
GlyphClass: 2
Flags: W
LayerCount: 2
Fore
SplineSet
895 807 m 1,0,-1
 819 776 l 1,1,2
 748 1016 748 1016 531 1016 c 0,3,4
 371 1016 371 1016 282 878 c 0,5,6
 201 754 201 754 201 551 c 0,7,8
 201 318 201 318 305 191 c 0,9,10
 393 84 393 84 531 84 c 0,11,12
 755 84 755 84 828 326 c 1,13,-1
 903 291 l 1,14,15
 798 14 798 14 531 14 c 0,16,17
 335 14 335 14 221 177 c 0,18,19
 119 321 119 321 119 549 c 0,20,21
 119 810 119 810 251 959 c 0,22,23
 362 1086 362 1086 531 1086 c 0,24,25
 664 1086 664 1086 761 1008 c 0,26,27
 852 935 852 935 895 807 c 1,0,-1
EndSplineSet
Validated: 1
Substitution2: "'hwid' Half Widths lookup 33 subtable" c.hwid
Substitution2: "'fwid' Full Widths lookup 30 subtable" uniFF43
Substitution2: "'ital' Italics lookup 17 subtable" c.ital
AlternateSubs2: "'nalt' Alternate Annotation Forms lookup 16 subtable" uni249E uni24D2 glyph10609 glyph10879 glyph11152 glyph11422 glyph11691
Substitution2: "'vrt2' Vertical Rotation & Alternates lookup 5 subtable" c.vert
AlternateSubs2: "'aalt' +BBIEQQQ1 +BDAEOwRMBEIENQRABD0EMARCBDgEMgQ9BEsENQAA +BDIEMARABDgEMAQ9BEIESwAA lookup 1 per glyph data 0" c.hwid uniFF43 uni249E c.vert c.ital uni24D2 glyph10609 glyph10879 glyph11152 glyph11422 glyph11691
EndChar

StartChar: d
Encoding: 100 100 67
Width: 1106
GlyphClass: 2
Flags: W
LayerCount: 2
Fore
SplineSet
918 1571 m 1,0,-1
 918 37 l 1,1,-1
 840 37 l 1,2,-1
 840 207 l 1,3,4
 719 14 719 14 529 14 c 0,5,6
 337 14 337 14 222 178 c 0,7,8
 119 324 119 324 119 551 c 0,9,10
 119 812 119 812 248 960 c 0,11,12
 356 1086 356 1086 521 1086 c 0,13,14
 712 1086 712 1086 838 895 c 1,15,-1
 838 1571 l 1,16,-1
 918 1571 l 1,0,-1
838 793 m 1,17,18
 714 1012 714 1012 521 1012 c 0,19,20
 367 1012 367 1012 280 875 c 0,21,22
 201 752 201 752 201 551 c 0,23,24
 201 320 201 320 308 193 c 0,25,26
 398 86 398 86 533 86 c 0,27,28
 708 86 708 86 838 297 c 1,29,-1
 838 793 l 1,17,18
EndSplineSet
Validated: 1
Substitution2: "'hwid' Half Widths lookup 33 subtable" d.hwid
Substitution2: "'fwid' Full Widths lookup 30 subtable" uniFF44
Substitution2: "'ital' Italics lookup 17 subtable" d.ital
AlternateSubs2: "'nalt' Alternate Annotation Forms lookup 16 subtable" uni249F uni24D3 glyph10610 glyph10880 glyph11153 glyph11423 glyph11692
Substitution2: "'vrt2' Vertical Rotation & Alternates lookup 5 subtable" d.vert
AlternateSubs2: "'aalt' +BBIEQQQ1 +BDAEOwRMBEIENQRABD0EMARCBDgEMgQ9BEsENQAA +BDIEMARABDgEMAQ9BEIESwAA lookup 1 per glyph data 0" d.hwid uniFF44 uni249F d.vert d.ital uni24D3 glyph10610 glyph10880 glyph11153 glyph11423 glyph11692
EndChar

StartChar: e
Encoding: 101 101 68
Width: 1055
GlyphClass: 2
Flags: W
LayerCount: 2
Fore
SplineSet
942 559 m 1,0,-1
 199 559 l 1,1,2
 199 316 199 316 314 187 c 0,3,4
 406 84 406 84 543 84 c 0,5,6
 674 84 674 84 751 147 c 0,7,8
 818 202 818 202 858 313 c 1,9,-1
 934 276 l 1,10,11
 820 14 820 14 541 14 c 0,12,13
 343 14 343 14 225 177 c 0,14,15
 119 322 119 322 119 549 c 0,16,17
 119 809 119 809 253 959 c 0,18,19
 366 1086 366 1086 535 1086 c 0,20,21
 726 1086 726 1086 841 929 c 0,22,23
 942 791 942 791 942 580 c 2,24,-1
 942 559 l 1,0,-1
860 629 m 1,25,26
 843 827 843 827 744 930 c 0,27,28
 660 1016 660 1016 535 1016 c 0,29,30
 392 1016 392 1016 299 900 c 0,31,32
 216 796 216 796 203 629 c 1,33,-1
 860 629 l 1,25,26
EndSplineSet
Validated: 1
Substitution2: "'hwid' Half Widths lookup 33 subtable" e.hwid
Substitution2: "'fwid' Full Widths lookup 30 subtable" uniFF45
Substitution2: "'ital' Italics lookup 17 subtable" e.ital
AlternateSubs2: "'nalt' Alternate Annotation Forms lookup 16 subtable" uni24A0 uni24D4 glyph10611 glyph10881 glyph11154 glyph11424 glyph11693
Substitution2: "'vrt2' Vertical Rotation & Alternates lookup 5 subtable" e.vert
AlternateSubs2: "'aalt' +BBIEQQQ1 +BDAEOwRMBEIENQRABD0EMARCBDgEMgQ9BEsENQAA +BDIEMARABDgEMAQ9BEIESwAA lookup 1 per glyph data 0" e.hwid uniFF45 uni24A0 e.vert e.ital uni24D4 glyph10611 glyph10881 glyph11154 glyph11424 glyph11693
EndChar

StartChar: f
Encoding: 102 102 69
Width: 608
GlyphClass: 2
Flags: W
LayerCount: 2
Fore
SplineSet
599 1558 m 1,0,-1
 587 1485 l 1,1,2
 528 1495 528 1495 493 1495 c 0,3,4
 396 1495 396 1495 355 1445 c 0,5,6
 319 1400 319 1400 319 1309 c 2,7,-1
 319 1063 l 1,8,-1
 564 1063 l 1,9,-1
 564 993 l 1,10,-1
 319 993 l 1,11,-1
 319 37 l 1,12,-1
 239 37 l 1,13,-1
 239 993 l 1,14,-1
 46 993 l 1,15,-1
 46 1063 l 1,16,-1
 239 1063 l 1,17,-1
 239 1307 l 2,18,19
 239 1567 239 1567 493 1567 c 0,20,21
 512 1567 512 1567 599 1558 c 1,0,-1
EndSplineSet
Validated: 1
Substitution2: "'hwid' Half Widths lookup 33 subtable" f.hwid
Substitution2: "'fwid' Full Widths lookup 30 subtable" uniFF46
Substitution2: "'ital' Italics lookup 17 subtable" f.ital
AlternateSubs2: "'nalt' Alternate Annotation Forms lookup 16 subtable" uni24A1 uni24D5 glyph10612 glyph10882 glyph11155 glyph11425 glyph11694
Substitution2: "'vrt2' Vertical Rotation & Alternates lookup 5 subtable" f.vert
AlternateSubs2: "'aalt' +BBIEQQQ1 +BDAEOwRMBEIENQRABD0EMARCBDgEMgQ9BEsENQAA +BDIEMARABDgEMAQ9BEIESwAA lookup 1 per glyph data 0" f.hwid uniFF46 uni24A1 f.vert f.ital uni24D5 glyph10612 glyph10882 glyph11155 glyph11425 glyph11694
EndChar

StartChar: g
Encoding: 103 103 70
Width: 1047
GlyphClass: 2
Flags: W
LayerCount: 2
Fore
SplineSet
979 1178 m 1,0,-1
 971 1094 l 1,1,2
 889 1094 889 1094 836 1071 c 0,3,4
 789 1051 789 1051 743 1004 c 1,5,6
 860 907 860 907 860 745 c 0,7,8
 860 576 860 576 744 480 c 0,9,10
 648 401 648 401 508 401 c 0,11,12
 410 401 410 401 330 444 c 1,13,14
 221 380 221 380 221 321 c 0,15,16
 221 272 221 272 269 252 c 0,17,18
 320 229 320 229 467 213 c 2,19,-1
 643 192 l 2,20,21
 849 169 849 169 923 102 c 0,22,23
 979 50 979 50 979 -50 c 0,24,25
 979 -178 979 -178 851 -252 c 0,26,27
 730 -322 730 -322 526 -322 c 0,28,29
 307 -322 307 -322 189 -243 c 0,30,31
 88 -176 88 -176 88 -66 c 0,32,33
 88 96 88 96 307 164 c 1,34,35
 143 188 143 188 143 305 c 0,36,37
 143 397 143 397 276 479 c 1,38,39
 156 577 156 577 156 742 c 0,40,41
 156 908 156 908 274 1005 c 0,42,43
 372 1086 372 1086 510 1086 c 0,44,45
 613 1086 613 1086 694 1038 c 1,46,47
 804 1178 804 1178 979 1178 c 1,0,-1
510 1020 m 0,48,49
 388 1020 388 1020 309 939 c 0,50,51
 236 863 236 863 236 744 c 0,52,53
 236 607 236 607 329 529 c 0,54,55
 403 467 403 467 508 467 c 0,56,57
 632 467 632 467 708 547 c 0,58,59
 780 622 780 622 780 744 c 0,60,61
 780 882 780 882 689 958 c 0,62,63
 616 1020 616 1020 510 1020 c 0,48,49
397 145 m 1,64,65
 168 81 168 81 168 -56 c 0,66,67
 168 -161 168 -161 283 -215 c 0,68,69
 377 -259 377 -259 526 -259 c 0,70,71
 713 -259 713 -259 815 -191 c 0,72,73
 899 -135 899 -135 899 -52 c 0,74,75
 899 27 899 27 837 64 c 0,76,77
 772 103 772 103 614 121 c 2,78,-1
 397 145 l 1,64,65
EndSplineSet
Validated: 1
Substitution2: "'hwid' Half Widths lookup 33 subtable" g.hwid
Substitution2: "'fwid' Full Widths lookup 30 subtable" uniFF47
Substitution2: "'ital' Italics lookup 17 subtable" g.ital
AlternateSubs2: "'nalt' Alternate Annotation Forms lookup 16 subtable" uni24A2 uni24D6 glyph10613 glyph10883 glyph11156 glyph11426 glyph11695
Substitution2: "'vrt2' Vertical Rotation & Alternates lookup 5 subtable" g.vert
AlternateSubs2: "'aalt' +BBIEQQQ1 +BDAEOwRMBEIENQRABD0EMARCBDgEMgQ9BEsENQAA +BDIEMARABDgEMAQ9BEIESwAA lookup 1 per glyph data 0" g.hwid uniFF47 uni74E6 glyph7591 glyph7946 uni3318 uni24A2 uni210A uni3318.vert g.vert g.ital uni24D6 glyph10613 glyph10883 glyph11156 glyph11426 glyph11695 uni0261
EndChar

StartChar: h
Encoding: 104 104 71
Width: 1106
GlyphClass: 2
Flags: W
LayerCount: 2
Fore
SplineSet
268 1571 m 1,0,-1
 268 860 l 1,1,2
 460 1086 460 1086 649 1086 c 0,3,4
 782 1086 782 1086 857 1000 c 0,5,6
 923 926 923 926 923 807 c 2,7,-1
 923 37 l 1,8,-1
 843 37 l 1,9,-1
 843 758 l 2,10,11
 843 1010 843 1010 638 1010 c 0,12,13
 456 1010 456 1010 268 778 c 1,14,-1
 268 37 l 1,15,-1
 188 37 l 1,16,-1
 188 1571 l 1,17,-1
 268 1571 l 1,0,-1
EndSplineSet
Validated: 1
Substitution2: "'hwid' Half Widths lookup 33 subtable" h.hwid
Substitution2: "'fwid' Full Widths lookup 30 subtable" uniFF48
Substitution2: "'ital' Italics lookup 17 subtable" h.ital
AlternateSubs2: "'nalt' Alternate Annotation Forms lookup 16 subtable" uni24A3 uni24D7 glyph10614 glyph10884 glyph11157 glyph11427 glyph11696
Substitution2: "'vrt2' Vertical Rotation & Alternates lookup 5 subtable" h.vert
AlternateSubs2: "'aalt' +BBIEQQQ1 +BDAEOwRMBEIENQRABD0EMARCBDgEMgQ9BEsENQAA +BDIEMARABDgEMAQ9BEIESwAA lookup 1 per glyph data 0" h.hwid uniFF48 uni24A3 h.vert h.ital uni24D7 glyph10614 glyph10884 glyph11157 glyph11427 glyph11696 uni02B0
EndChar

StartChar: i
Encoding: 105 105 72
Width: 457
GlyphClass: 2
Flags: W
LayerCount: 2
Fore
SplineSet
269 1063 m 1,0,-1
 269 37 l 1,1,-1
 189 37 l 1,2,-1
 189 1063 l 1,3,-1
 269 1063 l 1,0,-1
293 1425 m 1,4,-1
 293 1288 l 1,5,-1
 164 1288 l 1,6,-1
 164 1425 l 1,7,-1
 293 1425 l 1,4,-1
EndSplineSet
Validated: 1
Substitution2: "'hwid' Half Widths lookup 33 subtable" i.hwid
Substitution2: "'fwid' Full Widths lookup 30 subtable" uniFF49
Substitution2: "'ital' Italics lookup 17 subtable" i.ital
AlternateSubs2: "'nalt' Alternate Annotation Forms lookup 16 subtable" uni24A4 uni24D8 glyph10615 glyph10885 glyph11158 glyph11428 glyph11697
Substitution2: "'vrt2' Vertical Rotation & Alternates lookup 5 subtable" i.vert
AlternateSubs2: "'aalt' +BBIEQQQ1 +BDAEOwRMBEIENQRABD0EMARCBDgEMgQ9BEsENQAA +BDIEMARABDgEMAQ9BEIESwAA lookup 1 per glyph data 0" i.hwid uniFF49 uni24A4 i.vert i.ital uni24D8 glyph10615 glyph10885 glyph11158 glyph11428 glyph11697
EndChar

StartChar: j
Encoding: 106 106 73
Width: 535
GlyphClass: 2
Flags: W
LayerCount: 2
Fore
SplineSet
324 1063 m 1,0,-1
 324 -49 l 2,1,2
 324 -183 324 -183 241 -258 c 0,3,4
 169 -322 169 -322 55 -322 c 0,5,6
 44 -322 44 -322 8 -317 c 1,7,-1
 0 -248 l 1,8,9
 45 -253 45 -253 55 -253 c 0,10,11
 244 -253 244 -253 244 -29 c 2,12,-1
 244 1063 l 1,13,-1
 324 1063 l 1,0,-1
350 1425 m 1,14,-1
 350 1288 l 1,15,-1
 221 1288 l 1,16,-1
 221 1425 l 1,17,-1
 350 1425 l 1,14,-1
EndSplineSet
Validated: 1
Substitution2: "'hwid' Half Widths lookup 33 subtable" j.hwid
Substitution2: "'fwid' Full Widths lookup 30 subtable" uniFF4A
Substitution2: "'ital' Italics lookup 17 subtable" j.ital
AlternateSubs2: "'nalt' Alternate Annotation Forms lookup 16 subtable" uni24A5 uni24D9 glyph10616 glyph10886 glyph11159 glyph11429 glyph11698
Substitution2: "'vrt2' Vertical Rotation & Alternates lookup 5 subtable" j.vert
AlternateSubs2: "'aalt' +BBIEQQQ1 +BDAEOwRMBEIENQRABD0EMARCBDgEMgQ9BEsENQAA +BDIEMARABDgEMAQ9BEIESwAA lookup 1 per glyph data 0" j.hwid uniFF4A uni24A5 j.vert j.ital uni24D9 glyph10616 glyph10886 glyph11159 glyph11429 glyph11698 uni02B2
EndChar

StartChar: k
Encoding: 107 107 74
Width: 993
GlyphClass: 2
Flags: W
LayerCount: 2
Fore
SplineSet
913 1063 m 1,0,-1
 542 672 l 1,1,-1
 948 37 l 1,2,-1
 850 37 l 1,3,-1
 489 614 l 1,4,-1
 268 381 l 1,5,-1
 268 37 l 1,6,-1
 188 37 l 1,7,-1
 188 1571 l 1,8,-1
 268 1571 l 1,9,-1
 268 469 l 1,10,-1
 811 1063 l 1,11,-1
 913 1063 l 1,0,-1
EndSplineSet
Validated: 1
Substitution2: "'hwid' Half Widths lookup 33 subtable" k.hwid
Substitution2: "'fwid' Full Widths lookup 30 subtable" uniFF4B
Substitution2: "'ital' Italics lookup 17 subtable" k.ital
AlternateSubs2: "'nalt' Alternate Annotation Forms lookup 16 subtable" uni24A6 uni24DA glyph10617 glyph10887 glyph11160 glyph11430 glyph11699
Substitution2: "'vrt2' Vertical Rotation & Alternates lookup 5 subtable" k.vert
AlternateSubs2: "'aalt' +BBIEQQQ1 +BDAEOwRMBEIENQRABD0EMARCBDgEMgQ9BEsENQAA +BDIEMARABDgEMAQ9BEIESwAA lookup 1 per glyph data 0" k.hwid uniFF4B uni24A6 k.vert k.ital uni24DA glyph10617 glyph10887 glyph11160 glyph11430 glyph11699
EndChar

StartChar: l
Encoding: 108 108 75
Width: 457
GlyphClass: 2
Flags: W
LayerCount: 2
Fore
SplineSet
268 1571 m 1,0,-1
 268 37 l 1,1,-1
 188 37 l 1,2,-1
 188 1571 l 1,3,-1
 268 1571 l 1,0,-1
EndSplineSet
Validated: 1
Substitution2: "'hwid' Half Widths lookup 33 subtable" l.hwid
Substitution2: "'fwid' Full Widths lookup 30 subtable" uniFF4C
Substitution2: "'ital' Italics lookup 17 subtable" l.ital
AlternateSubs2: "'nalt' Alternate Annotation Forms lookup 16 subtable" uni24A7 uni24DB glyph10618 glyph10888 glyph11161 glyph11431 glyph11700
Substitution2: "'vrt2' Vertical Rotation & Alternates lookup 5 subtable" l.vert
AlternateSubs2: "'aalt' +BBIEQQQ1 +BDAEOwRMBEIENQRABD0EMARCBDgEMgQ9BEsENQAA +BDIEMARABDgEMAQ9BEIESwAA lookup 1 per glyph data 0" l.hwid uniFF4C uni24A7 l.vert l.ital uni24DB glyph10618 glyph10888 glyph11161 glyph11431 glyph11700 uni02E1
EndChar

StartChar: m
Encoding: 109 109 76
Width: 1686
GlyphClass: 2
Flags: W
LayerCount: 2
Fore
SplineSet
266 1063 m 1,0,-1
 266 858 l 1,1,2
 439 1086 439 1086 618 1086 c 0,3,4
 730 1086 730 1086 805 1017 c 0,5,6
 872 955 872 955 880 860 c 1,7,8
 1051 1086 1051 1086 1232 1086 c 0,9,10
 1363 1086 1363 1086 1438 1000 c 0,11,12
 1503 925 1503 925 1503 807 c 2,13,-1
 1503 37 l 1,14,-1
 1423 37 l 1,15,-1
 1423 758 l 2,16,17
 1423 1010 1423 1010 1222 1010 c 0,18,19
 1130 1010 1130 1010 1034 939 c 0,20,21
 952 879 952 879 884 778 c 1,22,-1
 884 37 l 1,23,-1
 804 37 l 1,24,-1
 804 758 l 2,25,26
 804 1010 804 1010 608 1010 c 0,27,28
 424 1010 424 1010 268 778 c 1,29,-1
 268 37 l 1,30,-1
 188 37 l 1,31,-1
 188 1063 l 1,32,-1
 266 1063 l 1,0,-1
EndSplineSet
Validated: 1
Substitution2: "'hwid' Half Widths lookup 33 subtable" m.hwid
Substitution2: "'fwid' Full Widths lookup 30 subtable" uniFF4D
Substitution2: "'ital' Italics lookup 17 subtable" m.ital
AlternateSubs2: "'nalt' Alternate Annotation Forms lookup 16 subtable" uni24A8 uni24DC glyph10619 glyph10889 glyph11162 glyph11432 glyph11701
Substitution2: "'vrt2' Vertical Rotation & Alternates lookup 5 subtable" m.vert
AlternateSubs2: "'aalt' +BBIEQQQ1 +BDAEOwRMBEIENQRABD0EMARCBDgEMgQ9BEsENQAA +BDIEMARABDgEMAQ9BEIESwAA lookup 1 per glyph data 0" m.hwid uniFF4D uni7C73 uni334D uni33A1 uni334D.vert uni33A5 uni24A8 uni217F m.vert m.ital uni24DC glyph10619 glyph10889 glyph11162 glyph11432 glyph11701
EndChar

StartChar: n
Encoding: 110 110 77
Width: 1106
GlyphClass: 2
Flags: W
LayerCount: 2
Fore
SplineSet
266 1063 m 1,0,-1
 266 858 l 1,1,2
 460 1086 460 1086 649 1086 c 0,3,4
 782 1086 782 1086 857 1000 c 0,5,6
 923 926 923 926 923 807 c 2,7,-1
 923 37 l 1,8,-1
 843 37 l 1,9,-1
 843 758 l 2,10,11
 843 1010 843 1010 638 1010 c 0,12,13
 456 1010 456 1010 268 778 c 1,14,-1
 268 37 l 1,15,-1
 188 37 l 1,16,-1
 188 1063 l 1,17,-1
 266 1063 l 1,0,-1
EndSplineSet
Validated: 1
Substitution2: "'hwid' Half Widths lookup 33 subtable" n.hwid
Substitution2: "'fwid' Full Widths lookup 30 subtable" uniFF4E
Substitution2: "'ital' Italics lookup 17 subtable" n.ital
AlternateSubs2: "'nalt' Alternate Annotation Forms lookup 16 subtable" uni24A9 uni24DD glyph10620 glyph10890 glyph11163 glyph11433 glyph11702
Substitution2: "'vrt2' Vertical Rotation & Alternates lookup 5 subtable" n.vert
AlternateSubs2: "'aalt' +BBIEQQQ1 +BDAEOwRMBEIENQRABD0EMARCBDgEMgQ9BEsENQAA +BDIEMARABDgEMAQ9BEIESwAA lookup 1 per glyph data 0" n.hwid uniFF4E uni24A9 n.vert n.ital uni24DD glyph10620 glyph10890 glyph11163 glyph11433 glyph11702 uni207F
EndChar

StartChar: o
Encoding: 111 111 78
Width: 1061
GlyphClass: 2
Flags: W
LayerCount: 2
Fore
SplineSet
531 1086 m 0,0,1
 725 1086 725 1086 840 924 c 0,2,3
 942 780 942 780 942 553 c 0,4,5
 942 292 942 292 810 142 c 0,6,7
 698 14 698 14 531 14 c 0,8,9
 335 14 335 14 221 177 c 0,10,11
 119 321 119 321 119 549 c 0,12,13
 119 810 119 810 251 959 c 0,14,15
 362 1086 362 1086 531 1086 c 0,0,1
531 1016 m 0,16,17
 371 1016 371 1016 282 878 c 0,18,19
 201 754 201 754 201 551 c 0,20,21
 201 318 201 318 305 191 c 0,22,23
 393 84 393 84 531 84 c 0,24,25
 689 84 689 84 779 223 c 0,26,27
 860 348 860 348 860 551 c 0,28,29
 860 783 860 783 756 909 c 0,30,31
 669 1016 669 1016 531 1016 c 0,16,17
EndSplineSet
Validated: 1
Substitution2: "'hwid' Half Widths lookup 33 subtable" o.hwid
Substitution2: "'fwid' Full Widths lookup 30 subtable" uniFF4F
Substitution2: "'ital' Italics lookup 17 subtable" o.ital
AlternateSubs2: "'nalt' Alternate Annotation Forms lookup 16 subtable" uni24AA uni24DE glyph10621 glyph10891 glyph11164 glyph11434 glyph11703
Substitution2: "'vrt2' Vertical Rotation & Alternates lookup 5 subtable" o.vert
AlternateSubs2: "'aalt' +BBIEQQQ1 +BDAEOwRMBEIENQRABD0EMARCBDgEMgQ9BEsENQAA +BDIEMARABDgEMAQ9BEIESwAA lookup 1 per glyph data 0" o.hwid uniFF4F uni24AA o.vert o.ital uni24DE glyph10621 glyph10891 glyph11164 glyph11434 glyph11703
EndChar

StartChar: p
Encoding: 112 112 79
Width: 1106
GlyphClass: 2
Flags: W
LayerCount: 2
Fore
SplineSet
266 1063 m 1,0,-1
 266 887 l 1,1,2
 331 988 331 988 423 1041 c 0,3,4
 502 1086 502 1086 585 1086 c 0,5,6
 775 1086 775 1086 887 923 c 0,7,8
 987 778 987 778 987 551 c 0,9,10
 987 291 987 291 854 141 c 0,11,12
 741 14 741 14 575 14 c 0,13,14
 388 14 388 14 268 209 c 1,15,-1
 268 -322 l 1,16,-1
 188 -322 l 1,17,-1
 188 1063 l 1,18,-1
 266 1063 l 1,0,-1
268 793 m 1,19,-1
 268 297 l 1,20,21
 344 176 344 176 422 127 c 0,22,23
 489 86 489 86 573 86 c 0,24,25
 729 86 729 86 821 224 c 0,26,27
 905 350 905 350 905 551 c 0,28,29
 905 781 905 781 803 907 c 0,30,31
 718 1012 718 1012 585 1012 c 0,32,33
 394 1012 394 1012 268 793 c 1,19,-1
EndSplineSet
Validated: 1
Substitution2: "'hwid' Half Widths lookup 33 subtable" p.hwid
Substitution2: "'fwid' Full Widths lookup 30 subtable" uniFF50
Substitution2: "'ital' Italics lookup 17 subtable" p.ital
AlternateSubs2: "'nalt' Alternate Annotation Forms lookup 16 subtable" uni24AB uni24DF glyph10622 glyph10892 glyph11165 glyph11435 glyph11704
Substitution2: "'vrt2' Vertical Rotation & Alternates lookup 5 subtable" p.vert
AlternateSubs2: "'aalt' +BBIEQQQ1 +BDAEOwRMBEIENQRABD0EMARCBDgEMgQ9BEsENQAA +BDIEMARABDgEMAQ9BEIESwAA lookup 1 per glyph data 0" p.hwid uniFF50 uni24AB p.vert p.ital uni24DF glyph10622 glyph10892 glyph11165 glyph11435 glyph11704
EndChar

StartChar: q
Encoding: 113 113 80
Width: 1106
GlyphClass: 2
Flags: W
LayerCount: 2
Fore
SplineSet
918 1063 m 1,0,-1
 918 -322 l 1,1,-1
 838 -322 l 1,2,-1
 838 205 l 1,3,4
 719 14 719 14 529 14 c 0,5,6
 337 14 337 14 222 178 c 0,7,8
 119 324 119 324 119 551 c 0,9,10
 119 812 119 812 248 960 c 0,11,12
 356 1086 356 1086 521 1086 c 0,13,14
 712 1086 712 1086 838 895 c 1,15,-1
 852 1063 l 1,16,-1
 918 1063 l 1,0,-1
838 793 m 1,17,18
 714 1012 714 1012 521 1012 c 0,19,20
 367 1012 367 1012 280 875 c 0,21,22
 201 752 201 752 201 551 c 0,23,24
 201 320 201 320 308 193 c 0,25,26
 398 86 398 86 533 86 c 0,27,28
 708 86 708 86 838 297 c 1,29,-1
 838 793 l 1,17,18
EndSplineSet
Validated: 1
Substitution2: "'hwid' Half Widths lookup 33 subtable" q.hwid
Substitution2: "'fwid' Full Widths lookup 30 subtable" uniFF51
Substitution2: "'ital' Italics lookup 17 subtable" q.ital
AlternateSubs2: "'nalt' Alternate Annotation Forms lookup 16 subtable" uni24AC uni24E0 glyph10623 glyph10893 glyph11166 glyph11436 glyph11705
Substitution2: "'vrt2' Vertical Rotation & Alternates lookup 5 subtable" q.vert
AlternateSubs2: "'aalt' +BBIEQQQ1 +BDAEOwRMBEIENQRABD0EMARCBDgEMgQ9BEsENQAA +BDIEMARABDgEMAQ9BEIESwAA lookup 1 per glyph data 0" q.hwid uniFF51 uni24AC q.vert q.ital uni24E0 glyph10623 glyph10893 glyph11166 glyph11436 glyph11705
EndChar

StartChar: r
Encoding: 114 114 81
Width: 668
GlyphClass: 2
Flags: W
LayerCount: 2
Fore
SplineSet
622 1086 m 1,0,-1
 616 1006 l 1,1,2
 501 1006 501 1006 403 904 c 0,3,4
 312 809 312 809 268 655 c 1,5,-1
 268 37 l 1,6,-1
 188 37 l 1,7,-1
 188 1063 l 1,8,-1
 266 1063 l 1,9,-1
 266 787 l 1,10,11
 326 940 326 940 434 1020 c 0,12,13
 523 1086 523 1086 622 1086 c 1,0,-1
EndSplineSet
Validated: 1
Substitution2: "'hwid' Half Widths lookup 33 subtable" r.hwid
Substitution2: "'fwid' Full Widths lookup 30 subtable" uniFF52
Substitution2: "'ital' Italics lookup 17 subtable" r.ital
AlternateSubs2: "'nalt' Alternate Annotation Forms lookup 16 subtable" uni24AD uni24E1 glyph10624 glyph10894 glyph11167 glyph11437 glyph11706
Substitution2: "'vrt2' Vertical Rotation & Alternates lookup 5 subtable" r.vert
AlternateSubs2: "'aalt' +BBIEQQQ1 +BDAEOwRMBEIENQRABD0EMARCBDgEMgQ9BEsENQAA +BDIEMARABDgEMAQ9BEIESwAA lookup 1 per glyph data 0" r.hwid uniFF52 uni24AD r.vert r.ital uni24E1 glyph10624 glyph10894 glyph11167 glyph11437 glyph11706
EndChar

StartChar: s
Encoding: 115 115 82
Width: 969
GlyphClass: 2
Flags: W
LayerCount: 2
Fore
SplineSet
823 854 m 1,0,-1
 747 821 l 1,1,2
 677 1018 677 1018 475 1018 c 0,3,4
 343 1018 343 1018 274 959 c 0,5,6
 215 909 215 909 215 825 c 0,7,8
 215 729 215 729 272 684 c 0,9,10
 324 644 324 644 454 617 c 2,11,-1
 532 600 l 2,12,13
 720 560 720 560 790 490 c 0,14,15
 854 426 854 426 854 305 c 0,16,17
 854 171 854 171 752 91 c 0,18,19
 653 14 653 14 485 14 c 0,20,21
 342 14 342 14 238 85 c 0,22,23
 146 149 146 149 102 258 c 1,24,-1
 178 293 l 1,25,26
 254 82 254 82 485 82 c 0,27,28
 640 82 640 82 715 157 c 0,29,30
 772 213 772 213 772 299 c 0,31,32
 772 407 772 407 716 454 c 0,33,34
 661 500 661 500 514 531 c 2,35,-1
 436 547 l 2,36,37
 255 585 255 585 188 659 c 0,38,39
 135 718 135 718 135 822 c 0,40,41
 135 945 135 945 229 1017 c 0,42,43
 319 1086 319 1086 475 1086 c 0,44,45
 723 1086 723 1086 823 854 c 1,0,-1
EndSplineSet
Validated: 1
Substitution2: "'hwid' Half Widths lookup 33 subtable" s.hwid
Substitution2: "'fwid' Full Widths lookup 30 subtable" uniFF53
Substitution2: "'ital' Italics lookup 17 subtable" s.ital
AlternateSubs2: "'nalt' Alternate Annotation Forms lookup 16 subtable" uni24AE uni24E2 glyph10625 glyph10895 glyph11168 glyph11438 glyph11707
Substitution2: "'vrt2' Vertical Rotation & Alternates lookup 5 subtable" s.vert
AlternateSubs2: "'aalt' +BBIEQQQ1 +BDAEOwRMBEIENQRABD0EMARCBDgEMgQ9BEsENQAA +BDIEMARABDgEMAQ9BEIESwAA lookup 1 per glyph data 0" s.hwid uniFF53 uni24AE s.vert s.ital uni24E2 glyph10625 glyph10895 glyph11168 glyph11438 glyph11707
EndChar

StartChar: t
Encoding: 116 116 83
Width: 608
GlyphClass: 2
Flags: W
LayerCount: 2
Fore
SplineSet
303 1440 m 1,0,-1
 303 1063 l 1,1,-1
 563 1063 l 1,2,-1
 563 993 l 1,3,-1
 303 993 l 1,4,-1
 303 270 l 2,5,6
 303 80 303 80 465 80 c 0,7,8
 535 80 535 80 598 94 c 1,9,-1
 592 23 l 1,10,11
 527 10 527 10 465 10 c 0,12,13
 342 10 342 10 280 80 c 0,14,15
 223 144 223 144 223 258 c 2,16,-1
 223 993 l 1,17,-1
 45 993 l 1,18,-1
 45 1063 l 1,19,-1
 223 1063 l 1,20,-1
 223 1421 l 1,21,-1
 303 1440 l 1,0,-1
EndSplineSet
Validated: 1
Substitution2: "'hwid' Half Widths lookup 33 subtable" t.hwid
Substitution2: "'fwid' Full Widths lookup 30 subtable" uniFF54
Substitution2: "'ital' Italics lookup 17 subtable" t.ital
AlternateSubs2: "'nalt' Alternate Annotation Forms lookup 16 subtable" uni24AF uni24E3 glyph10626 glyph10896 glyph11169 glyph11439 glyph11708
Substitution2: "'vrt2' Vertical Rotation & Alternates lookup 5 subtable" t.vert
AlternateSubs2: "'aalt' +BBIEQQQ1 +BDAEOwRMBEIENQRABD0EMARCBDgEMgQ9BEsENQAA +BDIEMARABDgEMAQ9BEIESwAA lookup 1 per glyph data 0" t.hwid uniFF54 uni24AF t.vert t.ital uni24E3 glyph10626 glyph10896 glyph11169 glyph11439 glyph11708
EndChar

StartChar: u
Encoding: 117 117 84
Width: 1106
GlyphClass: 2
Flags: W
LayerCount: 2
Fore
SplineSet
917 1063 m 1,0,-1
 917 37 l 1,1,-1
 839 37 l 1,2,-1
 839 246 l 1,3,4
 765 134 765 134 651 70 c 0,5,6
 553 14 553 14 458 14 c 0,7,8
 327 14 327 14 251 95 c 0,9,10
 182 169 182 169 182 293 c 2,11,-1
 182 1063 l 1,12,-1
 262 1063 l 1,13,-1
 262 322 l 2,14,15
 262 90 262 90 473 90 c 0,16,17
 573 90 573 90 680 163 c 0,18,19
 773 227 773 227 837 326 c 1,20,-1
 837 1063 l 1,21,-1
 917 1063 l 1,0,-1
EndSplineSet
Validated: 1
Substitution2: "'hwid' Half Widths lookup 33 subtable" u.hwid
Substitution2: "'fwid' Full Widths lookup 30 subtable" uniFF55
Substitution2: "'ital' Italics lookup 17 subtable" u.ital
AlternateSubs2: "'nalt' Alternate Annotation Forms lookup 16 subtable" uni24B0 uni24E4 glyph10627 glyph10897 glyph11170 glyph11440 glyph11709
Substitution2: "'vrt2' Vertical Rotation & Alternates lookup 5 subtable" u.vert
AlternateSubs2: "'aalt' +BBIEQQQ1 +BDAEOwRMBEIENQRABD0EMARCBDgEMgQ9BEsENQAA +BDIEMARABDgEMAQ9BEIESwAA lookup 1 per glyph data 0" u.hwid uniFF55 uni24B0 u.vert u.ital uni24E4 glyph10627 glyph10897 glyph11170 glyph11440 glyph11709
EndChar

StartChar: v
Encoding: 118 118 85
Width: 899
GlyphClass: 2
Flags: W
LayerCount: 2
Fore
SplineSet
848 1063 m 1,0,-1
 497 37 l 1,1,-1
 401 37 l 1,2,-1
 51 1063 l 1,3,-1
 137 1063 l 1,4,-1
 375 344 l 2,5,6
 405 247 405 247 446 98 c 1,7,-1
 459 98 l 1,8,9
 513 302 513 302 530 354 c 2,10,-1
 764 1063 l 1,11,-1
 848 1063 l 1,0,-1
EndSplineSet
Validated: 1
Substitution2: "'hwid' Half Widths lookup 33 subtable" v.hwid
Substitution2: "'fwid' Full Widths lookup 30 subtable" uniFF56
Substitution2: "'ital' Italics lookup 17 subtable" v.ital
AlternateSubs2: "'nalt' Alternate Annotation Forms lookup 16 subtable" uni24B1 uni24E5 glyph10628 glyph10898 glyph11171 glyph11441 glyph11710
Substitution2: "'vrt2' Vertical Rotation & Alternates lookup 5 subtable" v.vert
AlternateSubs2: "'aalt' +BBIEQQQ1 +BDAEOwRMBEIENQRABD0EMARCBDgEMgQ9BEsENQAA +BDIEMARABDgEMAQ9BEIESwAA lookup 1 per glyph data 0" v.hwid uniFF56 uni24B1 v.vert v.ital uni24E5 glyph10628 glyph10898 glyph11171 glyph11441 glyph11710
EndChar

StartChar: w
Encoding: 119 119 86
Width: 1475
GlyphClass: 2
Flags: W
LayerCount: 2
Fore
SplineSet
1423 1063 m 1,0,-1
 1106 37 l 1,1,-1
 1009 37 l 1,2,-1
 799 750 l 2,3,4
 768 849 768 849 741 1002 c 1,5,-1
 729 1002 l 1,6,7
 696 852 696 852 667 750 c 2,8,-1
 461 37 l 1,9,-1
 364 37 l 1,10,-1
 51 1063 l 1,11,-1
 139 1063 l 1,12,-1
 346 342 l 2,13,14
 378 228 378 228 405 98 c 1,15,-1
 418 98 l 1,16,17
 445 228 445 228 477 342 c 2,18,-1
 686 1063 l 1,19,-1
 782 1063 l 1,20,-1
 993 352 l 2,21,22
 1026 245 1026 245 1052 98 c 1,23,-1
 1065 98 l 1,24,25
 1087 207 1087 207 1130 350 c 2,26,-1
 1337 1063 l 1,27,-1
 1423 1063 l 1,0,-1
EndSplineSet
Validated: 1
Substitution2: "'hwid' Half Widths lookup 33 subtable" w.hwid
Substitution2: "'fwid' Full Widths lookup 30 subtable" uniFF57
Substitution2: "'ital' Italics lookup 17 subtable" w.ital
AlternateSubs2: "'nalt' Alternate Annotation Forms lookup 16 subtable" uni24B2 uni24E6 glyph10629 glyph10899 glyph11172 glyph11442 glyph11711
Substitution2: "'vrt2' Vertical Rotation & Alternates lookup 5 subtable" w.vert
AlternateSubs2: "'aalt' +BBIEQQQ1 +BDAEOwRMBEIENQRABD0EMARCBDgEMgQ9BEsENQAA +BDIEMARABDgEMAQ9BEIESwAA lookup 1 per glyph data 0" w.hwid uniFF57 uni24B2 w.vert w.ital uni24E6 glyph10629 glyph10899 glyph11172 glyph11442 glyph11711 uni02B7
EndChar

StartChar: x
Encoding: 120 120 87
Width: 899
GlyphClass: 2
Flags: W
LayerCount: 2
Fore
SplineSet
809 1063 m 1,0,-1
 487 569 l 1,1,-1
 848 37 l 1,2,-1
 749 37 l 1,3,-1
 502 418 l 1,4,-1
 442 514 l 1,5,-1
 383 418 l 1,6,-1
 147 37 l 1,7,-1
 51 37 l 1,8,-1
 395 567 l 1,9,-1
 63 1063 l 1,10,-1
 162 1063 l 1,11,-1
 379 723 l 1,12,-1
 444 621 l 1,13,-1
 510 729 l 1,14,-1
 715 1063 l 1,15,-1
 809 1063 l 1,0,-1
EndSplineSet
Validated: 1
Substitution2: "'hwid' Half Widths lookup 33 subtable" x.hwid
Substitution2: "'fwid' Full Widths lookup 30 subtable" uniFF58
Substitution2: "'ital' Italics lookup 17 subtable" x.ital
AlternateSubs2: "'nalt' Alternate Annotation Forms lookup 16 subtable" uni24B3 uni24E7 glyph10630 glyph10900 glyph11173 glyph11443 glyph11712
Substitution2: "'vrt2' Vertical Rotation & Alternates lookup 5 subtable" x.vert
AlternateSubs2: "'aalt' +BBIEQQQ1 +BDAEOwRMBEIENQRABD0EMARCBDgEMgQ9BEsENQAA +BDIEMARABDgEMAQ9BEIESwAA lookup 1 per glyph data 0" x.hwid uniFF58 uni24B3 x.vert x.ital uni24E7 glyph10630 glyph10900 glyph11173 glyph11443 glyph11712
EndChar

StartChar: y
Encoding: 121 121 88
Width: 899
GlyphClass: 2
Flags: W
LayerCount: 2
Fore
SplineSet
848 1063 m 1,0,-1
 461 -19 l 2,1,2
 397 -195 397 -195 306 -265 c 0,3,4
 232 -322 232 -322 121 -322 c 0,5,6
 91 -322 91 -322 51 -315 c 1,7,-1
 43 -240 l 1,8,9
 89 -253 89 -253 123 -253 c 0,10,11
 226 -253 226 -253 289 -188 c 0,12,13
 348 -128 348 -128 397 8 c 1,14,-1
 418 59 l 1,15,-1
 51 1063 l 1,16,-1
 137 1063 l 1,17,-1
 408 305 l 2,18,19
 426 256 426 256 451 158 c 1,20,-1
 455 158 l 1,21,22
 488 266 488 266 504 309 c 2,23,-1
 764 1063 l 1,24,-1
 848 1063 l 1,0,-1
EndSplineSet
Validated: 1
Substitution2: "'hwid' Half Widths lookup 33 subtable" y.hwid
Substitution2: "'fwid' Full Widths lookup 30 subtable" uniFF59
Substitution2: "'ital' Italics lookup 17 subtable" y.ital
AlternateSubs2: "'nalt' Alternate Annotation Forms lookup 16 subtable" uni24B4 uni24E8 glyph10631 glyph10901 glyph11174 glyph11444 glyph11713
Substitution2: "'vrt2' Vertical Rotation & Alternates lookup 5 subtable" y.vert
AlternateSubs2: "'aalt' +BBIEQQQ1 +BDAEOwRMBEIENQRABD0EMARCBDgEMgQ9BEsENQAA +BDIEMARABDgEMAQ9BEIESwAA lookup 1 per glyph data 0" y.hwid uniFF59 uni24B4 y.vert y.ital uni24E8 glyph10631 glyph10901 glyph11174 glyph11444 glyph11713
EndChar

StartChar: z
Encoding: 122 122 89
Width: 850
GlyphClass: 2
Flags: W
LayerCount: 2
Fore
SplineSet
766 1063 m 1,0,-1
 766 1001 l 1,1,-1
 158 107 l 1,2,-1
 783 107 l 1,3,-1
 783 37 l 1,4,-1
 68 37 l 1,5,-1
 68 101 l 1,6,-1
 674 993 l 1,7,-1
 101 993 l 1,8,-1
 101 1063 l 1,9,-1
 766 1063 l 1,0,-1
EndSplineSet
Validated: 1
Substitution2: "'hwid' Half Widths lookup 33 subtable" z.hwid
Substitution2: "'fwid' Full Widths lookup 30 subtable" uniFF5A
Substitution2: "'ital' Italics lookup 17 subtable" z.ital
AlternateSubs2: "'nalt' Alternate Annotation Forms lookup 16 subtable" uni24B5 uni24E9 glyph10632 glyph10902 glyph11175 glyph11445 glyph11714
Substitution2: "'vrt2' Vertical Rotation & Alternates lookup 5 subtable" z.vert
AlternateSubs2: "'aalt' +BBIEQQQ1 +BDAEOwRMBEIENQRABD0EMARCBDgEMgQ9BEsENQAA +BDIEMARABDgEMAQ9BEIESwAA lookup 1 per glyph data 0" z.hwid uniFF5A uni24B5 z.vert z.ital uni24E9 glyph10632 glyph10902 glyph11175 glyph11445 glyph11714
EndChar

StartChar: braceleft
Encoding: 123 123 90
Width: 694
GlyphClass: 2
Flags: W
LayerCount: 2
Fore
SplineSet
640 1763 m 1,0,-1
 640 1712 l 1,1,2
 461 1712 461 1712 400 1653 c 0,3,4
 347 1601 347 1601 347 1472 c 2,5,-1
 347 1042 l 2,6,7
 347 851 347 851 179 778 c 1,8,9
 347 705 347 705 347 514 c 2,10,-1
 347 84 l 2,11,12
 347 -62 347 -62 418 -112 c 0,13,14
 482 -156 482 -156 640 -156 c 1,15,-1
 640 -207 l 1,16,-1
 634 -207 l 2,17,18
 419 -207 419 -207 338 -130 c 0,19,20
 267 -63 267 -63 267 86 c 2,21,-1
 267 514 l 2,22,23
 267 722 267 722 105 751 c 1,24,-1
 105 805 l 1,25,26
 267 834 267 834 267 1042 c 2,27,-1
 267 1470 l 2,28,29
 267 1639 267 1639 361 1705 c 0,30,31
 445 1763 445 1763 634 1763 c 2,32,-1
 640 1763 l 1,0,-1
EndSplineSet
Validated: 1
Substitution2: "'hwid' Half Widths lookup 33 subtable" braceleft.hwid
Substitution2: "'fwid' Full Widths lookup 30 subtable" uniFF5B
Substitution2: "'ital' Italics lookup 17 subtable" braceleft.ital
Substitution2: "'vrt2' Vertical Rotation & Alternates lookup 5 subtable" braceleft.vert
AlternateSubs2: "'aalt' +BBIEQQQ1 +BDAEOwRMBEIENQRABD0EMARCBDgEMgQ9BEsENQAA +BDIEMARABDgEMAQ9BEIESwAA lookup 1 per glyph data 0" braceleft.hwid uniFF5B uniFE37 uni23A9.vert uni23A8.vert uni23A7.vert glyph8171 uni23A7 uni23A8 uni23A9 glyph8183 braceleft.vert braceleft.ital uni23B0 uni23B1 uni23B0.vert uni23B1.vert
EndChar

StartChar: bar
Encoding: 124 124 91
Width: 694
GlyphClass: 2
Flags: W
LayerCount: 2
Fore
SplineSet
383 1722 m 1,0,-1
 383 -166 l 1,1,-1
 311 -166 l 1,2,-1
 311 1722 l 1,3,-1
 383 1722 l 1,0,-1
EndSplineSet
Validated: 1
Substitution2: "'hwid' Half Widths lookup 33 subtable" uniFFE8
Substitution2: "'fwid' Full Widths lookup 30 subtable" uniFF5C
Substitution2: "'ital' Italics lookup 17 subtable" bar.ital
Substitution2: "'vrt2' Vertical Rotation & Alternates lookup 5 subtable" bar.vert
AlternateSubs2: "'aalt' +BBIEQQQ1 +BDAEOwRMBEIENQRABD0EMARCBDgEMgQ9BEsENQAA +BDIEMARABDgEMAQ9BEIESwAA lookup 1 per glyph data 0" brokenbar uniFFE8 uniFF5C uniFF5C.vert uniFFE4 bar.vert brokenbar.ital bar.ital
EndChar

StartChar: braceright
Encoding: 125 125 92
Width: 694
GlyphClass: 2
Flags: W
LayerCount: 2
Fore
SplineSet
55 1763 m 1,0,-1
 61 1763 l 2,1,2
 275 1763 275 1763 357 1686 c 0,3,4
 428 1619 428 1619 428 1470 c 2,5,-1
 428 1042 l 2,6,7
 428 834 428 834 590 805 c 1,8,-1
 590 751 l 1,9,10
 428 722 428 722 428 514 c 2,11,-1
 428 86 l 2,12,13
 428 -84 428 -84 334 -149 c 0,14,15
 250 -207 250 -207 61 -207 c 2,16,-1
 55 -207 l 1,17,-1
 55 -156 l 1,18,19
 234 -156 234 -156 295 -97 c 0,20,21
 348 -45 348 -45 348 84 c 2,22,-1
 348 514 l 2,23,24
 348 705 348 705 516 778 c 1,25,26
 348 851 348 851 348 1042 c 2,27,-1
 348 1472 l 2,28,29
 348 1618 348 1618 277 1668 c 0,30,31
 213 1712 213 1712 55 1712 c 1,32,-1
 55 1763 l 1,0,-1
EndSplineSet
Validated: 1
Substitution2: "'hwid' Half Widths lookup 33 subtable" braceright.hwid
Substitution2: "'fwid' Full Widths lookup 30 subtable" uniFF5D
Substitution2: "'ital' Italics lookup 17 subtable" braceright.ital
Substitution2: "'vrt2' Vertical Rotation & Alternates lookup 5 subtable" braceright.vert
AlternateSubs2: "'aalt' +BBIEQQQ1 +BDAEOwRMBEIENQRABD0EMARCBDgEMgQ9BEsENQAA +BDIEMARABDgEMAQ9BEIESwAA lookup 1 per glyph data 0" braceright.hwid uniFF5D uniFE38 uni23AD.vert uni23AC.vert uni23AB.vert glyph8175 uni23AB uni23AC uni23AD glyph8179 braceright.vert braceright.ital
EndChar

StartChar: exclamdown
Encoding: 161 161 93
Width: 610
GlyphClass: 2
Flags: W
LayerCount: 2
Fore
SplineSet
362 -444 m 1,0,-1
 243 -444 l 1,1,-1
 274 643 l 1,2,-1
 335 643 l 1,3,-1
 362 -444 l 1,0,-1
381 901 m 1,4,-1
 229 901 l 1,5,-1
 229 1063 l 1,6,-1
 381 1063 l 1,7,-1
 381 901 l 1,4,-1
EndSplineSet
Validated: 1
Substitution2: "'hwid' Half Widths lookup 33 subtable" exclamdown.hwid
Substitution2: "'ital' Italics lookup 17 subtable" exclamdown.ital
Substitution2: "'vrt2' Vertical Rotation & Alternates lookup 5 subtable" exclamdown.vert
AlternateSubs2: "'aalt' +BBIEQQQ1 +BDAEOwRMBEIENQRABD0EMARCBDgEMgQ9BEsENQAA +BDIEMARABDgEMAQ9BEIESwAA lookup 1 per glyph data 0" exclamdown.hwid exclamdown.vert exclamdown.ital
EndChar

StartChar: cent
Encoding: 162 162 94
Width: 1098
GlyphClass: 2
Flags: W
LayerCount: 2
Fore
SplineSet
620 1515 m 1,0,-1
 620 1319 l 1,1,2
 742 1310 742 1310 831 1233 c 0,3,4
 913 1162 913 1162 954 1042 c 1,5,-1
 878 1012 l 1,6,7
 812 1233 812 1233 620 1249 c 1,8,-1
 620 322 l 1,9,10
 820 337 820 337 886 561 c 1,11,-1
 962 526 l 1,12,13
 863 267 863 267 620 252 c 1,14,-1
 620 35 l 1,15,-1
 557 35 l 1,16,-1
 557 252 l 1,17,18
 375 265 375 265 271 425 c 0,19,20
 178 567 178 567 178 784 c 0,21,22
 178 1032 178 1032 298 1180 c 0,23,24
 400 1306 400 1306 557 1319 c 1,25,-1
 557 1515 l 1,26,-1
 620 1515 l 1,0,-1
557 1249 m 1,27,28
 412 1234 412 1234 332 1099 c 0,29,30
 260 977 260 977 260 786 c 0,31,32
 260 567 260 567 353 441 c 0,33,34
 432 335 432 335 557 322 c 1,35,-1
 557 1249 l 1,27,28
EndSplineSet
Validated: 1
Substitution2: "'hwid' Half Widths lookup 33 subtable" cent.hwid
Substitution2: "'fwid' Full Widths lookup 30 subtable" uniFFE0
Substitution2: "'ital' Italics lookup 17 subtable" cent.ital
Substitution2: "'vrt2' Vertical Rotation & Alternates lookup 5 subtable" cent.vert
AlternateSubs2: "'aalt' +BBIEQQQ1 +BDAEOwRMBEIENQRABD0EMARCBDgEMgQ9BEsENQAA +BDIEMARABDgEMAQ9BEIESwAA lookup 1 per glyph data 0" cent.hwid uniFFE0 uni4ED9 glyph7599 glyph7954 uni3323 uni3323.vert cent.vert cent.ital
EndChar

StartChar: sterling
Encoding: 163 163 95
Width: 1098
GlyphClass: 2
Flags: W
LayerCount: 2
Fore
SplineSet
918 1231 m 1,0,-1
 840 1202 l 1,1,2
 782 1470 782 1470 508 1470 c 0,3,4
 368 1470 368 1470 282 1376 c 0,5,6
 207 1294 207 1294 207 1175 c 0,7,8
 207 1083 207 1083 240 1000 c 0,9,10
 259 950 259 950 330 817 c 0,11,12
 361 759 361 759 381 715 c 1,13,-1
 703 715 l 1,14,-1
 703 652 l 1,15,-1
 408 652 l 1,16,17
 443 561 443 561 443 449 c 0,18,19
 443 286 443 286 287 172 c 1,20,21
 303 176 303 176 316 176 c 0,22,23
 428 176 428 176 547 129 c 0,24,25
 664 84 664 84 740 84 c 0,26,27
 873 84 873 84 973 234 c 1,28,-1
 1030 178 l 1,29,30
 912 10 912 10 735 10 c 0,31,32
 642 10 642 10 520 59 c 0,33,34
 399 108 399 108 307 108 c 0,35,36
 210 108 210 108 135 37 c 1,37,-1
 94 90 l 1,38,-1
 121 109 l 1,39,40
 367 277 367 277 367 447 c 0,41,42
 367 553 367 553 326 652 c 1,43,-1
 78 652 l 1,44,-1
 78 715 l 1,45,-1
 295 715 l 1,46,-1
 266 770 l 2,47,48
 176 937 176 937 151 1008 c 0,49,50
 123 1088 123 1088 123 1180 c 0,51,52
 123 1348 123 1348 253 1454 c 0,53,54
 362 1544 362 1544 510 1544 c 0,55,56
 839 1544 839 1544 918 1231 c 1,0,-1
EndSplineSet
Validated: 1
Substitution2: "'hwid' Half Widths lookup 33 subtable" sterling.hwid
Substitution2: "'fwid' Full Widths lookup 30 subtable" uniFFE1
Substitution2: "'ital' Italics lookup 17 subtable" sterling.ital
Substitution2: "'vrt2' Vertical Rotation & Alternates lookup 5 subtable" sterling.vert
AlternateSubs2: "'aalt' +BBIEQQQ1 +BDAEOwRMBEIENQRABD0EMARCBDgEMgQ9BEsENQAA +BDIEMARABDgEMAQ9BEIESwAA lookup 1 per glyph data 0" sterling.hwid uniFFE1 uni78C5 sterling.vert sterling.ital uni3340 uni3340.vert
EndChar

StartChar: currency
Encoding: 164 164 96
Width: 1118
GlyphClass: 2
Flags: W
LayerCount: 2
Fore
SplineSet
996 1188 m 1,0,-1
 873 1063 l 1,1,2
 969 951 969 951 969 795 c 0,3,4
 969 644 969 644 873 528 c 1,5,-1
 1000 401 l 1,6,-1
 955 354 l 1,7,-1
 828 483 l 1,8,9
 712 381 712 381 555 381 c 0,10,11
 407 381 407 381 287 481 c 1,12,-1
 162 356 l 1,13,-1
 115 401 l 1,14,-1
 240 526 l 1,15,16
 142 644 142 644 142 795 c 0,17,18
 142 944 142 944 242 1065 c 1,19,-1
 119 1188 l 1,20,-1
 166 1233 l 1,21,-1
 289 1110 l 1,22,23
 407 1208 407 1208 555 1208 c 0,24,25
 708 1208 708 1208 826 1110 c 1,26,-1
 949 1235 l 1,27,-1
 996 1188 l 1,0,-1
555 1147 m 0,28,29
 401 1147 401 1147 296 1030 c 0,30,31
 205 929 205 929 205 794 c 0,32,33
 205 639 205 639 321 533 c 0,34,35
 421 442 421 442 555 442 c 0,36,37
 710 442 710 442 815 559 c 0,38,39
 906 660 906 660 906 794 c 0,40,41
 906 950 906 950 790 1055 c 0,42,43
 689 1147 689 1147 555 1147 c 0,28,29
EndSplineSet
Validated: 513
Substitution2: "'fwid' Full Widths lookup 30 subtable" currency.fwid
Substitution2: "'ital' Italics lookup 17 subtable" currency.ital
Substitution2: "'vrt2' Vertical Rotation & Alternates lookup 5 subtable" currency.vert
AlternateSubs2: "'aalt' +BBIEQQQ1 +BDAEOwRMBEIENQRABD0EMARCBDgEMgQ9BEsENQAA +BDIEMARABDgEMAQ9BEIESwAA lookup 1 per glyph data 0" currency.vert currency.ital currency.fwid
EndChar

StartChar: brokenbar
Encoding: 166 166 97
Width: 694
GlyphClass: 2
Flags: W
LayerCount: 2
Fore
SplineSet
383 1722 m 1,0,-1
 383 954 l 1,1,-1
 311 954 l 1,2,-1
 311 1722 l 1,3,-1
 383 1722 l 1,0,-1
383 588 m 1,4,-1
 383 -166 l 1,5,-1
 311 -166 l 1,6,-1
 311 588 l 1,7,-1
 383 588 l 1,4,-1
EndSplineSet
Validated: 1
Substitution2: "'hwid' Half Widths lookup 33 subtable" uniFFE8
Substitution2: "'fwid' Full Widths lookup 30 subtable" uniFFE4
Substitution2: "'ital' Italics lookup 17 subtable" brokenbar.ital
Substitution2: "'vrt2' Vertical Rotation & Alternates lookup 5 subtable" brokenbar.vert
AlternateSubs2: "'aalt' +BBIEQQQ1 +BDAEOwRMBEIENQRABD0EMARCBDgEMgQ9BEsENQAA +BDIEMARABDgEMAQ9BEIESwAA lookup 1 per glyph data 0" bar uniFFE8 uniFF5C uniFF5C.vert uniFFE4 brokenbar.vert brokenbar.ital bar.ital
EndChar

StartChar: section
Encoding: 167 167 98
Width: 2048
GlyphClass: 2
Flags: W
LayerCount: 2
Fore
SplineSet
1380 1475 m 1,0,-1
 1304 1442 l 1,1,2
 1267 1546 1267 1546 1187 1599 c 0,3,4
 1120 1644 1120 1644 1034 1644 c 0,5,6
 912 1644 912 1644 845 1576 c 0,7,8
 790 1520 790 1520 790 1437 c 0,9,10
 790 1332 790 1332 844 1272 c 0,11,12
 892 1219 892 1219 1019 1157 c 2,13,-1
 1179 1079 l 2,14,15
 1364 989 1364 989 1426 905 c 0,16,17
 1474 840 1474 840 1474 741 c 0,18,19
 1474 630 1474 630 1397 552 c 0,20,21
 1330 485 1330 485 1220 461 c 1,22,23
 1307 395 1307 395 1339 319 c 0,24,25
 1366 256 1366 256 1366 162 c 0,26,27
 1366 16 1366 16 1258 -75 c 0,28,29
 1164 -154 1164 -154 1026 -154 c 0,30,31
 895 -154 895 -154 800 -84 c 0,32,33
 715 -21 715 -21 671 90 c 1,34,-1
 747 125 l 1,35,36
 824 -86 824 -86 1026 -86 c 0,37,38
 1149 -86 1149 -86 1222 -7 c 0,39,40
 1284 60 1284 60 1284 156 c 0,41,42
 1284 276 1284 276 1227 347 c 0,43,44
 1173 413 1173 413 1040 481 c 2,45,-1
 856 575 l 2,46,47
 688 661 688 661 626 744 c 0,48,49
 573 816 573 816 573 918 c 0,50,51
 573 1022 573 1022 653 1096 c 0,52,53
 719 1158 719 1158 829 1186 c 1,54,55
 710 1280 710 1280 710 1434 c 0,56,57
 710 1562 710 1562 807 1641 c 0,58,59
 895 1712 895 1712 1034 1712 c 0,60,61
 1280 1712 1280 1712 1380 1475 c 1,0,-1
890 1143 m 1,62,63
 779 1126 779 1126 714 1062 c 0,64,65
 653 1003 653 1003 653 922 c 0,66,67
 653 826 653 826 711 763 c 0,68,69
 760 709 760 709 876 649 c 2,70,-1
 1062 555 l 2,71,72
 1117 528 1117 528 1153 506 c 1,73,74
 1269 521 1269 521 1335 590 c 0,75,76
 1392 651 1392 651 1392 735 c 0,77,78
 1392 823 1392 823 1337 886 c 0,79,80
 1282 947 1282 947 1157 1008 c 2,81,-1
 997 1085 l 2,82,83
 931 1118 931 1118 890 1143 c 1,62,63
EndSplineSet
Validated: 1
Substitution2: "'pwid' Proportional Width lookup 20 subtable" section.pwid
AlternateSubs2: "'aalt' +BBIEQQQ1 +BDAEOwRMBEIENQRABD0EMARCBDgEMgQ9BEsENQAA +BDIEMARABDgEMAQ9BEIESwAA lookup 1 per glyph data 0" section.pwid glyph9551
Position2: "'palt' Proportional Alternate Metrics lookup 0 per glyph data 2" dx=-373 dy=0 dh=-745 dv=0
EndChar

StartChar: dieresis
Encoding: 168 168 99
Width: 2048
GlyphClass: 2
Flags: W
LayerCount: 2
Fore
SplineSet
926 1833 m 1,0,-1
 926 1696 l 1,1,-1
 797 1696 l 1,2,-1
 797 1833 l 1,3,-1
 926 1833 l 1,0,-1
1254 1833 m 1,4,-1
 1254 1696 l 1,5,-1
 1125 1696 l 1,6,-1
 1125 1833 l 1,7,-1
 1254 1833 l 1,4,-1
EndSplineSet
Validated: 1
Substitution2: "'hwid' Half Widths lookup 33 subtable" uni0308.hwid
Substitution2: "'pwid' Proportional Width lookup 20 subtable" uni0308
AlternateSubs2: "'aalt' +BBIEQQQ1 +BDAEOwRMBEIENQRABD0EMARCBDgEMgQ9BEsENQAA +BDIEMARABDgEMAQ9BEIESwAA lookup 1 per glyph data 0" uni0308 uni0308.hwid uni0308.ital
Position2: "'palt' Proportional Alternate Metrics lookup 0 per glyph data 0" dx=-512 dy=0 dh=-1024 dv=0
EndChar

StartChar: copyright
Encoding: 169 169 100
Width: 1796
GlyphClass: 2
Flags: W
LayerCount: 2
Fore
SplineSet
1239 1024 m 1,0,-1
 1168 997 l 1,1,2
 1103 1208 1103 1208 922 1208 c 0,3,4
 786 1208 786 1208 701 1085 c 0,5,6
 623 972 623 972 623 794 c 0,7,8
 623 590 623 590 723 473 c 0,9,10
 805 377 805 377 922 377 c 0,11,12
 1117 377 1117 377 1176 594 c 1,13,-1
 1245 563 l 1,14,15
 1161 311 1161 311 922 311 c 0,16,17
 750 311 750 311 644 455 c 0,18,19
 547 586 547 586 547 792 c 0,20,21
 547 1028 547 1028 671 1163 c 0,22,23
 773 1274 773 1274 922 1274 c 0,24,25
 1043 1274 1043 1274 1129 1199 c 0,26,27
 1203 1135 1203 1135 1239 1024 c 1,0,-1
898 1569 m 256,28,29
 1110 1569 1110 1569 1292 1463 c 0,30,31
 1468 1360 1468 1360 1572 1183 c 0,32,33
 1678 1001 1678 1001 1678 788 c 0,34,35
 1678 577 1678 577 1572 395 c 0,36,37
 1468 219 1468 219 1292 116 c 0,38,39
 1110 10 1110 10 898 10 c 256,40,41
 686 10 686 10 504 116 c 0,42,43
 328 219 328 219 225 395 c 0,44,45
 119 577 119 577 119 788 c 0,46,47
 119 1001 119 1001 225 1183 c 0,48,49
 328 1359 328 1359 504 1463 c 0,50,51
 686 1569 686 1569 898 1569 c 256,28,29
898 1508 m 0,52,53
 576 1508 576 1508 364 1272 c 0,54,55
 180 1067 180 1067 180 789 c 0,56,57
 180 468 180 468 415 255 c 0,58,59
 619 72 619 72 898 72 c 0,60,61
 1219 72 1219 72 1432 307 c 0,62,63
 1617 511 1617 511 1617 789 c 0,64,65
 1617 1110 1617 1110 1380 1324 c 0,66,67
 1176 1508 1176 1508 898 1508 c 0,52,53
EndSplineSet
Validated: 1
Substitution2: "'fwid' Full Widths lookup 30 subtable" copyright.fwid
Substitution2: "'ital' Italics lookup 17 subtable" copyright.ital
Substitution2: "'vrt2' Vertical Rotation & Alternates lookup 5 subtable" copyright.vert
AlternateSubs2: "'aalt' +BBIEQQQ1 +BDAEOwRMBEIENQRABD0EMARCBDgEMgQ9BEsENQAA +BDIEMARABDgEMAQ9BEIESwAA lookup 1 per glyph data 0" copyright.fwid copyright.vert copyright.ital glyph12104 glyph12105
EndChar

StartChar: ordfeminine
Encoding: 170 170 101
Width: 696
GlyphClass: 2
Flags: W
LayerCount: 2
Fore
SplineSet
113 1411 m 1,0,1
 178 1571 178 1571 361 1571 c 0,2,3
 578 1571 578 1571 578 1358 c 2,4,-1
 578 1147 l 2,5,6
 578 1001 578 1001 594 915 c 1,7,-1
 531 915 l 1,8,9
 521 953 521 953 514 1040 c 1,10,11
 419 901 419 901 287 901 c 0,12,13
 182 901 182 901 128 960 c 0,14,15
 84 1008 84 1008 84 1083 c 0,16,17
 84 1262 84 1262 303 1298 c 0,18,19
 385 1312 385 1312 512 1319 c 1,20,-1
 512 1347 l 2,21,22
 512 1447 512 1447 471 1486 c 0,23,24
 436 1518 436 1518 361 1518 c 0,25,26
 221 1518 221 1518 177 1386 c 1,27,-1
 113 1411 l 1,0,1
512 1266 m 1,28,29
 392 1262 392 1262 312 1245 c 0,30,31
 220 1226 220 1226 183 1182 c 0,32,33
 152 1146 152 1146 152 1083 c 0,34,35
 152 1022 152 1022 192 987 c 0,36,37
 228 956 228 956 289 956 c 0,38,39
 414 956 414 956 512 1108 c 1,40,-1
 512 1266 l 1,28,29
EndSplineSet
Validated: 1
Substitution2: "'ital' Italics lookup 17 subtable" ordfeminine.ital
Substitution2: "'vrt2' Vertical Rotation & Alternates lookup 5 subtable" ordfeminine.vert
AlternateSubs2: "'aalt' +BBIEQQQ1 +BDAEOwRMBEIENQRABD0EMARCBDgEMgQ9BEsENQAA +BDIEMARABDgEMAQ9BEIESwAA lookup 1 per glyph data 0" ordfeminine.vert ordfeminine.ital glyph20322 glyph20377
EndChar

StartChar: guillemotleft
Encoding: 171 171 102
Width: 848
GlyphClass: 2
Flags: W
LayerCount: 2
Fore
SplineSet
420 567 m 1,0,-1
 420 645 l 1,1,-1
 688 950 l 1,2,-1
 746 950 l 1,3,-1
 510 608 l 1,4,-1
 746 262 l 1,5,-1
 688 262 l 1,6,-1
 420 567 l 1,0,-1
123 567 m 1,7,-1
 123 645 l 1,8,-1
 391 950 l 1,9,-1
 449 950 l 1,10,-1
 213 608 l 1,11,-1
 449 262 l 1,12,-1
 391 262 l 1,13,-1
 123 567 l 1,7,-1
EndSplineSet
Validated: 1
Substitution2: "'hwid' Half Widths lookup 33 subtable" guillemotleft.hwid
Substitution2: "'fwid' Full Widths lookup 30 subtable" uni300A
Substitution2: "'ital' Italics lookup 17 subtable" guillemotleft.ital
Substitution2: "'vrt2' Vertical Rotation & Alternates lookup 5 subtable" guillemotleft.vert
AlternateSubs2: "'aalt' +BBIEQQQ1 +BDAEOwRMBEIENQRABD0EMARCBDgEMgQ9BEsENQAA +BDIEMARABDgEMAQ9BEIESwAA lookup 1 per glyph data 0" less guilsinglleft less.hwid uni3008.hwid guillemotleft.hwid uni3008 uni300A uniFF1C uni2266 uni226A uniFE3F uniFE3D guillemotleft.vert less.ital guillemotleft.ital guilsinglleft.ital uni2272 glyph12263 glyph12265 glyph12267 glyph12269 uni2266.pwid uni226A.pwid uni2272.pwid
EndChar

StartChar: logicalnot
Encoding: 172 172 103
Width: 1417
GlyphClass: 2
Flags: W
LayerCount: 2
Fore
SplineSet
1235 188 m 1,0,-1
 1163 188 l 1,1,-1
 1163 702 l 1,2,-1
 123 702 l 1,3,-1
 123 772 l 1,4,-1
 1235 772 l 1,5,-1
 1235 188 l 1,0,-1
EndSplineSet
Validated: 1
Substitution2: "'hwid' Half Widths lookup 33 subtable" logicalnot.hwid
Substitution2: "'fwid' Full Widths lookup 30 subtable" logicalnot.fwid
Substitution2: "'ital' Italics lookup 17 subtable" logicalnot.ital
Substitution2: "'vrt2' Vertical Rotation & Alternates lookup 5 subtable" logicalnot.vert
AlternateSubs2: "'aalt' +BBIEQQQ1 +BDAEOwRMBEIENQRABD0EMARCBDgEMgQ9BEsENQAA +BDIEMARABDgEMAQ9BEIESwAA lookup 1 per glyph data 0" logicaland logicalor uniFFE2 logicalnot.fwid logicalnot.hwid logicalnot.vert logicalnot.ital logicaland.pwid logicalor.pwid
EndChar

StartChar: uni00AD
Encoding: 173 173 104
Width: 1417
GlyphClass: 2
Flags: W
LayerCount: 2
Fore
SplineSet
1273 641 m 1,0,-1
 1273 571 l 1,1,-1
 143 571 l 1,2,-1
 143 641 l 1,3,-1
 1273 641 l 1,0,-1
EndSplineSet
Validated: 1
Substitution2: "'hwid' Half Widths lookup 33 subtable" endash.hwid
Substitution2: "'fwid' Full Widths lookup 30 subtable" uniFF0D
Substitution2: "'ital' Italics lookup 17 subtable" uni00AD.ital
Substitution2: "'nalt' Alternate Annotation Forms lookup 15 subtable" uni2296
Substitution2: "'vrt2' Vertical Rotation & Alternates lookup 5 subtable" uni00AD.vert
AlternateSubs2: "'aalt' +BBIEQQQ1 +BDAEOwRMBEIENQRABD0EMARCBDgEMgQ9BEsENQAA +BDIEMARABDgEMAQ9BEIESwAA lookup 1 per glyph data 0" uni2011 endash emdash uni2011.hwid endash.hwid uni2015 uni2010 uniFF0D uniFE31 uniFE32 uni00AD.vert uni2011.ital endash.ital emdash.ital uni00AD.ital endash.qwid uni2011.qwid endash.twid uni2011.twid uni2015.hwid uni2296 uni2296.pwid endash.fwid glyph16334
EndChar

StartChar: registered
Encoding: 174 174 105
Width: 1159
GlyphClass: 2
Flags: W
LayerCount: 2
Fore
SplineSet
420 1372 m 1,0,-1
 600 1372 l 2,1,2
 786 1372 786 1372 786 1237 c 0,3,4
 786 1129 786 1129 670 1100 c 1,5,-1
 794 854 l 1,6,-1
 727 854 l 1,7,-1
 610 1096 l 1,8,9
 602 1094 602 1094 579 1094 c 2,10,-1
 479 1094 l 1,11,-1
 479 854 l 1,12,-1
 420 854 l 1,13,-1
 420 1372 l 1,0,-1
479 1321 m 1,14,-1
 479 1147 l 1,15,-1
 594 1147 l 2,16,17
 725 1147 725 1147 725 1233 c 0,18,19
 725 1321 725 1321 598 1321 c 2,20,-1
 479 1321 l 1,14,-1
580 1571 m 0,21,22
 784 1571 784 1571 922 1419 c 0,23,24
 1041 1287 1041 1287 1041 1110 c 0,25,26
 1041 906 1041 906 889 768 c 0,27,28
 757 649 757 649 580 649 c 0,29,30
 376 649 376 649 238 801 c 0,31,32
 119 933 119 933 119 1110 c 0,33,34
 119 1314 119 1314 271 1452 c 0,35,36
 403 1571 403 1571 580 1571 c 0,21,22
580 1520 m 0,37,38
 399 1520 399 1520 276 1384 c 0,39,40
 170 1267 170 1267 170 1110 c 0,41,42
 170 929 170 929 306 806 c 0,43,44
 423 700 423 700 580 700 c 0,45,46
 761 700 761 700 884 836 c 0,47,48
 990 953 990 953 990 1110 c 0,49,50
 990 1291 990 1291 854 1414 c 0,51,52
 737 1520 737 1520 580 1520 c 0,37,38
EndSplineSet
Validated: 1
Substitution2: "'fwid' Full Widths lookup 30 subtable" registered.fwid
Substitution2: "'ital' Italics lookup 17 subtable" registered.ital
Substitution2: "'vrt2' Vertical Rotation & Alternates lookup 5 subtable" registered.vert
AlternateSubs2: "'aalt' +BBIEQQQ1 +BDAEOwRMBEIENQRABD0EMARCBDgEMgQ9BEsENQAA +BDIEMARABDgEMAQ9BEIESwAA lookup 1 per glyph data 0" registered.fwid registered.vert registered.ital glyph12106 glyph12107
EndChar

StartChar: uni0304
Encoding: 175 175 106
AltUni2: 000304.ffffffff.0 000304.ffffffff.0
Width: 1024
GlyphClass: 2
Flags: W
LayerCount: 2
Fore
SplineSet
735 1389 m 1,0,-1
 735 1323 l 1,1,-1
 289 1323 l 1,2,-1
 289 1389 l 1,3,-1
 735 1389 l 1,0,-1
EndSplineSet
Validated: 1
Substitution2: "'hwid' Half Widths lookup 33 subtable" uni0304.hwid
Substitution2: "'fwid' Full Widths lookup 30 subtable" uniFFE3
Substitution2: "'ital' Italics lookup 17 subtable" uni0304.ital
Substitution2: "'vrt2' Vertical Rotation & Alternates lookup 5 subtable" uni0304.vert
AlternateSubs2: "'aalt' +BBIEQQQ1 +BDAEOwRMBEIENQRABD0EMARCBDgEMgQ9BEsENQAA +BDIEMARABDgEMAQ9BEIESwAA lookup 1 per glyph data 0" uni203E uni0304.hwid uniFFE3 uniFFE3.vert uni0304.vert uni0304.ital uni203E.ital glyph16270
EndChar

StartChar: degree
Encoding: 176 176 107
Width: 2048
GlyphClass: 2
Flags: W
LayerCount: 2
Fore
SplineSet
303 1571 m 0,0,1
 410 1571 410 1571 481 1492 c 0,2,3
 542 1424 542 1424 542 1331 c 0,4,5
 542 1224 542 1224 463 1153 c 0,6,7
 395 1092 395 1092 303 1092 c 0,8,9
 195 1092 195 1092 123 1171 c 0,10,11
 61 1239 61 1239 61 1331 c 0,12,13
 61 1438 61 1438 141 1510 c 0,14,15
 210 1571 210 1571 303 1571 c 0,0,1
303 1512 m 0,16,17
 222 1512 222 1512 168 1452 c 0,18,19
 122 1400 122 1400 122 1331 c 0,20,21
 122 1250 122 1250 181 1196 c 0,22,23
 233 1149 233 1149 303 1149 c 0,24,25
 382 1149 382 1149 435 1209 c 0,26,27
 481 1261 481 1261 481 1331 c 0,28,29
 481 1411 481 1411 422 1465 c 0,30,31
 371 1512 371 1512 303 1512 c 0,16,17
EndSplineSet
Validated: 1
Substitution2: "'pwid' Proportional Width lookup 20 subtable" degree.pwid
Substitution2: "'vrt2' Vertical Rotation & Alternates lookup 5 subtable" degree.vert
Substitution2: "'vert' Vertical Alternates lookup 4 subtable" degree.vert
AlternateSubs2: "'aalt' +BBIEQQQ1 +BDAEOwRMBEIENQRABD0EMARCBDgEMgQ9BEsENQAA +BDIEMARABDgEMAQ9BEIESwAA lookup 1 per glyph data 0" degree.pwid uni2103 uni5EA6 degree.vert uni2109 glyph9600 uni2103.hwid uni2103.pwid
Position2: "'halt' Alternative Half Widths lookup 1 per glyph data 2" dx=0 dy=0 dh=-1024 dv=0
Position2: "'palt' Proportional Alternate Metrics lookup 0 per glyph data 1" dx=0 dy=0 dh=-1024 dv=0
EndChar

StartChar: plusminus
Encoding: 177 177 108
Width: 2048
GlyphClass: 2
Flags: W
LayerCount: 2
Fore
SplineSet
1059 1448 m 1,0,-1
 1059 1008 l 1,1,-1
 1589 1008 l 1,2,-1
 1589 938 l 1,3,-1
 1059 938 l 1,4,-1
 1059 494 l 1,5,-1
 987 494 l 1,6,-1
 987 938 l 1,7,-1
 459 938 l 1,8,-1
 459 1008 l 1,9,-1
 987 1008 l 1,10,-1
 987 1448 l 1,11,-1
 1059 1448 l 1,0,-1
1589 363 m 1,12,-1
 1589 293 l 1,13,-1
 459 293 l 1,14,-1
 459 363 l 1,15,-1
 1589 363 l 1,12,-1
EndSplineSet
Validated: 1
Substitution2: "'pwid' Proportional Width lookup 20 subtable" plusminus.pwid
AlternateSubs2: "'aalt' +BBIEQQQ1 +BDAEOwRMBEIENQRABD0EMARCBDgEMgQ9BEsENQAA +BDIEMARABDgEMAQ9BEIESwAA lookup 1 per glyph data 0" plusminus.pwid glyph9601
Position2: "'vpal' Proportional Alternate Vertical Metrics lookup 3 per glyph data 102" dx=0 dy=160 dh=0 dv=-401
Position2: "'palt' Proportional Alternate Metrics lookup 0 per glyph data 2" dx=-246 dy=0 dh=-487 dv=0
EndChar

StartChar: uni00B2
Encoding: 178 178 109
Width: 686
GlyphClass: 2
Flags: W
LayerCount: 2
Fore
SplineSet
104 1497 m 1,0,1
 158 1698 158 1698 354 1698 c 0,2,3
 462 1698 462 1698 524 1638 c 0,4,5
 577 1585 577 1585 577 1504 c 0,6,7
 577 1421 577 1421 534 1363 c 0,8,9
 498 1316 498 1316 393 1231 c 0,10,11
 241 1105 241 1105 170 963 c 1,12,-1
 577 963 l 1,13,-1
 577 900 l 1,14,-1
 98 900 l 1,15,-1
 98 951 l 1,16,17
 172 1126 172 1126 346 1274 c 0,18,19
 448 1360 448 1360 475 1405 c 0,20,21
 499 1445 499 1445 499 1504 c 0,22,23
 499 1570 499 1570 455 1605 c 0,24,25
 416 1635 416 1635 352 1635 c 0,26,27
 209 1635 209 1635 174 1473 c 1,28,-1
 104 1497 l 1,0,1
EndSplineSet
Validated: 1
Substitution2: "'ital' Italics lookup 17 subtable" uni00B2.ital
Substitution2: "'vrt2' Vertical Rotation & Alternates lookup 5 subtable" uni00B2.vert
Substitution2: "+BBUENAQ4BD0EOARHBD0EMARP +BD8EPgQ0BEEEQgQwBD0EPgQyBDoEMAAA lookup 3 subtable" uni2082
AlternateSubs2: "'aalt' +BBIEQQQ1 +BDAEOwRMBEIENQRABD0EMARCBDgEMgQ9BEsENQAA +BDIEMARABDgEMAQ9BEIESwAA lookup 1 per glyph data 0" two two.hwid uniFF12 uni2461 uni2489 uni2475 uni2777 uni00B2.vert uni2082 two.ital uni00B2.ital uni2082.ital two.qwid two.twid glyph9876 glyph9888 glyph10156 glyph10166 glyph10238 glyph10508 glyph10770 glyph10771 glyph11043 glyph11044 glyph11313 glyph11314 glyph11582 glyph11583 uniFF12.ruby uni24F6 uni2674 glyph20593 glyph20653 glyph20753 glyph20903 glyph20913
EndChar

StartChar: uni00B3
Encoding: 179 179 110
Width: 686
GlyphClass: 2
Flags: W
LayerCount: 2
Fore
SplineSet
104 1552 m 1,0,1
 180 1698 180 1698 340 1698 c 0,2,3
 447 1698 447 1698 509 1639 c 0,4,5
 563 1588 563 1588 563 1510 c 0,6,7
 563 1354 563 1354 418 1319 c 1,8,-1
 418 1315 l 1,9,10
 590 1264 590 1264 590 1112 c 0,11,12
 590 1003 590 1003 513 939 c 0,13,14
 446 885 446 885 344 885 c 0,15,16
 175 885 175 885 86 1026 c 1,17,-1
 152 1067 l 1,18,19
 216 948 216 948 344 948 c 0,20,21
 429 948 429 948 474 999 c 0,22,23
 512 1041 512 1041 512 1110 c 0,24,25
 512 1280 512 1280 309 1280 c 2,26,-1
 246 1280 l 1,27,-1
 246 1343 l 1,28,-1
 305 1343 l 2,29,30
 487 1343 487 1343 487 1508 c 0,31,32
 487 1570 487 1570 442 1605 c 0,33,34
 403 1635 403 1635 340 1635 c 0,35,36
 217 1635 217 1635 168 1518 c 1,37,-1
 104 1552 l 1,0,1
EndSplineSet
Validated: 1
Substitution2: "'ital' Italics lookup 17 subtable" uni00B3.ital
Substitution2: "'vrt2' Vertical Rotation & Alternates lookup 5 subtable" uni00B3.vert
Substitution2: "+BBUENAQ4BD0EOARHBD0EMARP +BD8EPgQ0BEEEQgQwBD0EPgQyBDoEMAAA lookup 3 subtable" uni2083
AlternateSubs2: "'aalt' +BBIEQQQ1 +BDAEOwRMBEIENQRABD0EMARCBDgEMgQ9BEsENQAA +BDIEMARABDgEMAQ9BEIESwAA lookup 1 per glyph data 0" three three.hwid uniFF13 uni2462 uni248A uni2476 uni2778 uni00B3.vert uni2083 three.ital uni00B3.ital uni2083.ital three.qwid three.twid glyph9877 glyph9889 glyph10157 glyph10167 glyph10239 glyph10509 glyph10772 glyph10773 glyph11045 glyph11046 glyph11315 glyph11316 glyph11584 glyph11585 uniFF13.ruby uni24F7 uni2675 glyph20594 glyph20654 glyph20754 glyph20904 glyph20914
EndChar

StartChar: acute
Encoding: 180 180 111
Width: 2048
GlyphClass: 2
Flags: W
LayerCount: 2
Fore
SplineSet
1080 1950 m 1,0,-1
 1205 1950 l 1,1,-1
 1024 1675 l 1,2,-1
 967 1675 l 1,3,-1
 1080 1950 l 1,0,-1
EndSplineSet
Validated: 1
Substitution2: "'hwid' Half Widths lookup 33 subtable" acutecomb.hwid
Substitution2: "'pwid' Proportional Width lookup 20 subtable" acutecomb
AlternateSubs2: "'aalt' +BBIEQQQ1 +BDAEOwRMBEIENQRABD0EMARCBDgEMgQ9BEsENQAA +BDIEMARABDgEMAQ9BEIESwAA lookup 1 per glyph data 0" acutecomb acutecomb.hwid acutecomb.ital
Position2: "'palt' Proportional Alternate Metrics lookup 0 per glyph data 0" dx=-512 dy=0 dh=-1024 dv=0
EndChar

StartChar: mu
Encoding: 181 181 112
Width: 1112
GlyphClass: 2
Flags: W
LayerCount: 2
Fore
SplineSet
923 1063 m 1,0,-1
 923 182 l 2,1,2
 923 80 923 80 1007 80 c 0,3,4
 1040 80 1040 80 1060 82 c 1,5,-1
 1048 16 l 1,6,7
 1032 14 1032 14 1005 14 c 0,8,9
 916 14 916 14 879 58 c 0,10,11
 845 97 845 97 845 182 c 2,12,-1
 845 244 l 1,13,14
 782 131 782 131 681 69 c 0,15,16
 592 14 592 14 495 14 c 0,17,18
 347 14 347 14 268 123 c 1,19,-1
 268 -322 l 1,20,-1
 188 -322 l 1,21,-1
 188 1063 l 1,22,-1
 268 1063 l 1,23,-1
 268 332 l 2,24,25
 268 208 268 208 347 142 c 0,26,27
 410 90 410 90 507 90 c 0,28,29
 610 90 610 90 706 163 c 0,30,31
 788 226 788 226 843 326 c 1,32,-1
 843 1063 l 1,33,-1
 923 1063 l 1,0,-1
EndSplineSet
Validated: 1
Substitution2: "'fwid' Full Widths lookup 30 subtable" mu.fwid
Substitution2: "'ital' Italics lookup 17 subtable" mu.ital
Substitution2: "'vrt2' Vertical Rotation & Alternates lookup 5 subtable" mu.vert
AlternateSubs2: "'aalt' +BBIEQQQ1 +BDAEOwRMBEIENQRABD0EMARCBDgEMgQ9BEsENQAA +BDIEMARABDgEMAQ9BEIESwAA lookup 1 per glyph data 0" uni03BC mu.vert mu.ital mu.fwid
EndChar

StartChar: paragraph
Encoding: 182 182 113
Width: 2048
GlyphClass: 2
Flags: W
LayerCount: 2
Fore
SplineSet
1012 -164 m 1,0,-1
 938 -164 l 1,1,-1
 938 835 l 1,2,3
 775 835 775 835 645 940 c 0,4,5
 496 1060 496 1060 496 1272 c 0,6,7
 496 1505 496 1505 674 1618 c 0,8,9
 807 1702 807 1702 1008 1702 c 2,10,-1
 1451 1702 l 1,11,-1
 1451 1634 l 1,12,-1
 1293 1634 l 1,13,-1
 1293 -164 l 1,14,-1
 1219 -164 l 1,15,-1
 1219 1634 l 1,16,-1
 1012 1634 l 1,17,-1
 1012 -164 l 1,0,-1
EndSplineSet
Validated: 1
Substitution2: "'pwid' Proportional Width lookup 20 subtable" paragraph.pwid
AlternateSubs2: "'aalt' +BBIEQQQ1 +BDAEOwRMBEIENQRABD0EMARCBDgEMgQ9BEsENQAA +BDIEMARABDgEMAQ9BEIESwAA lookup 1 per glyph data 0" paragraph.pwid glyph9563
Position2: "'palt' Proportional Alternate Metrics lookup 0 per glyph data 2" dx=-295 dy=0 dh=-700 dv=0
EndChar

StartChar: uni0327
Encoding: 184 184 114
AltUni2: 000327.ffffffff.0 000327.ffffffff.0
Width: 1024
GlyphClass: 2
Flags: W
LayerCount: 2
Fore
SplineSet
553 37 m 1,0,-1
 467 -104 l 1,1,2
 513 -94 513 -94 553 -94 c 0,3,4
 633 -94 633 -94 678 -137 c 0,5,6
 717 -175 717 -175 717 -235 c 0,7,8
 717 -318 717 -318 648 -363 c 0,9,10
 588 -403 588 -403 490 -403 c 0,11,12
 405 -403 405 -403 340 -377 c 1,13,-1
 367 -315 l 1,14,15
 428 -340 428 -340 483 -340 c 0,16,17
 639 -340 639 -340 639 -239 c 0,18,19
 639 -149 639 -149 520 -149 c 0,20,21
 464 -149 464 -149 420 -170 c 1,22,-1
 377 -147 l 1,23,-1
 481 37 l 1,24,-1
 553 37 l 1,0,-1
EndSplineSet
Validated: 1
Substitution2: "'ital' Italics lookup 17 subtable" uni0327.ital
Substitution2: "'vrt2' Vertical Rotation & Alternates lookup 5 subtable" uni0327.vert
AlternateSubs2: "'aalt' +BBIEQQQ1 +BDAEOwRMBEIENQRABD0EMARCBDgEMgQ9BEsENQAA +BDIEMARABDgEMAQ9BEIESwAA lookup 1 per glyph data 0" uni0327.vert uni0327.ital
EndChar

StartChar: uni00B9
Encoding: 185 185 115
Width: 686
GlyphClass: 2
Flags: W
LayerCount: 2
Fore
SplineSet
393 1698 m 1,0,-1
 393 962 l 1,1,-1
 543 962 l 1,2,-1
 543 899 l 1,3,-1
 155 899 l 1,4,-1
 155 962 l 1,5,-1
 321 962 l 1,6,-1
 321 1620 l 1,7,8
 273 1583 273 1583 147 1536 c 1,9,-1
 135 1599 l 1,10,11
 265 1651 265 1651 329 1698 c 1,12,-1
 393 1698 l 1,0,-1
EndSplineSet
Validated: 1
Substitution2: "'ital' Italics lookup 17 subtable" uni00B9.ital
Substitution2: "'vrt2' Vertical Rotation & Alternates lookup 5 subtable" uni00B9.vert
Substitution2: "+BBUENAQ4BD0EOARHBD0EMARP +BD8EPgQ0BEEEQgQwBD0EPgQyBDoEMAAA lookup 3 subtable" uni2081
AlternateSubs2: "'aalt' +BBIEQQQ1 +BDAEOwRMBEIENQRABD0EMARCBDgEMgQ9BEsENQAA +BDIEMARABDgEMAQ9BEIESwAA lookup 1 per glyph data 0" one one.hwid uniFF11 uni2460 uni2488 uni2474 uni2776 uni00B9.vert uni2081 one.ital uni00B9.ital uni2081.ital one.qwid one.twid glyph9875 glyph9887 glyph10155 glyph10165 glyph10237 glyph10507 glyph10768 glyph10769 glyph11041 glyph11042 glyph11311 glyph11312 glyph11580 glyph11581 uniFF11.ruby uni24F5 uni2673 glyph20592 glyph20652 glyph20752 glyph20902 glyph20912
EndChar

StartChar: ordmasculine
Encoding: 186 186 116
Width: 696
GlyphClass: 2
Flags: W
LayerCount: 2
Fore
SplineSet
348 1571 m 0,0,1
 473 1571 473 1571 546 1470 c 0,2,3
 610 1380 610 1380 610 1237 c 0,4,5
 610 1074 610 1074 527 981 c 0,6,7
 456 901 456 901 348 901 c 0,8,9
 221 901 221 901 148 1003 c 0,10,11
 84 1093 84 1093 84 1235 c 0,12,13
 84 1399 84 1399 167 1492 c 0,14,15
 238 1571 238 1571 348 1571 c 0,0,1
348 1514 m 0,16,17
 255 1514 255 1514 200 1430 c 0,18,19
 152 1356 152 1356 152 1237 c 0,20,21
 152 1101 152 1101 214 1024 c 0,22,23
 267 958 267 958 348 958 c 0,24,25
 440 958 440 958 494 1043 c 0,26,27
 542 1118 542 1118 542 1237 c 0,28,29
 542 1373 542 1373 480 1449 c 0,30,31
 428 1514 428 1514 348 1514 c 0,16,17
EndSplineSet
Validated: 1
Substitution2: "'ital' Italics lookup 17 subtable" ordmasculine.ital
Substitution2: "'vrt2' Vertical Rotation & Alternates lookup 5 subtable" ordmasculine.vert
AlternateSubs2: "'aalt' +BBIEQQQ1 +BDAEOwRMBEIENQRABD0EMARCBDgEMgQ9BEsENQAA +BDIEMARABDgEMAQ9BEIESwAA lookup 1 per glyph data 0" ordmasculine.vert ordmasculine.ital glyph20321 glyph20376
EndChar

StartChar: guillemotright
Encoding: 187 187 117
Width: 848
GlyphClass: 2
Flags: W
LayerCount: 2
Fore
SplineSet
428 567 m 1,0,-1
 159 262 l 1,1,-1
 102 262 l 1,2,-1
 338 608 l 1,3,-1
 102 950 l 1,4,-1
 159 950 l 1,5,-1
 428 645 l 1,6,-1
 428 567 l 1,0,-1
725 567 m 1,7,-1
 456 262 l 1,8,-1
 399 262 l 1,9,-1
 634 608 l 1,10,-1
 399 950 l 1,11,-1
 456 950 l 1,12,-1
 725 645 l 1,13,-1
 725 567 l 1,7,-1
EndSplineSet
Validated: 1
Substitution2: "'hwid' Half Widths lookup 33 subtable" guillemotright.hwid
Substitution2: "'fwid' Full Widths lookup 30 subtable" uni300B
Substitution2: "'ital' Italics lookup 17 subtable" guillemotright.ital
Substitution2: "'vrt2' Vertical Rotation & Alternates lookup 5 subtable" guillemotright.vert
AlternateSubs2: "'aalt' +BBIEQQQ1 +BDAEOwRMBEIENQRABD0EMARCBDgEMgQ9BEsENQAA +BDIEMARABDgEMAQ9BEIESwAA lookup 1 per glyph data 0" greater guilsinglright greater.hwid uni3009.hwid guillemotright.hwid uni3009 uni300B uniFF1E uni2267 uni226B uniFE40 uniFE3E guillemotright.vert greater.ital guilsinglright.ital guillemotright.ital uni2273 glyph12264 glyph12266 glyph12268 glyph12270 uni2267.pwid uni226B.pwid uni2273.pwid
EndChar

StartChar: onequarter
Encoding: 188 188 118
Width: 1495
GlyphClass: 2
Flags: W
LayerCount: 2
Fore
SplineSet
1280 1544 m 1,0,-1
 358 10 l 1,1,-1
 285 10 l 1,2,-1
 1206 1544 l 1,3,-1
 1280 1544 l 1,0,-1
393 1544 m 1,4,-1
 393 809 l 1,5,-1
 543 809 l 1,6,-1
 543 745 l 1,7,-1
 155 745 l 1,8,-1
 155 809 l 1,9,-1
 321 809 l 1,10,-1
 321 1466 l 1,11,12
 273 1429 273 1429 147 1382 c 1,13,-1
 135 1446 l 1,14,15
 265 1497 265 1497 329 1544 c 1,16,-1
 393 1544 l 1,4,-1
1294 835 m 1,17,-1
 1294 274 l 1,18,-1
 1419 274 l 1,19,-1
 1419 215 l 1,20,-1
 1294 215 l 1,21,-1
 1294 37 l 1,22,-1
 1224 37 l 1,23,-1
 1224 215 l 1,24,-1
 880 215 l 1,25,-1
 880 270 l 1,26,-1
 1197 835 l 1,27,-1
 1294 835 l 1,17,-1
1224 274 m 1,28,-1
 1224 641 l 1,29,-1
 1228 776 l 1,30,-1
 1218 776 l 1,31,32
 1168 664 1168 664 1156 643 c 2,33,-1
 952 274 l 1,34,-1
 1224 274 l 1,28,-1
EndSplineSet
Validated: 1
Substitution2: "'fwid' Full Widths lookup 30 subtable" onequarter.fwid
Substitution2: "'ital' Italics lookup 17 subtable" onequarter.ital
Substitution2: "'vrt2' Vertical Rotation & Alternates lookup 5 subtable" onequarter.vert
AlternateSubs2: "'aalt' +BBIEQQQ1 +BDAEOwRMBEIENQRABD0EMARCBDgEMgQ9BEsENQAA +BDIEMARABDgEMAQ9BEIESwAA lookup 1 per glyph data 0" onequarter.fwid onequarter.vert onequarter.ital one_slash_four.afrc
EndChar

StartChar: onehalf
Encoding: 189 189 119
Width: 1495
GlyphClass: 2
Flags: W
LayerCount: 2
Fore
SplineSet
1245 1544 m 1,0,-1
 323 10 l 1,1,-1
 250 10 l 1,2,-1
 1171 1544 l 1,3,-1
 1245 1544 l 1,0,-1
393 1544 m 1,4,-1
 393 809 l 1,5,-1
 543 809 l 1,6,-1
 543 745 l 1,7,-1
 155 745 l 1,8,-1
 155 809 l 1,9,-1
 321 809 l 1,10,-1
 321 1466 l 1,11,12
 273 1429 273 1429 147 1382 c 1,13,-1
 135 1446 l 1,14,15
 265 1497 265 1497 329 1544 c 1,16,-1
 393 1544 l 1,4,-1
913 635 m 1,17,18
 967 836 967 836 1163 836 c 0,19,20
 1271 836 1271 836 1333 775 c 0,21,22
 1386 723 1386 723 1386 641 c 256,23,24
 1386 559 1386 559 1343 501 c 0,25,26
 1307 453 1307 453 1202 369 c 0,27,28
 1050 243 1050 243 979 100 c 1,29,-1
 1386 100 l 1,30,-1
 1386 37 l 1,31,-1
 907 37 l 1,32,-1
 907 88 l 1,33,34
 981 263 981 263 1155 412 c 0,35,36
 1257 498 1257 498 1284 543 c 0,37,38
 1308 582 1308 582 1308 642 c 0,39,40
 1308 708 1308 708 1264 743 c 0,41,42
 1225 773 1225 773 1161 773 c 0,43,44
 1018 773 1018 773 983 610 c 1,45,-1
 913 635 l 1,17,18
EndSplineSet
Validated: 1
Substitution2: "'hwid' Half Widths lookup 33 subtable" onehalf.hwid
Substitution2: "'fwid' Full Widths lookup 30 subtable" onehalf.fwid
Substitution2: "'ital' Italics lookup 17 subtable" onehalf.ital
Substitution2: "'vrt2' Vertical Rotation & Alternates lookup 5 subtable" onehalf.vert
AlternateSubs2: "'aalt' +BBIEQQQ1 +BDAEOwRMBEIENQRABD0EMARCBDgEMgQ9BEsENQAA +BDIEMARABDgEMAQ9BEIESwAA lookup 1 per glyph data 0" onehalf.hwid onehalf.fwid onehalf.vert onehalf.ital one_slash_two.afrc
EndChar

StartChar: threequarters
Encoding: 190 190 120
Width: 1495
GlyphClass: 2
Flags: W
LayerCount: 2
Fore
SplineSet
1286 1544 m 1,0,-1
 365 10 l 1,1,-1
 291 10 l 1,2,-1
 1212 1544 l 1,3,-1
 1286 1544 l 1,0,-1
104 1399 m 1,4,5
 180 1544 180 1544 340 1544 c 0,6,7
 447 1544 447 1544 509 1485 c 0,8,9
 563 1434 563 1434 563 1356 c 0,10,11
 563 1200 563 1200 418 1165 c 1,12,-1
 418 1161 l 1,13,14
 590 1110 590 1110 590 958 c 0,15,16
 590 849 590 849 513 786 c 0,17,18
 446 731 446 731 344 731 c 0,19,20
 175 731 175 731 86 872 c 1,21,-1
 152 913 l 1,22,23
 216 794 216 794 344 794 c 0,24,25
 429 794 429 794 474 845 c 0,26,27
 512 887 512 887 512 956 c 0,28,29
 512 1126 512 1126 309 1126 c 2,30,-1
 246 1126 l 1,31,-1
 246 1190 l 1,32,-1
 305 1190 l 2,33,34
 487 1190 487 1190 487 1354 c 0,35,36
 487 1416 487 1416 442 1451 c 0,37,38
 403 1481 403 1481 340 1481 c 0,39,40
 217 1481 217 1481 168 1364 c 1,41,-1
 104 1399 l 1,4,5
1294 835 m 1,42,-1
 1294 274 l 1,43,-1
 1419 274 l 1,44,-1
 1419 215 l 1,45,-1
 1294 215 l 1,46,-1
 1294 37 l 1,47,-1
 1224 37 l 1,48,-1
 1224 215 l 1,49,-1
 880 215 l 1,50,-1
 880 270 l 1,51,-1
 1197 835 l 1,52,-1
 1294 835 l 1,42,-1
1224 274 m 1,53,-1
 1224 641 l 1,54,-1
 1228 776 l 1,55,-1
 1218 776 l 1,56,57
 1168 664 1168 664 1156 643 c 2,58,-1
 952 274 l 1,59,-1
 1224 274 l 1,53,-1
EndSplineSet
Validated: 1
Substitution2: "'fwid' Full Widths lookup 30 subtable" threequarters.fwid
Substitution2: "'ital' Italics lookup 17 subtable" threequarters.ital
Substitution2: "'vrt2' Vertical Rotation & Alternates lookup 5 subtable" threequarters.vert
AlternateSubs2: "'aalt' +BBIEQQQ1 +BDAEOwRMBEIENQRABD0EMARCBDgEMgQ9BEsENQAA +BDIEMARABDgEMAQ9BEIESwAA lookup 1 per glyph data 0" threequarters.vert threequarters.ital threequarters.fwid three_slash_four.afrc
EndChar

StartChar: questiondown
Encoding: 191 191 121
Width: 975
GlyphClass: 2
Flags: W
LayerCount: 2
Fore
SplineSet
888 -111 m 1,0,1
 847 -298 847 -298 724 -392 c 0,2,3
 622 -471 622 -471 479 -471 c 0,4,5
 303 -471 303 -471 199 -363 c 0,6,7
 106 -267 106 -267 106 -119 c 0,8,9
 106 -12 106 -12 161 77 c 0,10,11
 211 156 211 156 331 266 c 0,12,13
 423 349 423 349 449 428 c 0,14,15
 473 499 473 499 475 643 c 1,16,-1
 540 643 l 1,17,-1
 540 588 l 2,18,19
 540 449 540 449 499 363 c 0,20,21
 464 291 464 291 380 211 c 0,22,23
 262 98 262 98 223 21 c 0,24,25
 192 -41 192 -41 192 -119 c 0,26,27
 192 -253 192 -253 279 -329 c 0,28,29
 356 -397 356 -397 477 -397 c 0,30,31
 749 -397 749 -397 808 -88 c 1,32,-1
 888 -111 l 1,0,1
432 901 m 1,33,-1
 432 1063 l 1,34,-1
 583 1063 l 1,35,-1
 583 901 l 1,36,-1
 432 901 l 1,33,-1
EndSplineSet
Validated: 1
Substitution2: "'hwid' Half Widths lookup 33 subtable" questiondown.hwid
Substitution2: "'ital' Italics lookup 17 subtable" questiondown.ital
Substitution2: "'vrt2' Vertical Rotation & Alternates lookup 5 subtable" questiondown.vert
AlternateSubs2: "'aalt' +BBIEQQQ1 +BDAEOwRMBEIENQRABD0EMARCBDgEMgQ9BEsENQAA +BDIEMARABDgEMAQ9BEIESwAA lookup 1 per glyph data 0" questiondown.hwid questiondown.vert questiondown.ital
EndChar

StartChar: Agrave
Encoding: 192 192 122
Width: 1251
GlyphClass: 2
Flags: W
LayerCount: 2
Fore
SplineSet
682 1544 m 1,0,-1
 1196 37 l 1,1,-1
 1104 37 l 1,2,-1
 929 559 l 1,3,-1
 321 559 l 1,4,-1
 145 37 l 1,5,-1
 55 37 l 1,6,-1
 571 1544 l 1,7,-1
 682 1544 l 1,0,-1
905 631 m 1,8,-1
 762 1061 l 2,9,10
 703 1233 703 1233 633 1472 c 1,11,-1
 618 1472 l 1,12,13
 566 1287 566 1287 489 1063 c 2,14,-1
 344 631 l 1,15,-1
 905 631 l 1,8,-1
569 1950 m 1,16,-1
 682 1675 l 1,17,-1
 624 1675 l 1,18,-1
 444 1950 l 1,19,-1
 569 1950 l 1,16,-1
EndSplineSet
Validated: 1
Substitution2: "'ital' Italics lookup 17 subtable" Agrave.ital
Substitution2: "'vrt2' Vertical Rotation & Alternates lookup 5 subtable" Agrave.vert
AlternateSubs2: "'aalt' +BBIEQQQ1 +BDAEOwRMBEIENQRABD0EMARCBDgEMgQ9BEsENQAA +BDIEMARABDgEMAQ9BEIESwAA lookup 1 per glyph data 0" Agrave.vert Agrave.ital
EndChar

StartChar: Aacute
Encoding: 193 193 123
Width: 1251
GlyphClass: 2
Flags: W
LayerCount: 2
Fore
SplineSet
682 1544 m 1,0,-1
 1196 37 l 1,1,-1
 1104 37 l 1,2,-1
 929 559 l 1,3,-1
 321 559 l 1,4,-1
 145 37 l 1,5,-1
 55 37 l 1,6,-1
 571 1544 l 1,7,-1
 682 1544 l 1,0,-1
905 631 m 1,8,-1
 762 1061 l 2,9,10
 703 1233 703 1233 633 1472 c 1,11,-1
 618 1472 l 1,12,13
 566 1287 566 1287 489 1063 c 2,14,-1
 344 631 l 1,15,-1
 905 631 l 1,8,-1
682 1950 m 1,16,-1
 807 1950 l 1,17,-1
 626 1675 l 1,18,-1
 569 1675 l 1,19,-1
 682 1950 l 1,16,-1
EndSplineSet
Validated: 1
Substitution2: "'ital' Italics lookup 17 subtable" Aacute.ital
Substitution2: "'vrt2' Vertical Rotation & Alternates lookup 5 subtable" Aacute.vert
AlternateSubs2: "'aalt' +BBIEQQQ1 +BDAEOwRMBEIENQRABD0EMARCBDgEMgQ9BEsENQAA +BDIEMARABDgEMAQ9BEIESwAA lookup 1 per glyph data 0" Aacute.vert Aacute.ital
EndChar

StartChar: Acircumflex
Encoding: 194 194 124
Width: 1251
GlyphClass: 2
Flags: W
LayerCount: 2
Fore
SplineSet
682 1544 m 1,0,-1
 1196 37 l 1,1,-1
 1104 37 l 1,2,-1
 929 559 l 1,3,-1
 321 559 l 1,4,-1
 145 37 l 1,5,-1
 55 37 l 1,6,-1
 571 1544 l 1,7,-1
 682 1544 l 1,0,-1
905 631 m 1,8,-1
 762 1061 l 2,9,10
 703 1233 703 1233 633 1472 c 1,11,-1
 618 1472 l 1,12,13
 566 1287 566 1287 489 1063 c 2,14,-1
 344 631 l 1,15,-1
 905 631 l 1,8,-1
692 1950 m 1,16,-1
 870 1675 l 1,17,-1
 807 1675 l 1,18,-1
 633 1878 l 1,19,-1
 463 1675 l 1,20,-1
 399 1675 l 1,21,-1
 575 1950 l 1,22,-1
 692 1950 l 1,16,-1
EndSplineSet
Validated: 1
Substitution2: "'ital' Italics lookup 17 subtable" Acircumflex.ital
Substitution2: "'vrt2' Vertical Rotation & Alternates lookup 5 subtable" Acircumflex.vert
AlternateSubs2: "'aalt' +BBIEQQQ1 +BDAEOwRMBEIENQRABD0EMARCBDgEMgQ9BEsENQAA +BDIEMARABDgEMAQ9BEIESwAA lookup 1 per glyph data 0" Acircumflex.vert Acircumflex.ital
EndChar

StartChar: Atilde
Encoding: 195 195 125
Width: 1251
GlyphClass: 2
Flags: W
LayerCount: 2
Fore
SplineSet
682 1544 m 1,0,-1
 1196 37 l 1,1,-1
 1104 37 l 1,2,-1
 929 559 l 1,3,-1
 321 559 l 1,4,-1
 145 37 l 1,5,-1
 55 37 l 1,6,-1
 571 1544 l 1,7,-1
 682 1544 l 1,0,-1
905 631 m 1,8,-1
 762 1061 l 2,9,10
 703 1233 703 1233 633 1472 c 1,11,-1
 618 1472 l 1,12,13
 566 1287 566 1287 489 1063 c 2,14,-1
 344 631 l 1,15,-1
 905 631 l 1,8,-1
868 1845 m 1,16,17
 856 1688 856 1688 757 1688 c 0,18,19
 706 1688 706 1688 624 1723 c 0,20,21
 535 1761 535 1761 508 1761 c 0,22,23
 457 1761 457 1761 444 1688 c 1,24,-1
 389 1688 l 1,25,26
 406 1843 406 1843 508 1843 c 0,27,28
 548 1843 548 1843 641 1804 c 0,29,30
 724 1770 724 1770 760 1770 c 0,31,32
 802 1770 802 1770 815 1845 c 1,33,-1
 868 1845 l 1,16,17
EndSplineSet
Validated: 1
Substitution2: "'ital' Italics lookup 17 subtable" Atilde.ital
Substitution2: "'vrt2' Vertical Rotation & Alternates lookup 5 subtable" Atilde.vert
AlternateSubs2: "'aalt' +BBIEQQQ1 +BDAEOwRMBEIENQRABD0EMARCBDgEMgQ9BEsENQAA +BDIEMARABDgEMAQ9BEIESwAA lookup 1 per glyph data 0" Atilde.vert Atilde.ital
EndChar

StartChar: Adieresis
Encoding: 196 196 126
Width: 1251
GlyphClass: 2
Flags: W
LayerCount: 2
Fore
SplineSet
682 1544 m 1,0,-1
 1196 37 l 1,1,-1
 1104 37 l 1,2,-1
 929 559 l 1,3,-1
 321 559 l 1,4,-1
 145 37 l 1,5,-1
 55 37 l 1,6,-1
 571 1544 l 1,7,-1
 682 1544 l 1,0,-1
905 631 m 1,8,-1
 762 1061 l 2,9,10
 703 1233 703 1233 633 1472 c 1,11,-1
 618 1472 l 1,12,13
 566 1287 566 1287 489 1063 c 2,14,-1
 344 631 l 1,15,-1
 905 631 l 1,8,-1
528 1833 m 1,16,-1
 528 1696 l 1,17,-1
 399 1696 l 1,18,-1
 399 1833 l 1,19,-1
 528 1833 l 1,16,-1
856 1833 m 1,20,-1
 856 1696 l 1,21,-1
 727 1696 l 1,22,-1
 727 1833 l 1,23,-1
 856 1833 l 1,20,-1
EndSplineSet
Validated: 1
Substitution2: "'hwid' Half Widths lookup 33 subtable" Adieresis.hwid
Substitution2: "'ital' Italics lookup 17 subtable" Adieresis.ital
Substitution2: "'vrt2' Vertical Rotation & Alternates lookup 5 subtable" Adieresis.vert
AlternateSubs2: "'aalt' +BBIEQQQ1 +BDAEOwRMBEIENQRABD0EMARCBDgEMgQ9BEsENQAA +BDIEMARABDgEMAQ9BEIESwAA lookup 1 per glyph data 0" Adieresis.hwid Adieresis.vert Adieresis.ital
EndChar

StartChar: Aring
Encoding: 197 197 127
Width: 1251
GlyphClass: 2
Flags: W
LayerCount: 2
Fore
SplineSet
682 1544 m 1,0,-1
 1196 37 l 1,1,-1
 1104 37 l 1,2,-1
 929 559 l 1,3,-1
 321 559 l 1,4,-1
 145 37 l 1,5,-1
 55 37 l 1,6,-1
 571 1544 l 1,7,-1
 682 1544 l 1,0,-1
905 631 m 1,8,-1
 762 1061 l 2,9,10
 703 1233 703 1233 633 1472 c 1,11,-1
 618 1472 l 1,12,13
 566 1287 566 1287 489 1063 c 2,14,-1
 344 631 l 1,15,-1
 905 631 l 1,8,-1
630 1980 m 0,16,17
 703 1980 703 1980 752 1927 c 0,18,19
 794 1881 794 1881 794 1818 c 0,20,21
 794 1746 794 1746 740 1697 c 0,22,23
 693 1655 693 1655 630 1655 c 0,24,25
 558 1655 558 1655 510 1709 c 0,26,27
 469 1756 469 1756 469 1818 c 0,28,29
 469 1891 469 1891 522 1939 c 0,30,31
 568 1980 568 1980 630 1980 c 0,16,17
630 1933 m 0,32,33
 585 1933 585 1933 551.5 1899 c 128,-1,34
 518 1865 518 1865 518 1818 c 0,35,36
 518 1769 518 1769 555 1733 c 0,37,38
 588 1702 588 1702 630 1702 c 0,39,40
 680 1702 680 1702 715 1742 c 0,41,42
 745 1776 745 1776 745 1818 c 0,43,44
 745 1868 745 1868 706 1903 c 0,45,46
 673 1933 673 1933 630 1933 c 0,32,33
EndSplineSet
Validated: 1
Substitution2: "'ital' Italics lookup 17 subtable" Aring.ital
Substitution2: "'vrt2' Vertical Rotation & Alternates lookup 5 subtable" Aring.vert
AlternateSubs2: "'aalt' +BBIEQQQ1 +BDAEOwRMBEIENQRABD0EMARCBDgEMgQ9BEsENQAA +BDIEMARABDgEMAQ9BEIESwAA lookup 1 per glyph data 0" Aring.vert Aring.ital
EndChar

StartChar: AE
Encoding: 198 198 128
Width: 1995
GlyphClass: 2
Flags: W
LayerCount: 2
Fore
SplineSet
1908 1544 m 1,0,-1
 1908 1470 l 1,1,-1
 1095 1470 l 1,2,-1
 1095 877 l 1,3,-1
 1709 877 l 1,4,-1
 1709 803 l 1,5,-1
 1095 803 l 1,6,-1
 1095 111 l 1,7,-1
 1922 111 l 1,8,-1
 1922 37 l 1,9,-1
 1011 37 l 1,10,-1
 1011 559 l 1,11,-1
 464 559 l 1,12,-1
 155 37 l 1,13,-1
 55 37 l 1,14,-1
 960 1544 l 1,15,-1
 1908 1544 l 1,0,-1
1011 1472 m 1,16,-1
 997 1472 l 1,17,18
 798 1124 798 1124 761 1063 c 2,19,-1
 505 631 l 1,20,-1
 1011 631 l 1,21,-1
 1011 1472 l 1,16,-1
EndSplineSet
Validated: 1
Substitution2: "'ital' Italics lookup 17 subtable" AE.ital
Substitution2: "'vrt2' Vertical Rotation & Alternates lookup 5 subtable" AE.vert
AlternateSubs2: "'aalt' +BBIEQQQ1 +BDAEOwRMBEIENQRABD0EMARCBDgEMgQ9BEsENQAA +BDIEMARABDgEMAQ9BEIESwAA lookup 1 per glyph data 0" AE.vert AE.ital
EndChar

StartChar: Ccedilla
Encoding: 199 199 129
Width: 1325
GlyphClass: 2
Flags: W
LayerCount: 2
Fore
SplineSet
674 12 m 1,0,1
 417 33 417 33 262 261 c 0,2,3
 119 471 119 471 119 791 c 0,4,5
 119 1173 119 1173 320 1392 c 0,6,7
 484 1571 484 1571 721 1571 c 0,8,9
 920 1571 920 1571 1058 1452 c 0,10,11
 1177 1349 1177 1349 1235 1171 c 1,12,-1
 1151 1141 l 1,13,14
 1053 1495 1053 1495 721 1495 c 0,15,16
 481 1495 481 1495 339 1287 c 0,17,18
 209 1097 209 1097 209 793 c 0,19,20
 209 444 209 444 376 248 c 0,21,22
 514 86 514 86 721 86 c 0,23,24
 1068 86 1068 86 1163 451 c 1,25,-1
 1247 412 l 1,26,27
 1118 23 1118 23 746 10 c 1,28,-1
 674 -109 l 1,29,30
 720 -98 720 -98 762 -98 c 0,31,32
 846 -98 846 -98 892 -143 c 0,33,34
 932 -182 932 -182 932 -244 c 0,35,36
 932 -328 932 -328 861 -375 c 0,37,38
 799 -416 799 -416 697 -416 c 0,39,40
 611 -416 611 -416 543 -389 c 1,41,-1
 572 -326 l 1,42,43
 633 -350 633 -350 690 -350 c 0,44,45
 852 -350 852 -350 852 -247 c 0,46,47
 852 -155 852 -155 729 -155 c 0,48,49
 673 -155 673 -155 625 -176 c 1,50,-1
 582 -152 l 1,51,-1
 674 12 l 1,0,1
EndSplineSet
Validated: 1
Substitution2: "'hwid' Half Widths lookup 33 subtable" Ccedilla.hwid
Substitution2: "'ital' Italics lookup 17 subtable" Ccedilla.ital
Substitution2: "'vrt2' Vertical Rotation & Alternates lookup 5 subtable" Ccedilla.vert
AlternateSubs2: "'aalt' +BBIEQQQ1 +BDAEOwRMBEIENQRABD0EMARCBDgEMgQ9BEsENQAA +BDIEMARABDgEMAQ9BEIESwAA lookup 1 per glyph data 0" Ccedilla.hwid Ccedilla.vert Ccedilla.ital
EndChar

StartChar: Egrave
Encoding: 200 200 130
Width: 1196
GlyphClass: 2
Flags: W
LayerCount: 2
Fore
SplineSet
1110 1544 m 1,0,-1
 1110 1470 l 1,1,-1
 297 1470 l 1,2,-1
 297 877 l 1,3,-1
 911 877 l 1,4,-1
 911 803 l 1,5,-1
 297 803 l 1,6,-1
 297 111 l 1,7,-1
 1124 111 l 1,8,-1
 1124 37 l 1,9,-1
 213 37 l 1,10,-1
 213 1544 l 1,11,-1
 1110 1544 l 1,0,-1
612 1950 m 1,12,-1
 725 1675 l 1,13,-1
 668 1675 l 1,14,-1
 487 1950 l 1,15,-1
 612 1950 l 1,12,-1
EndSplineSet
Validated: 1
Substitution2: "'ital' Italics lookup 17 subtable" Egrave.ital
Substitution2: "'vrt2' Vertical Rotation & Alternates lookup 5 subtable" Egrave.vert
AlternateSubs2: "'aalt' +BBIEQQQ1 +BDAEOwRMBEIENQRABD0EMARCBDgEMgQ9BEsENQAA +BDIEMARABDgEMAQ9BEIESwAA lookup 1 per glyph data 0" Egrave.vert Egrave.ital
EndChar

StartChar: Eacute
Encoding: 201 201 131
Width: 1196
GlyphClass: 2
Flags: W
LayerCount: 2
Fore
SplineSet
1110 1544 m 1,0,-1
 1110 1470 l 1,1,-1
 297 1470 l 1,2,-1
 297 877 l 1,3,-1
 911 877 l 1,4,-1
 911 803 l 1,5,-1
 297 803 l 1,6,-1
 297 111 l 1,7,-1
 1124 111 l 1,8,-1
 1124 37 l 1,9,-1
 213 37 l 1,10,-1
 213 1544 l 1,11,-1
 1110 1544 l 1,0,-1
725 1950 m 1,12,-1
 850 1950 l 1,13,-1
 670 1675 l 1,14,-1
 612 1675 l 1,15,-1
 725 1950 l 1,12,-1
EndSplineSet
Validated: 1
Substitution2: "'ital' Italics lookup 17 subtable" Eacute.ital
Substitution2: "'vrt2' Vertical Rotation & Alternates lookup 5 subtable" Eacute.vert
AlternateSubs2: "'aalt' +BBIEQQQ1 +BDAEOwRMBEIENQRABD0EMARCBDgEMgQ9BEsENQAA +BDIEMARABDgEMAQ9BEIESwAA lookup 1 per glyph data 0" Eacute.vert Eacute.ital
EndChar

StartChar: Ecircumflex
Encoding: 202 202 132
Width: 1196
GlyphClass: 2
Flags: W
LayerCount: 2
Fore
SplineSet
1110 1544 m 1,0,-1
 1110 1470 l 1,1,-1
 297 1470 l 1,2,-1
 297 877 l 1,3,-1
 911 877 l 1,4,-1
 911 803 l 1,5,-1
 297 803 l 1,6,-1
 297 111 l 1,7,-1
 1124 111 l 1,8,-1
 1124 37 l 1,9,-1
 213 37 l 1,10,-1
 213 1544 l 1,11,-1
 1110 1544 l 1,0,-1
735 1950 m 1,12,-1
 913 1675 l 1,13,-1
 850 1675 l 1,14,-1
 676 1876 l 1,15,-1
 506 1675 l 1,16,-1
 442 1675 l 1,17,-1
 619 1950 l 1,18,-1
 735 1950 l 1,12,-1
EndSplineSet
Validated: 1
Substitution2: "'ital' Italics lookup 17 subtable" Ecircumflex.ital
Substitution2: "'vrt2' Vertical Rotation & Alternates lookup 5 subtable" Ecircumflex.vert
AlternateSubs2: "'aalt' +BBIEQQQ1 +BDAEOwRMBEIENQRABD0EMARCBDgEMgQ9BEsENQAA +BDIEMARABDgEMAQ9BEIESwAA lookup 1 per glyph data 0" Ecircumflex.vert Ecircumflex.ital
EndChar

StartChar: Edieresis
Encoding: 203 203 133
Width: 1196
GlyphClass: 2
Flags: W
LayerCount: 2
Fore
SplineSet
1110 1544 m 1,0,-1
 1110 1470 l 1,1,-1
 297 1470 l 1,2,-1
 297 877 l 1,3,-1
 911 877 l 1,4,-1
 911 803 l 1,5,-1
 297 803 l 1,6,-1
 297 111 l 1,7,-1
 1124 111 l 1,8,-1
 1124 37 l 1,9,-1
 213 37 l 1,10,-1
 213 1544 l 1,11,-1
 1110 1544 l 1,0,-1
561 1833 m 1,12,-1
 561 1696 l 1,13,-1
 432 1696 l 1,14,-1
 432 1833 l 1,15,-1
 561 1833 l 1,12,-1
889 1833 m 1,16,-1
 889 1696 l 1,17,-1
 760 1696 l 1,18,-1
 760 1833 l 1,19,-1
 889 1833 l 1,16,-1
EndSplineSet
Validated: 1
Substitution2: "'ital' Italics lookup 17 subtable" Edieresis.ital
Substitution2: "'vrt2' Vertical Rotation & Alternates lookup 5 subtable" Edieresis.vert
AlternateSubs2: "'aalt' +BBIEQQQ1 +BDAEOwRMBEIENQRABD0EMARCBDgEMgQ9BEsENQAA +BDIEMARABDgEMAQ9BEIESwAA lookup 1 per glyph data 0" Edieresis.vert Edieresis.ital
EndChar

StartChar: Igrave
Encoding: 204 204 134
Width: 510
GlyphClass: 2
Flags: W
LayerCount: 2
Fore
SplineSet
296 1544 m 1,0,-1
 296 37 l 1,1,-1
 212 37 l 1,2,-1
 212 1544 l 1,3,-1
 296 1544 l 1,0,-1
188 1950 m 1,4,-1
 301 1675 l 1,5,-1
 243 1675 l 1,6,-1
 63 1950 l 1,7,-1
 188 1950 l 1,4,-1
EndSplineSet
Validated: 1
Substitution2: "'ital' Italics lookup 17 subtable" Igrave.ital
Substitution2: "'vrt2' Vertical Rotation & Alternates lookup 5 subtable" Igrave.vert
AlternateSubs2: "'aalt' +BBIEQQQ1 +BDAEOwRMBEIENQRABD0EMARCBDgEMgQ9BEsENQAA +BDIEMARABDgEMAQ9BEIESwAA lookup 1 per glyph data 0" Igrave.vert Igrave.ital
EndChar

StartChar: Iacute
Encoding: 205 205 135
Width: 510
GlyphClass: 2
Flags: W
LayerCount: 2
Fore
SplineSet
297 1544 m 1,0,-1
 297 37 l 1,1,-1
 213 37 l 1,2,-1
 213 1544 l 1,3,-1
 297 1544 l 1,0,-1
326 1950 m 1,4,-1
 451 1950 l 1,5,-1
 270 1675 l 1,6,-1
 213 1675 l 1,7,-1
 326 1950 l 1,4,-1
EndSplineSet
Validated: 1
Substitution2: "'ital' Italics lookup 17 subtable" Iacute.ital
Substitution2: "'vrt2' Vertical Rotation & Alternates lookup 5 subtable" Iacute.vert
AlternateSubs2: "'aalt' +BBIEQQQ1 +BDAEOwRMBEIENQRABD0EMARCBDgEMgQ9BEsENQAA +BDIEMARABDgEMAQ9BEIESwAA lookup 1 per glyph data 0" Iacute.vert Iacute.ital
EndChar

StartChar: Icircumflex
Encoding: 206 206 136
Width: 510
GlyphClass: 2
Flags: W
LayerCount: 2
Fore
SplineSet
297 1544 m 1,0,-1
 297 37 l 1,1,-1
 213 37 l 1,2,-1
 213 1544 l 1,3,-1
 297 1544 l 1,0,-1
319 1950 m 1,4,-1
 481 1675 l 1,5,-1
 418 1675 l 1,6,-1
 260 1880 l 1,7,-1
 106 1675 l 1,8,-1
 43 1675 l 1,9,-1
 203 1950 l 1,10,-1
 319 1950 l 1,4,-1
EndSplineSet
Validated: 1
Substitution2: "'ital' Italics lookup 17 subtable" Icircumflex.ital
Substitution2: "'vrt2' Vertical Rotation & Alternates lookup 5 subtable" Icircumflex.vert
AlternateSubs2: "'aalt' +BBIEQQQ1 +BDAEOwRMBEIENQRABD0EMARCBDgEMgQ9BEsENQAA +BDIEMARABDgEMAQ9BEIESwAA lookup 1 per glyph data 0" Icircumflex.vert Icircumflex.ital
EndChar

StartChar: Idieresis
Encoding: 207 207 137
Width: 510
GlyphClass: 2
Flags: W
LayerCount: 2
Fore
SplineSet
297 1544 m 1,0,-1
 297 37 l 1,1,-1
 213 37 l 1,2,-1
 213 1544 l 1,3,-1
 297 1544 l 1,0,-1
172 1833 m 1,4,-1
 172 1696 l 1,5,-1
 45 1696 l 1,6,-1
 45 1833 l 1,7,-1
 172 1833 l 1,4,-1
469 1833 m 1,8,-1
 469 1696 l 1,9,-1
 342 1696 l 1,10,-1
 342 1833 l 1,11,-1
 469 1833 l 1,8,-1
EndSplineSet
Validated: 1
Substitution2: "'ital' Italics lookup 17 subtable" Idieresis.ital
Substitution2: "'vrt2' Vertical Rotation & Alternates lookup 5 subtable" Idieresis.vert
AlternateSubs2: "'aalt' +BBIEQQQ1 +BDAEOwRMBEIENQRABD0EMARCBDgEMgQ9BEsENQAA +BDIEMARABDgEMAQ9BEIESwAA lookup 1 per glyph data 0" Idieresis.vert Idieresis.ital
EndChar

StartChar: Eth
Encoding: 208 208 138
Width: 1466
GlyphClass: 2
Flags: W
LayerCount: 2
Fore
SplineSet
213 860 m 1,0,-1
 213 1544 l 1,1,-1
 635 1544 l 2,2,3
 994 1544 994 1544 1179 1334 c 0,4,5
 1348 1143 1348 1143 1348 796 c 0,6,7
 1348 401 1348 401 1116 202 c 0,8,9
 925 37 925 37 610 37 c 2,10,-1
 213 37 l 1,11,-1
 213 794 l 1,12,-1
 29 794 l 1,13,-1
 29 860 l 1,14,-1
 213 860 l 1,0,-1
297 860 m 1,15,-1
 643 860 l 1,16,-1
 643 794 l 1,17,-1
 297 794 l 1,18,-1
 297 111 l 1,19,-1
 606 111 l 2,20,21
 932 111 932 111 1101 298 c 0,22,23
 1260 473 1260 473 1260 794 c 0,24,25
 1260 1470 1260 1470 631 1470 c 2,26,-1
 297 1470 l 1,27,-1
 297 860 l 1,15,-1
EndSplineSet
Validated: 1
Substitution2: "'ital' Italics lookup 17 subtable" Eth.ital
Substitution2: "'vrt2' Vertical Rotation & Alternates lookup 5 subtable" Eth.vert
AlternateSubs2: "'aalt' +BBIEQQQ1 +BDAEOwRMBEIENQRABD0EMARCBDgEMgQ9BEsENQAA +BDIEMARABDgEMAQ9BEIESwAA lookup 1 per glyph data 0" Eth.vert Eth.ital
EndChar

StartChar: Ntilde
Encoding: 209 209 139
Width: 1475
GlyphClass: 2
Flags: W
LayerCount: 2
Fore
SplineSet
1262 1544 m 1,0,-1
 1262 37 l 1,1,-1
 1151 37 l 1,2,-1
 518 1091 l 2,3,4
 436 1228 436 1228 305 1472 c 1,5,-1
 291 1472 l 1,6,-1
 295 1057 l 1,7,-1
 295 37 l 1,8,-1
 213 37 l 1,9,-1
 213 1544 l 1,10,-1
 342 1544 l 1,11,-1
 965 510 l 2,12,13
 1085 310 1085 310 1180 123 c 1,14,-1
 1194 123 l 1,15,16
 1180 363 1180 363 1180 559 c 2,17,-1
 1180 1544 l 1,18,-1
 1262 1544 l 1,0,-1
999 1843 m 1,19,20
 988 1686 988 1686 889 1686 c 0,21,22
 837 1686 837 1686 756 1720 c 0,23,24
 667 1759 667 1759 639 1759 c 0,25,26
 589 1759 589 1759 575 1686 c 1,27,-1
 520 1686 l 1,28,29
 537 1841 537 1841 639 1841 c 0,30,31
 680 1841 680 1841 772 1803 c 0,32,33
 856 1768 856 1768 891 1768 c 0,34,35
 933 1768 933 1768 946 1843 c 1,36,-1
 999 1843 l 1,19,20
EndSplineSet
Validated: 1
Substitution2: "'hwid' Half Widths lookup 33 subtable" Ntilde.hwid
Substitution2: "'ital' Italics lookup 17 subtable" Ntilde.ital
Substitution2: "'vrt2' Vertical Rotation & Alternates lookup 5 subtable" Ntilde.vert
AlternateSubs2: "'aalt' +BBIEQQQ1 +BDAEOwRMBEIENQRABD0EMARCBDgEMgQ9BEsENQAA +BDIEMARABDgEMAQ9BEIESwAA lookup 1 per glyph data 0" Ntilde.hwid Ntilde.vert Ntilde.ital
EndChar

StartChar: Ograve
Encoding: 210 210 140
Width: 1432
GlyphClass: 2
Flags: W
LayerCount: 2
Fore
SplineSet
717 1571 m 0,0,1
 995 1571 995 1571 1161 1341 c 0,2,3
 1313 1130 1313 1130 1313 795 c 0,4,5
 1313 409 1313 409 1118 191 c 0,6,7
 956 10 956 10 717 10 c 0,8,9
 438 10 438 10 271 243 c 0,10,11
 119 454 119 454 119 791 c 0,12,13
 119 1175 119 1175 315 1392 c 0,14,15
 477 1571 477 1571 717 1571 c 0,0,1
717 1495 m 0,16,17
 474 1495 474 1495 335 1287 c 0,18,19
 209 1098 209 1098 209 793 c 0,20,21
 209 442 209 442 371 248 c 0,22,23
 507 86 507 86 717 86 c 0,24,25
 959 86 959 86 1098 297 c 0,26,27
 1223 486 1223 486 1223 793 c 0,28,29
 1223 1143 1223 1143 1062 1334 c 0,30,31
 927 1495 927 1495 717 1495 c 0,16,17
662 1950 m 1,32,-1
 774 1675 l 1,33,-1
 717 1675 l 1,34,-1
 537 1950 l 1,35,-1
 662 1950 l 1,32,-1
EndSplineSet
Validated: 1
Substitution2: "'ital' Italics lookup 17 subtable" Ograve.ital
Substitution2: "'vrt2' Vertical Rotation & Alternates lookup 5 subtable" Ograve.vert
AlternateSubs2: "'aalt' +BBIEQQQ1 +BDAEOwRMBEIENQRABD0EMARCBDgEMgQ9BEsENQAA +BDIEMARABDgEMAQ9BEIESwAA lookup 1 per glyph data 0" Ograve.vert Ograve.ital
EndChar

StartChar: Oacute
Encoding: 211 211 141
Width: 1432
GlyphClass: 2
Flags: W
LayerCount: 2
Fore
SplineSet
717 1571 m 0,0,1
 995 1571 995 1571 1161 1341 c 0,2,3
 1313 1130 1313 1130 1313 795 c 0,4,5
 1313 409 1313 409 1118 191 c 0,6,7
 956 10 956 10 717 10 c 0,8,9
 438 10 438 10 271 243 c 0,10,11
 119 454 119 454 119 791 c 0,12,13
 119 1175 119 1175 315 1392 c 0,14,15
 477 1571 477 1571 717 1571 c 0,0,1
717 1495 m 0,16,17
 474 1495 474 1495 335 1287 c 0,18,19
 209 1098 209 1098 209 793 c 0,20,21
 209 442 209 442 371 248 c 0,22,23
 507 86 507 86 717 86 c 0,24,25
 959 86 959 86 1098 297 c 0,26,27
 1223 486 1223 486 1223 793 c 0,28,29
 1223 1143 1223 1143 1062 1334 c 0,30,31
 927 1495 927 1495 717 1495 c 0,16,17
772 1950 m 1,32,-1
 897 1950 l 1,33,-1
 717 1675 l 1,34,-1
 660 1675 l 1,35,-1
 772 1950 l 1,32,-1
EndSplineSet
Validated: 1
Substitution2: "'ital' Italics lookup 17 subtable" Oacute.ital
Substitution2: "'vrt2' Vertical Rotation & Alternates lookup 5 subtable" Oacute.vert
AlternateSubs2: "'aalt' +BBIEQQQ1 +BDAEOwRMBEIENQRABD0EMARCBDgEMgQ9BEsENQAA +BDIEMARABDgEMAQ9BEIESwAA lookup 1 per glyph data 0" Oacute.vert Oacute.ital
EndChar

StartChar: Ocircumflex
Encoding: 212 212 142
Width: 1432
GlyphClass: 2
Flags: W
LayerCount: 2
Fore
SplineSet
717 1571 m 0,0,1
 995 1571 995 1571 1161 1341 c 0,2,3
 1313 1130 1313 1130 1313 795 c 0,4,5
 1313 409 1313 409 1118 191 c 0,6,7
 956 10 956 10 717 10 c 0,8,9
 438 10 438 10 271 243 c 0,10,11
 119 454 119 454 119 791 c 0,12,13
 119 1175 119 1175 315 1392 c 0,14,15
 477 1571 477 1571 717 1571 c 0,0,1
717 1495 m 0,16,17
 474 1495 474 1495 335 1287 c 0,18,19
 209 1098 209 1098 209 793 c 0,20,21
 209 442 209 442 371 248 c 0,22,23
 507 86 507 86 717 86 c 0,24,25
 959 86 959 86 1098 297 c 0,26,27
 1223 486 1223 486 1223 793 c 0,28,29
 1223 1143 1223 1143 1062 1334 c 0,30,31
 927 1495 927 1495 717 1495 c 0,16,17
785 1950 m 1,32,-1
 963 1675 l 1,33,-1
 899 1675 l 1,34,-1
 725 1878 l 1,35,-1
 555 1675 l 1,36,-1
 492 1675 l 1,37,-1
 668 1950 l 1,38,-1
 785 1950 l 1,32,-1
EndSplineSet
Validated: 1
Substitution2: "'ital' Italics lookup 17 subtable" Ocircumflex.ital
Substitution2: "'vrt2' Vertical Rotation & Alternates lookup 5 subtable" Ocircumflex.vert
AlternateSubs2: "'aalt' +BBIEQQQ1 +BDAEOwRMBEIENQRABD0EMARCBDgEMgQ9BEsENQAA +BDIEMARABDgEMAQ9BEIESwAA lookup 1 per glyph data 0" Ocircumflex.vert Ocircumflex.ital
EndChar

StartChar: Otilde
Encoding: 213 213 143
Width: 1432
GlyphClass: 2
Flags: W
LayerCount: 2
Fore
SplineSet
717 1571 m 0,0,1
 995 1571 995 1571 1161 1341 c 0,2,3
 1313 1130 1313 1130 1313 795 c 0,4,5
 1313 409 1313 409 1118 191 c 0,6,7
 956 10 956 10 717 10 c 0,8,9
 438 10 438 10 271 243 c 0,10,11
 119 454 119 454 119 791 c 0,12,13
 119 1175 119 1175 315 1392 c 0,14,15
 477 1571 477 1571 717 1571 c 0,0,1
717 1495 m 0,16,17
 474 1495 474 1495 335 1287 c 0,18,19
 209 1098 209 1098 209 793 c 0,20,21
 209 442 209 442 371 248 c 0,22,23
 507 86 507 86 717 86 c 0,24,25
 959 86 959 86 1098 297 c 0,26,27
 1223 486 1223 486 1223 793 c 0,28,29
 1223 1143 1223 1143 1062 1334 c 0,30,31
 927 1495 927 1495 717 1495 c 0,16,17
959 1843 m 1,32,33
 947 1686 947 1686 848 1686 c 0,34,35
 796 1686 796 1686 715 1720 c 0,36,37
 626 1759 626 1759 598 1759 c 0,38,39
 548 1759 548 1759 535 1686 c 1,40,-1
 479 1686 l 1,41,42
 496 1841 496 1841 598 1841 c 0,43,44
 639 1841 639 1841 731 1803 c 0,45,46
 815 1768 815 1768 850 1768 c 0,47,48
 892 1768 892 1768 905 1843 c 1,49,-1
 959 1843 l 1,32,33
EndSplineSet
Validated: 1
Substitution2: "'ital' Italics lookup 17 subtable" Otilde.ital
Substitution2: "'vrt2' Vertical Rotation & Alternates lookup 5 subtable" Otilde.vert
AlternateSubs2: "'aalt' +BBIEQQQ1 +BDAEOwRMBEIENQRABD0EMARCBDgEMgQ9BEsENQAA +BDIEMARABDgEMAQ9BEIESwAA lookup 1 per glyph data 0" Otilde.vert Otilde.ital
EndChar

StartChar: Odieresis
Encoding: 214 214 144
Width: 1432
GlyphClass: 2
Flags: W
LayerCount: 2
Fore
SplineSet
717 1571 m 0,0,1
 995 1571 995 1571 1161 1341 c 0,2,3
 1313 1130 1313 1130 1313 795 c 0,4,5
 1313 409 1313 409 1118 191 c 0,6,7
 956 10 956 10 717 10 c 0,8,9
 438 10 438 10 271 243 c 0,10,11
 119 454 119 454 119 791 c 0,12,13
 119 1175 119 1175 315 1392 c 0,14,15
 477 1571 477 1571 717 1571 c 0,0,1
717 1495 m 0,16,17
 474 1495 474 1495 335 1287 c 0,18,19
 209 1098 209 1098 209 793 c 0,20,21
 209 442 209 442 371 248 c 0,22,23
 507 86 507 86 717 86 c 0,24,25
 959 86 959 86 1098 297 c 0,26,27
 1223 486 1223 486 1223 793 c 0,28,29
 1223 1143 1223 1143 1062 1334 c 0,30,31
 927 1495 927 1495 717 1495 c 0,16,17
619 1833 m 1,32,-1
 619 1696 l 1,33,-1
 490 1696 l 1,34,-1
 490 1833 l 1,35,-1
 619 1833 l 1,32,-1
946 1833 m 1,36,-1
 946 1696 l 1,37,-1
 817 1696 l 1,38,-1
 817 1833 l 1,39,-1
 946 1833 l 1,36,-1
EndSplineSet
Validated: 1
Substitution2: "'hwid' Half Widths lookup 33 subtable" Odieresis.hwid
Substitution2: "'ital' Italics lookup 17 subtable" Odieresis.ital
Substitution2: "'vrt2' Vertical Rotation & Alternates lookup 5 subtable" Odieresis.vert
AlternateSubs2: "'aalt' +BBIEQQQ1 +BDAEOwRMBEIENQRABD0EMARCBDgEMgQ9BEsENQAA +BDIEMARABDgEMAQ9BEIESwAA lookup 1 per glyph data 0" Odieresis.hwid Odieresis.vert Odieresis.ital
EndChar

StartChar: multiply
Encoding: 215 215 145
Width: 2048
GlyphClass: 2
Flags: W
LayerCount: 2
Fore
SplineSet
974 778 m 1,0,-1
 534 1219 l 1,1,-1
 583 1268 l 1,2,-1
 1024 827 l 1,3,-1
 1464 1268 l 1,4,-1
 1513 1219 l 1,5,-1
 1073 778 l 1,6,-1
 1515 336 l 1,7,-1
 1466 287 l 1,8,-1
 1024 729 l 1,9,-1
 581 287 l 1,10,-1
 532 336 l 1,11,-1
 974 778 l 1,0,-1
EndSplineSet
Validated: 1
Substitution2: "'pwid' Proportional Width lookup 20 subtable" multiply.pwid
AlternateSubs2: "'nalt' Alternate Annotation Forms lookup 16 subtable" uni22A0 circlemultiply
AlternateSubs2: "'aalt' +BBIEQQQ1 +BDAEOwRMBEIENQRABD0EMARCBDgEMgQ9BEsENQAA +BDIEMARABDgEMAQ9BEIESwAA lookup 1 per glyph data 0" multiply.pwid uni2573 glyph9631 uni22A0 circlemultiply circlemultiply.pwid uni22A0.pwid
Position2: "'vpal' Proportional Alternate Vertical Metrics lookup 3 per glyph data 27" dx=0 dy=340 dh=0 dv=-678
Position2: "'palt' Proportional Alternate Metrics lookup 0 per glyph data 2" dx=-319 dy=0 dh=-635 dv=0
EndChar

StartChar: Oslash
Encoding: 216 216 146
Width: 1432
GlyphClass: 2
Flags: W
LayerCount: 2
Fore
SplineSet
1346 1530 m 1,0,-1
 1176 1317 l 1,1,2
 1313 1111 1313 1111 1313 794 c 0,3,4
 1313 409 1313 409 1118 191 c 0,5,6
 956 10 956 10 717 10 c 0,7,8
 457 10 457 10 295 213 c 1,9,-1
 135 12 l 1,10,-1
 82 51 l 1,11,-1
 254 266 l 1,12,13
 119 478 119 478 119 791 c 0,14,15
 119 1175 119 1175 315 1392 c 0,16,17
 477 1571 477 1571 717 1571 c 0,18,19
 970 1571 970 1571 1137 1372 c 1,20,-1
 1294 1571 l 1,21,-1
 1346 1530 l 1,0,-1
1083 1306 m 1,22,23
 945 1495 945 1495 717 1495 c 0,24,25
 474 1495 474 1495 335 1287 c 0,26,27
 209 1098 209 1098 209 793 c 0,28,29
 209 519 209 519 309 338 c 1,30,-1
 1083 1306 l 1,22,23
1120 1249 m 1,31,-1
 348 279 l 1,32,33
 487 86 487 86 717 86 c 0,34,35
 959 86 959 86 1098 297 c 0,36,37
 1223 486 1223 486 1223 792 c 0,38,39
 1223 1067 1223 1067 1120 1249 c 1,31,-1
EndSplineSet
Validated: 1
Substitution2: "'ital' Italics lookup 17 subtable" Oslash.ital
Substitution2: "'vrt2' Vertical Rotation & Alternates lookup 5 subtable" Oslash.vert
AlternateSubs2: "'aalt' +BBIEQQQ1 +BDAEOwRMBEIENQRABD0EMARCBDgEMgQ9BEsENQAA +BDIEMARABDgEMAQ9BEIESwAA lookup 1 per glyph data 0" Oslash.vert Oslash.ital
EndChar

StartChar: Ugrave
Encoding: 217 217 147
Width: 1450
GlyphClass: 2
Flags: W
LayerCount: 2
Fore
SplineSet
1243 1544 m 1,0,-1
 1243 526 l 2,1,2
 1243 253 1243 253 1065 116 c 0,3,4
 928 10 928 10 721 10 c 0,5,6
 481 10 481 10 343 148 c 0,7,8
 207 284 207 284 207 524 c 2,9,-1
 207 1544 l 1,10,-1
 289 1544 l 1,11,-1
 289 532 l 2,12,13
 289 295 289 295 425 180 c 0,14,15
 537 86 537 86 725 86 c 0,16,17
 942 86 942 86 1055 209 c 0,18,19
 1161 324 1161 324 1161 532 c 2,20,-1
 1161 1544 l 1,21,-1
 1243 1544 l 1,0,-1
670 1950 m 1,22,-1
 782 1675 l 1,23,-1
 725 1675 l 1,24,-1
 545 1950 l 1,25,-1
 670 1950 l 1,22,-1
EndSplineSet
Validated: 1
Substitution2: "'ital' Italics lookup 17 subtable" Ugrave.ital
Substitution2: "'vrt2' Vertical Rotation & Alternates lookup 5 subtable" Ugrave.vert
AlternateSubs2: "'aalt' +BBIEQQQ1 +BDAEOwRMBEIENQRABD0EMARCBDgEMgQ9BEsENQAA +BDIEMARABDgEMAQ9BEIESwAA lookup 1 per glyph data 0" Ugrave.vert Ugrave.ital
EndChar

StartChar: Uacute
Encoding: 218 218 148
Width: 1450
GlyphClass: 2
Flags: W
LayerCount: 2
Fore
SplineSet
1243 1544 m 1,0,-1
 1243 526 l 2,1,2
 1243 253 1243 253 1065 116 c 0,3,4
 928 10 928 10 721 10 c 0,5,6
 481 10 481 10 343 148 c 0,7,8
 207 284 207 284 207 524 c 2,9,-1
 207 1544 l 1,10,-1
 289 1544 l 1,11,-1
 289 532 l 2,12,13
 289 295 289 295 425 180 c 0,14,15
 537 86 537 86 725 86 c 0,16,17
 942 86 942 86 1055 209 c 0,18,19
 1161 324 1161 324 1161 532 c 2,20,-1
 1161 1544 l 1,21,-1
 1243 1544 l 1,0,-1
780 1950 m 1,22,-1
 905 1950 l 1,23,-1
 725 1675 l 1,24,-1
 668 1675 l 1,25,-1
 780 1950 l 1,22,-1
EndSplineSet
Validated: 1
Substitution2: "'ital' Italics lookup 17 subtable" Uacute.ital
Substitution2: "'vrt2' Vertical Rotation & Alternates lookup 5 subtable" Uacute.vert
AlternateSubs2: "'aalt' +BBIEQQQ1 +BDAEOwRMBEIENQRABD0EMARCBDgEMgQ9BEsENQAA +BDIEMARABDgEMAQ9BEIESwAA lookup 1 per glyph data 0" Uacute.vert Uacute.ital
EndChar

StartChar: Ucircumflex
Encoding: 219 219 149
Width: 1450
GlyphClass: 2
Flags: W
LayerCount: 2
Fore
SplineSet
1243 1544 m 1,0,-1
 1243 526 l 2,1,2
 1243 253 1243 253 1065 116 c 0,3,4
 928 10 928 10 721 10 c 0,5,6
 481 10 481 10 343 148 c 0,7,8
 207 284 207 284 207 524 c 2,9,-1
 207 1544 l 1,10,-1
 289 1544 l 1,11,-1
 289 532 l 2,12,13
 289 295 289 295 425 180 c 0,14,15
 537 86 537 86 725 86 c 0,16,17
 942 86 942 86 1055 209 c 0,18,19
 1161 324 1161 324 1161 532 c 2,20,-1
 1161 1544 l 1,21,-1
 1243 1544 l 1,0,-1
793 1950 m 1,22,-1
 971 1675 l 1,23,-1
 907 1675 l 1,24,-1
 733 1878 l 1,25,-1
 563 1675 l 1,26,-1
 500 1675 l 1,27,-1
 676 1950 l 1,28,-1
 793 1950 l 1,22,-1
EndSplineSet
Validated: 1
Substitution2: "'ital' Italics lookup 17 subtable" Ucircumflex.ital
Substitution2: "'vrt2' Vertical Rotation & Alternates lookup 5 subtable" Ucircumflex.vert
AlternateSubs2: "'aalt' +BBIEQQQ1 +BDAEOwRMBEIENQRABD0EMARCBDgEMgQ9BEsENQAA +BDIEMARABDgEMAQ9BEIESwAA lookup 1 per glyph data 0" Ucircumflex.vert Ucircumflex.ital
EndChar

StartChar: Udieresis
Encoding: 220 220 150
Width: 1450
GlyphClass: 2
Flags: W
LayerCount: 2
Fore
SplineSet
1243 1544 m 1,0,-1
 1243 526 l 2,1,2
 1243 253 1243 253 1065 116 c 0,3,4
 928 10 928 10 721 10 c 0,5,6
 481 10 481 10 343 148 c 0,7,8
 207 284 207 284 207 524 c 2,9,-1
 207 1544 l 1,10,-1
 289 1544 l 1,11,-1
 289 532 l 2,12,13
 289 295 289 295 425 180 c 0,14,15
 537 86 537 86 725 86 c 0,16,17
 942 86 942 86 1055 209 c 0,18,19
 1161 324 1161 324 1161 532 c 2,20,-1
 1161 1544 l 1,21,-1
 1243 1544 l 1,0,-1
629 1833 m 1,22,-1
 629 1696 l 1,23,-1
 500 1696 l 1,24,-1
 500 1833 l 1,25,-1
 629 1833 l 1,22,-1
957 1833 m 1,26,-1
 957 1696 l 1,27,-1
 828 1696 l 1,28,-1
 828 1833 l 1,29,-1
 957 1833 l 1,26,-1
EndSplineSet
Validated: 1
Substitution2: "'hwid' Half Widths lookup 33 subtable" Udieresis.hwid
Substitution2: "'ital' Italics lookup 17 subtable" Udieresis.ital
Substitution2: "'vrt2' Vertical Rotation & Alternates lookup 5 subtable" Udieresis.vert
AlternateSubs2: "'aalt' +BBIEQQQ1 +BDAEOwRMBEIENQRABD0EMARCBDgEMgQ9BEsENQAA +BDIEMARABDgEMAQ9BEIESwAA lookup 1 per glyph data 0" Udieresis.hwid Udieresis.vert Udieresis.ital
EndChar

StartChar: Yacute
Encoding: 221 221 151
Width: 1251
GlyphClass: 2
Flags: W
LayerCount: 2
Fore
SplineSet
1196 1544 m 1,0,-1
 659 686 l 1,1,-1
 659 37 l 1,2,-1
 575 37 l 1,3,-1
 575 686 l 1,4,-1
 55 1544 l 1,5,-1
 153 1544 l 1,6,-1
 548 883 l 2,7,8
 598 801 598 801 620 762 c 1,9,-1
 698 889 l 1,10,-1
 1099 1544 l 1,11,-1
 1196 1544 l 1,0,-1
680 1950 m 1,12,-1
 805 1950 l 1,13,-1
 624 1675 l 1,14,-1
 567 1675 l 1,15,-1
 680 1950 l 1,12,-1
EndSplineSet
Validated: 1
Substitution2: "'ital' Italics lookup 17 subtable" Yacute.ital
Substitution2: "'vrt2' Vertical Rotation & Alternates lookup 5 subtable" Yacute.vert
AlternateSubs2: "'aalt' +BBIEQQQ1 +BDAEOwRMBEIENQRABD0EMARCBDgEMgQ9BEsENQAA +BDIEMARABDgEMAQ9BEIESwAA lookup 1 per glyph data 0" Yacute.vert Yacute.ital
EndChar

StartChar: Thorn
Encoding: 222 222 152
Width: 1290
GlyphClass: 2
Flags: W
LayerCount: 2
Fore
SplineSet
213 1544 m 1,0,-1
 297 1544 l 1,1,-1
 297 1237 l 1,2,-1
 678 1237 l 2,3,4
 941 1237 941 1237 1069 1117 c 0,5,6
 1178 1014 1178 1014 1178 836 c 0,7,8
 1178 630 1178 630 1029 521 c 0,9,10
 896 424 896 424 666 424 c 2,11,-1
 297 424 l 1,12,-1
 297 37 l 1,13,-1
 213 37 l 1,14,-1
 213 1544 l 1,0,-1
297 1163 m 1,15,-1
 297 496 l 1,16,-1
 659 496 l 2,17,18
 1090 496 1090 496 1090 834 c 0,19,20
 1090 1163 1090 1163 672 1163 c 2,21,-1
 297 1163 l 1,15,-1
EndSplineSet
Validated: 1
Substitution2: "'ital' Italics lookup 17 subtable" Thorn.ital
Substitution2: "'vrt2' Vertical Rotation & Alternates lookup 5 subtable" Thorn.vert
AlternateSubs2: "'aalt' +BBIEQQQ1 +BDAEOwRMBEIENQRABD0EMARCBDgEMgQ9BEsENQAA +BDIEMARABDgEMAQ9BEIESwAA lookup 1 per glyph data 0" Thorn.vert Thorn.ital
EndChar

StartChar: germandbls
Encoding: 223 223 153
Width: 1155
GlyphClass: 2
Flags: W
LayerCount: 2
Fore
SplineSet
618 1567 m 0,0,1
 761 1567 761 1567 839 1488 c 0,2,3
 907 1420 907 1420 907 1311 c 0,4,5
 907 1213 907 1213 858 1147 c 0,6,7
 816 1088 816 1088 718 1026 c 0,8,9
 615 962 615 962 615 887 c 0,10,11
 615 843 615 843 648 804 c 0,12,13
 682 764 682 764 773 698 c 0,14,15
 941 577 941 577 996 482 c 0,16,17
 1038 409 1038 409 1038 307 c 0,18,19
 1038 169 1038 169 941 85 c 0,20,21
 860 14 860 14 743 14 c 0,22,23
 612 14 612 14 533 75 c 0,24,25
 475 119 475 119 423 215 c 1,26,-1
 493 250 l 1,27,28
 577 82 577 82 742 82 c 0,29,30
 836 82 836 82 898 150 c 0,31,32
 954 212 954 212 954 301 c 0,33,34
 954 399 954 399 910 464 c 0,35,36
 861 538 861 538 726 639 c 0,37,38
 606 729 606 729 569 784 c 0,39,40
 540 828 540 828 540 884 c 0,41,42
 540 944 540 944 576 990 c 0,43,44
 607 1029 607 1029 679 1079 c 0,45,46
 772 1145 772 1145 800 1197 c 0,47,48
 825 1240 825 1240 825 1311 c 0,49,50
 825 1404 825 1404 762 1455 c 0,51,52
 708 1499 708 1499 618 1499 c 0,53,54
 481 1499 481 1499 397 1392 c 0,55,56
 319 1293 319 1293 319 1135 c 2,57,-1
 319 37 l 1,58,-1
 239 37 l 1,59,-1
 239 993 l 1,60,-1
 46 993 l 1,61,-1
 46 1063 l 1,62,-1
 239 1063 l 1,63,-1
 239 1133 l 2,64,65
 239 1341 239 1341 367 1465 c 0,66,67
 473 1567 473 1567 618 1567 c 0,0,1
EndSplineSet
Validated: 1
Substitution2: "'hwid' Half Widths lookup 33 subtable" germandbls.hwid
Substitution2: "'ital' Italics lookup 17 subtable" germandbls.ital
Substitution2: "'vrt2' Vertical Rotation & Alternates lookup 5 subtable" germandbls.vert
AlternateSubs2: "'aalt' +BBIEQQQ1 +BDAEOwRMBEIENQRABD0EMARCBDgEMgQ9BEsENQAA +BDIEMARABDgEMAQ9BEIESwAA lookup 1 per glyph data 0" germandbls.hwid germandbls.vert germandbls.ital
EndChar

StartChar: agrave
Encoding: 224 224 154
Width: 1067
GlyphClass: 2
Flags: W
LayerCount: 2
Fore
SplineSet
162 832 m 1,0,1
 263 1086 263 1086 547 1086 c 0,2,3
 729 1086 729 1086 811 994 c 0,4,5
 885 910 885 910 885 744 c 2,6,-1
 885 408 l 2,7,8
 885 163 885 163 912 37 c 1,9,-1
 836 37 l 1,10,11
 819 107 819 107 809 238 c 1,12,13
 659 14 659 14 430 14 c 0,14,15
 270 14 270 14 185 108 c 0,16,17
 115 185 115 185 115 305 c 0,18,19
 115 583 115 583 455 639 c 0,20,21
 586 661 586 661 805 672 c 1,22,-1
 805 729 l 2,23,24
 805 898 805 898 737 962 c 0,25,26
 677 1018 677 1018 547 1018 c 0,27,28
 308 1018 308 1018 236 795 c 1,29,-1
 162 832 l 1,0,1
805 608 m 1,30,31
 628 602 628 602 469 574 c 0,32,33
 197 523 197 523 197 307 c 0,34,35
 197 196 197 196 267 137 c 0,36,37
 329 84 329 84 432 84 c 0,38,39
 652 84 652 84 805 326 c 1,40,-1
 805 608 l 1,30,31
492 1544 m 1,41,-1
 584 1270 l 1,42,-1
 527 1270 l 1,43,-1
 371 1544 l 1,44,-1
 492 1544 l 1,41,-1
EndSplineSet
Validated: 1
Substitution2: "'hwid' Half Widths lookup 33 subtable" agrave.hwid
Substitution2: "'ital' Italics lookup 17 subtable" agrave.ital
Substitution2: "'vrt2' Vertical Rotation & Alternates lookup 5 subtable" agrave.vert
AlternateSubs2: "'aalt' +BBIEQQQ1 +BDAEOwRMBEIENQRABD0EMARCBDgEMgQ9BEsENQAA +BDIEMARABDgEMAQ9BEIESwAA lookup 1 per glyph data 0" agrave.hwid agrave.vert agrave.ital
EndChar

StartChar: aacute
Encoding: 225 225 155
Width: 1067
GlyphClass: 2
Flags: W
LayerCount: 2
Fore
SplineSet
162 832 m 1,0,1
 263 1086 263 1086 547 1086 c 0,2,3
 729 1086 729 1086 811 994 c 0,4,5
 885 910 885 910 885 744 c 2,6,-1
 885 408 l 2,7,8
 885 163 885 163 912 37 c 1,9,-1
 836 37 l 1,10,11
 819 107 819 107 809 238 c 1,12,13
 659 14 659 14 430 14 c 0,14,15
 270 14 270 14 185 108 c 0,16,17
 115 185 115 185 115 305 c 0,18,19
 115 583 115 583 455 639 c 0,20,21
 586 661 586 661 805 672 c 1,22,-1
 805 729 l 2,23,24
 805 898 805 898 737 962 c 0,25,26
 677 1018 677 1018 547 1018 c 0,27,28
 308 1018 308 1018 236 795 c 1,29,-1
 162 832 l 1,0,1
805 608 m 1,30,31
 628 602 628 602 469 574 c 0,32,33
 197 523 197 523 197 307 c 0,34,35
 197 196 197 196 267 137 c 0,36,37
 329 84 329 84 432 84 c 0,38,39
 652 84 652 84 805 326 c 1,40,-1
 805 608 l 1,30,31
607 1544 m 1,41,-1
 727 1544 l 1,42,-1
 572 1270 l 1,43,-1
 514 1270 l 1,44,-1
 607 1544 l 1,41,-1
EndSplineSet
Validated: 1
Substitution2: "'hwid' Half Widths lookup 33 subtable" aacute.hwid
Substitution2: "'ital' Italics lookup 17 subtable" aacute.ital
Substitution2: "'vrt2' Vertical Rotation & Alternates lookup 5 subtable" aacute.vert
AlternateSubs2: "'aalt' +BBIEQQQ1 +BDAEOwRMBEIENQRABD0EMARCBDgEMgQ9BEsENQAA +BDIEMARABDgEMAQ9BEIESwAA lookup 1 per glyph data 0" aacute.hwid aacute.vert aacute.ital
EndChar

StartChar: acircumflex
Encoding: 226 226 156
Width: 1067
GlyphClass: 2
Flags: W
LayerCount: 2
Fore
SplineSet
162 832 m 1,0,1
 263 1086 263 1086 547 1086 c 0,2,3
 729 1086 729 1086 811 994 c 0,4,5
 885 910 885 910 885 744 c 2,6,-1
 885 408 l 2,7,8
 885 163 885 163 912 37 c 1,9,-1
 836 37 l 1,10,11
 819 107 819 107 809 238 c 1,12,13
 659 14 659 14 430 14 c 0,14,15
 270 14 270 14 185 108 c 0,16,17
 115 185 115 185 115 305 c 0,18,19
 115 583 115 583 455 639 c 0,20,21
 586 661 586 661 805 672 c 1,22,-1
 805 729 l 2,23,24
 805 898 805 898 737 962 c 0,25,26
 677 1018 677 1018 547 1018 c 0,27,28
 308 1018 308 1018 236 795 c 1,29,-1
 162 832 l 1,0,1
805 608 m 1,30,31
 628 602 628 602 469 574 c 0,32,33
 197 523 197 523 197 307 c 0,34,35
 197 196 197 196 267 137 c 0,36,37
 329 84 329 84 432 84 c 0,38,39
 652 84 652 84 805 326 c 1,40,-1
 805 608 l 1,30,31
607 1544 m 1,41,-1
 768 1270 l 1,42,-1
 705 1270 l 1,43,-1
 547 1474 l 1,44,-1
 394 1270 l 1,45,-1
 330 1270 l 1,46,-1
 490 1544 l 1,47,-1
 607 1544 l 1,41,-1
EndSplineSet
Validated: 1
Substitution2: "'hwid' Half Widths lookup 33 subtable" acircumflex.hwid
Substitution2: "'ital' Italics lookup 17 subtable" acircumflex.ital
Substitution2: "'vrt2' Vertical Rotation & Alternates lookup 5 subtable" acircumflex.vert
AlternateSubs2: "'aalt' +BBIEQQQ1 +BDAEOwRMBEIENQRABD0EMARCBDgEMgQ9BEsENQAA +BDIEMARABDgEMAQ9BEIESwAA lookup 1 per glyph data 0" acircumflex.hwid acircumflex.vert acircumflex.ital
EndChar

StartChar: atilde
Encoding: 227 227 157
Width: 1067
GlyphClass: 2
Flags: W
LayerCount: 2
Fore
SplineSet
162 832 m 1,0,1
 263 1086 263 1086 547 1086 c 0,2,3
 729 1086 729 1086 811 994 c 0,4,5
 885 910 885 910 885 744 c 2,6,-1
 885 408 l 2,7,8
 885 163 885 163 912 37 c 1,9,-1
 836 37 l 1,10,11
 819 107 819 107 809 238 c 1,12,13
 659 14 659 14 430 14 c 0,14,15
 270 14 270 14 185 108 c 0,16,17
 115 185 115 185 115 305 c 0,18,19
 115 583 115 583 455 639 c 0,20,21
 586 661 586 661 805 672 c 1,22,-1
 805 729 l 2,23,24
 805 898 805 898 737 962 c 0,25,26
 677 1018 677 1018 547 1018 c 0,27,28
 308 1018 308 1018 236 795 c 1,29,-1
 162 832 l 1,0,1
805 608 m 1,30,31
 628 602 628 602 469 574 c 0,32,33
 197 523 197 523 197 307 c 0,34,35
 197 196 197 196 267 137 c 0,36,37
 329 84 329 84 432 84 c 0,38,39
 652 84 652 84 805 326 c 1,40,-1
 805 608 l 1,30,31
774 1436 m 1,41,42
 763 1278 763 1278 664 1278 c 0,43,44
 614 1278 614 1278 547 1313 c 0,45,46
 468 1354 468 1354 447 1354 c 0,47,48
 396 1354 396 1354 383 1278 c 1,49,-1
 328 1278 l 1,50,51
 345 1434 345 1434 447 1434 c 0,52,53
 486 1434 486 1434 564 1395 c 0,54,55
 637 1358 637 1358 666 1358 c 0,56,57
 708 1358 708 1358 721 1436 c 1,58,-1
 774 1436 l 1,41,42
EndSplineSet
Validated: 1
Substitution2: "'ital' Italics lookup 17 subtable" atilde.ital
Substitution2: "'vrt2' Vertical Rotation & Alternates lookup 5 subtable" atilde.vert
AlternateSubs2: "'aalt' +BBIEQQQ1 +BDAEOwRMBEIENQRABD0EMARCBDgEMgQ9BEsENQAA +BDIEMARABDgEMAQ9BEIESwAA lookup 1 per glyph data 0" atilde.vert atilde.ital
EndChar

StartChar: adieresis
Encoding: 228 228 158
Width: 1067
GlyphClass: 2
Flags: W
LayerCount: 2
Fore
SplineSet
162 832 m 1,0,1
 263 1086 263 1086 547 1086 c 0,2,3
 729 1086 729 1086 811 994 c 0,4,5
 885 910 885 910 885 744 c 2,6,-1
 885 408 l 2,7,8
 885 163 885 163 912 37 c 1,9,-1
 836 37 l 1,10,11
 819 107 819 107 809 238 c 1,12,13
 659 14 659 14 430 14 c 0,14,15
 270 14 270 14 185 108 c 0,16,17
 115 185 115 185 115 305 c 0,18,19
 115 583 115 583 455 639 c 0,20,21
 586 661 586 661 805 672 c 1,22,-1
 805 729 l 2,23,24
 805 898 805 898 737 962 c 0,25,26
 677 1018 677 1018 547 1018 c 0,27,28
 308 1018 308 1018 236 795 c 1,29,-1
 162 832 l 1,0,1
805 608 m 1,30,31
 628 602 628 602 469 574 c 0,32,33
 197 523 197 523 197 307 c 0,34,35
 197 196 197 196 267 137 c 0,36,37
 329 84 329 84 432 84 c 0,38,39
 652 84 652 84 805 326 c 1,40,-1
 805 608 l 1,30,31
463 1425 m 1,41,-1
 463 1288 l 1,42,-1
 340 1288 l 1,43,-1
 340 1425 l 1,44,-1
 463 1425 l 1,41,-1
764 1425 m 1,45,-1
 764 1288 l 1,46,-1
 641 1288 l 1,47,-1
 641 1425 l 1,48,-1
 764 1425 l 1,45,-1
EndSplineSet
Validated: 1
Substitution2: "'hwid' Half Widths lookup 33 subtable" adieresis.hwid
Substitution2: "'ital' Italics lookup 17 subtable" adieresis.ital
Substitution2: "'vrt2' Vertical Rotation & Alternates lookup 5 subtable" adieresis.vert
AlternateSubs2: "'aalt' +BBIEQQQ1 +BDAEOwRMBEIENQRABD0EMARCBDgEMgQ9BEsENQAA +BDIEMARABDgEMAQ9BEIESwAA lookup 1 per glyph data 0" adieresis.hwid adieresis.vert adieresis.ital
EndChar

